<svg width="131" height="132" viewBox="0 0 131 132" fill="none" xmlns="http://www.w3.org/2000/svg">
<g clip-path="url(#clip0_2_501)">
<path d="M11.9391 17.6964C13.2181 18.873 14.1492 20.0421 14.2989 21.8214C14.2971 22.0994 14.2953 22.3775 14.2935 22.664C14.292 22.9582 14.2905 23.2525 14.289 23.5556C14.2335 24.2745 14.1327 24.6731 13.8261 25.3051C13.6169 26.1519 13.6169 26.1519 14.1091 26.7316C14.5055 27.1727 14.9135 27.6037 15.3302 28.0256C16.2275 28.9446 16.9946 29.9493 17.7808 30.9639C18.4206 31.673 18.9353 31.9983 19.8839 32.1379C20.0819 32.1462 20.2798 32.1546 20.4838 32.1633C20.6994 32.1735 20.9151 32.1838 21.1373 32.1944C21.4716 32.2068 21.4716 32.2068 21.8127 32.2195C22.0396 32.2298 22.2664 32.2401 22.5001 32.2507C23.0585 32.2757 23.6168 32.2986 24.1753 32.3196C24.1668 32.1118 24.1582 31.9041 24.1494 31.6901C24.0741 28.3738 24.7129 25.5164 27.0285 23.0346C29.8412 20.412 32.6256 19.9596 36.3702 19.9686C36.7203 19.9676 37.0705 19.9665 37.4206 19.9651C38.367 19.9622 39.3133 19.9626 40.2596 19.9638C40.8523 19.9645 41.445 19.9644 42.0378 19.964C44.1099 19.9627 46.182 19.9641 48.2541 19.968C50.1786 19.9715 52.1031 19.9693 54.0277 19.9645C55.6857 19.9605 57.3438 19.9606 59.0018 19.9637C59.9896 19.9654 60.9772 19.9657 61.965 19.9619C62.8951 19.9584 63.825 19.96 64.7551 19.9653C65.2542 19.9669 65.7532 19.9635 66.2523 19.9599C69.4238 19.9876 72.1014 20.803 74.5111 22.9249C76.3639 24.894 77.3477 27.2891 77.3381 29.9781C77.3378 30.1431 77.3376 30.3082 77.3373 30.4783C77.3362 31.0216 77.3333 31.565 77.3304 32.1084C77.3293 32.486 77.3283 32.8636 77.3274 33.2412C77.3248 34.2335 77.3206 35.2257 77.3161 36.218C77.3118 37.2312 77.309 38.2444 77.306 39.2575C77.2999 41.2443 77.2922 43.2311 77.2835 45.2178C77.504 45.2157 77.504 45.2157 77.729 45.2134C79.2622 45.1989 80.7954 45.1899 82.3286 45.1841C82.9004 45.1812 83.4723 45.1769 84.0441 45.1712C84.8671 45.1632 85.69 45.1603 86.5131 45.1582C86.8952 45.1529 86.8952 45.1529 87.2849 45.1475C88.6533 45.1495 89.6476 45.2134 90.8201 46.0091C91.2136 46.8018 91.1481 47.4428 91.0717 48.3152C90.5646 48.9689 90.2594 49.2958 89.4403 49.4604C89.2157 49.4578 88.9911 49.4551 88.7596 49.4524C88.504 49.4519 88.2484 49.4514 87.985 49.4509C87.711 49.4451 87.4369 49.4394 87.1545 49.4334C86.8725 49.4315 86.5904 49.4296 86.2999 49.4276C85.3993 49.4204 84.499 49.406 83.5985 49.3915C82.9879 49.3853 82.3772 49.3796 81.7666 49.3744C80.2698 49.3614 78.7735 49.3389 77.2767 49.3168C77.2719 52.1912 77.267 55.0656 77.2621 58.0271C78.6371 58.0116 78.6371 58.0116 80.04 57.9958C80.9318 57.9893 81.8237 57.9845 82.7157 57.98C83.3336 57.9759 83.9514 57.9699 84.5693 57.9621C85.4596 57.9511 86.3497 57.9468 87.24 57.9438C87.5144 57.939 87.7888 57.9341 88.0716 57.9292C90.0654 57.9319 91.4573 58.2856 92.9515 59.6396C93.1201 59.8403 93.2886 60.0411 93.4623 60.2479C93.6519 60.4711 93.8415 60.6943 94.0369 60.9243C94.3282 61.28 94.3282 61.28 94.6254 61.6428C94.8327 61.8932 95.0401 62.1435 95.2537 62.4014C96.8429 64.3377 96.8429 64.3377 97.2788 65.0598C97.6615 65.5611 97.6615 65.5611 98.3396 65.5559C98.5922 65.5352 98.8447 65.5145 99.105 65.4931C100.951 65.4426 102.432 65.7468 103.839 67.0052C105.382 68.6986 105.719 70.0861 105.669 72.3641C105.48 74.3357 104.52 75.4059 103.054 76.6579C101.528 77.709 99.9711 77.7486 98.1748 77.5324C96.5153 77.0288 95.332 76.1869 94.379 74.733C93.4866 73.0516 93.4695 71.4331 93.8458 69.5833C94.0071 69.1528 94.1758 68.7249 94.3588 68.3033C94.1771 68.0893 93.9954 67.8753 93.8081 67.6549C92.5378 66.1541 91.284 64.6528 90.112 63.0723C89.7894 62.6261 89.7894 62.6261 89.2601 62.4024C88.8742 62.3715 88.4871 62.3558 88.1001 62.3479C87.8598 62.3424 87.6195 62.3369 87.3719 62.3312C86.982 62.3241 86.982 62.3241 86.5841 62.3169C86.1855 62.3082 86.1855 62.3082 85.7789 62.2994C84.9278 62.2812 84.0768 62.2647 83.2257 62.2482C82.6497 62.2362 82.0737 62.224 81.4976 62.2118C80.0835 62.182 78.6694 62.1535 77.2552 62.1261C77.2595 62.5457 77.2595 62.5457 77.2639 62.9738C77.266 63.3454 77.268 63.717 77.2699 64.0886C77.272 64.2724 77.2741 64.4562 77.2763 64.6457C77.2867 67.6584 76.1215 69.852 74.1096 72.0481C71.5937 74.4408 68.5292 74.7456 65.2289 74.6912C64.2174 74.6789 63.2059 74.6666 62.1637 74.654C62.1594 77.2748 62.155 79.8956 62.1504 82.5958C62.9166 82.5959 63.6827 82.5961 64.472 82.5962C71.5013 82.5978 78.5306 82.6019 85.5598 82.6088C86.4816 82.6097 87.4033 82.6106 88.325 82.6115C88.5085 82.6116 88.692 82.6118 88.8811 82.612C91.8502 82.6147 94.8193 82.6157 97.7885 82.6159C100.836 82.6162 103.884 82.6185 106.932 82.6226C108.643 82.6248 110.355 82.6261 112.066 82.6252C113.677 82.6244 115.288 82.626 116.899 82.6295C117.49 82.6304 118.081 82.6303 118.672 82.6294C119.48 82.6281 120.288 82.6301 121.096 82.6329C121.329 82.6318 121.562 82.6307 121.802 82.6295C124.598 82.6472 126.676 83.235 128.752 85.1751C130.559 87.1396 131.018 89.0828 130.947 91.7236C130.798 94.1729 130.053 96.5503 129.426 98.9103C129.279 99.4789 129.132 100.048 128.986 100.616C128.602 102.105 128.211 103.592 127.82 105.079C127.425 106.581 127.037 108.085 126.648 109.588C125.827 112.754 125.003 115.919 124.159 119.078C124.099 119.304 124.039 119.529 123.977 119.761C123.807 120.398 123.635 121.033 123.462 121.669C123.388 121.946 123.388 121.946 123.312 122.229C122.535 125.046 120.97 127.116 118.469 128.637C116.993 129.403 115.811 129.6 114.137 129.599C113.859 129.6 113.859 129.6 113.575 129.6C112.95 129.601 112.325 129.6 111.7 129.599C111.249 129.599 110.798 129.599 110.347 129.599C109.104 129.6 107.861 129.599 106.619 129.597C105.28 129.596 103.94 129.596 102.601 129.596C99.3659 129.596 96.1306 129.593 92.8954 129.59C91.3723 129.588 89.8493 129.587 88.3263 129.586C83.2644 129.582 78.2025 129.577 73.1406 129.57C71.8269 129.569 70.5131 129.567 69.1994 129.565C68.8728 129.565 68.5463 129.565 68.2099 129.564C62.9184 129.557 57.627 129.555 52.3356 129.554C46.9048 129.554 41.4739 129.549 36.0431 129.541C32.9932 129.537 29.9433 129.534 26.8933 129.535C24.2963 129.536 21.6993 129.534 19.1022 129.527C17.7771 129.524 16.452 129.522 15.1268 129.525C13.9134 129.527 12.7001 129.525 11.4866 129.519C11.048 129.518 10.6093 129.518 10.1706 129.52C5.98047 129.541 5.98047 129.54 4.09076 128.356C3.88714 128.238 3.68352 128.121 3.47373 128C1.72192 126.704 0.582461 125.084 0.0128745 122.969C-0.0605088 122.138 -0.0593939 121.31 -0.0571602 120.476C-0.0584626 120.229 -0.059765 119.983 -0.0611069 119.728C-0.0645869 118.914 -0.0642293 118.099 -0.0634146 117.285C-0.064104 116.716 -0.0648691 116.146 -0.0657066 115.577C-0.0667648 114.383 -0.065713 113.189 -0.0634106 111.995C-0.0608103 110.473 -0.0652189 108.952 -0.0714859 107.43C-0.0752282 106.253 -0.0742591 105.077 -0.072019 103.9C-0.071679 103.339 -0.0729764 102.779 -0.0760139 102.218C-0.103559 96.4217 0.985886 91.6595 5.18114 87.3679C9.26326 83.7905 13.6582 82.5581 18.9697 82.4394C19.8495 82.5358 20.3157 82.7752 21.0247 83.2955C21.5246 83.9587 21.5373 84.2667 21.4847 85.1055C21.264 85.9006 21.1433 86.132 20.5083 86.625C19.9539 86.7421 19.9539 86.7421 19.3117 86.7741C18.9584 86.7964 18.9584 86.7964 18.598 86.8192C18.2237 86.8398 18.2237 86.8398 17.8418 86.8607C13.7355 87.1616 10.4005 88.2768 7.50033 91.3297C5.34481 93.9399 4.27812 96.7653 4.29025 100.134C4.28703 100.49 4.28703 100.49 4.28374 100.853C4.2778 101.629 4.27745 102.405 4.2776 103.181C4.27553 103.724 4.27326 104.268 4.27082 104.811C4.26664 105.946 4.26535 107.081 4.26599 108.216C4.2665 109.669 4.25888 111.121 4.24901 112.573C4.24244 113.694 4.24064 114.815 4.24022 115.935C4.23936 116.471 4.23693 117.006 4.23286 117.542C4.22779 118.29 4.22927 119.039 4.23239 119.787C4.22956 120.007 4.22672 120.226 4.2238 120.452C4.23934 121.927 4.53855 122.784 5.37521 124.003C6.88571 125.356 8.87458 125.328 10.7903 125.346C10.9948 125.348 11.1993 125.351 11.41 125.354C12.0817 125.363 12.7533 125.371 13.425 125.378C13.8924 125.384 14.3598 125.391 14.8272 125.397C16.0542 125.413 17.2812 125.428 18.5082 125.442C19.7615 125.457 21.0148 125.474 22.2681 125.49C24.725 125.521 27.1818 125.552 29.6386 125.581C29.5566 125.386 29.4746 125.192 29.3901 124.991C28.8043 123.433 28.8897 121.557 29.3517 119.972C30.259 117.983 31.7098 116.602 33.7226 115.761C34.7109 115.455 35.7042 115.487 36.7307 115.491C36.9726 115.488 37.2146 115.486 37.4638 115.484C38.2585 115.477 39.0531 115.476 39.8479 115.475C40.4008 115.472 40.9538 115.468 41.5067 115.464C42.9584 115.455 44.4101 115.449 45.8618 115.445C47.6055 115.439 49.3493 115.427 51.093 115.417C53.7388 115.401 56.3845 115.392 59.0304 115.382C61.194 106.89 61.194 106.89 63.4014 98.2253C62.7279 97.7169 62.0544 97.2085 61.3606 96.6847C60.8356 96.2513 60.3146 95.8129 59.7982 95.3691C59.6589 95.2497 59.5195 95.1303 59.3759 95.0073C58.6275 94.3653 57.8816 93.7203 57.136 93.075C53.9566 90.3076 53.9566 90.3076 50.6475 87.7002C50.3176 87.9835 50.3176 87.9835 49.981 88.2725C48.3247 89.6937 46.6664 91.1122 44.9966 92.5172C44.2617 93.1366 43.5322 93.7613 42.8087 94.394C38.3384 98.294 38.3384 98.294 35.266 98.2482C33.4923 98.0746 32.4406 97.1914 31.3376 95.8574C30.7507 95.0597 30.3469 94.2086 29.9441 93.3067C29.8571 93.1182 29.7701 92.9296 29.6804 92.7354C29.4064 92.1402 29.1363 91.5433 28.8665 90.9462C28.6818 90.5429 28.4969 90.1398 28.3117 89.7368C27.9733 88.9999 27.6366 88.2623 27.3014 87.5239C27.0749 87.0299 26.8426 86.5381 26.589 86.0575C26.2437 85.3005 26.314 84.632 26.3879 83.8168C26.7303 83.1671 26.9225 82.8688 27.6247 82.6418C28.1982 82.5351 28.7194 82.509 29.3024 82.5117C29.5222 82.5121 29.742 82.5124 29.9685 82.5128C30.2035 82.5146 30.4385 82.5163 30.6806 82.518C31.0441 82.5192 31.0441 82.5192 31.4149 82.5204C32.1879 82.5231 32.9608 82.5276 33.7338 82.5322C34.2582 82.5343 34.7827 82.5364 35.3072 82.5383C36.5921 82.5431 37.8768 82.5502 39.1616 82.5573C39.166 79.9365 39.1704 77.3157 39.1749 74.6155C37.1883 74.6423 37.1883 74.6423 35.2018 74.6781C32.1026 74.6964 29.4107 73.908 27.1066 71.7492C24.3818 68.8041 24.0189 65.9573 24.1255 62.0371C23.2577 62.0416 22.3908 62.0599 21.5232 62.0808C21.2781 62.0819 21.033 62.083 20.7804 62.0841C19.288 62.1223 19.288 62.1223 18.0197 62.8585C17.8422 63.091 17.6647 63.3236 17.4817 63.5631C17.2921 63.7682 17.1024 63.9733 16.907 64.1846C16.5198 64.6165 16.1344 65.0499 15.7504 65.4846C15.4011 65.8735 15.043 66.2548 14.6709 66.6217C14.2618 67.0372 13.9233 67.3999 13.643 67.9119C13.7659 68.6648 13.7659 68.6648 13.9801 69.1564C14.46 70.7016 14.4158 72.6709 13.7602 74.1566C12.8601 75.6673 11.4672 76.8513 9.79563 77.3844C7.67901 77.666 5.91154 77.376 4.17829 76.094C2.79795 74.7424 2.17246 73.2835 2.12679 71.3651C2.2312 69.2961 3.05016 67.9134 4.54555 66.5196C5.57519 65.7069 6.56812 65.2621 7.90893 65.4115C9.08754 65.5348 9.77944 65.5733 10.7396 64.8188C11.4111 64.0818 12.0255 63.3231 12.6303 62.5303C15.7385 58.5951 15.7385 58.5951 17.7466 57.9275C18.2368 57.9071 18.7277 57.9016 19.2184 57.9049C19.6044 57.9065 19.6044 57.9065 19.9983 57.9082C20.3247 57.911 20.6511 57.9139 20.9874 57.9169C22.5442 57.9274 22.5442 57.9274 24.1324 57.9382C24.1372 55.0638 24.142 52.1893 24.147 49.2278C20.0167 49.2209 15.8863 49.214 11.6308 49.2069C11.4614 49.7138 11.292 50.2208 11.1174 50.7431C9.88847 52.1681 8.59061 53.1609 6.70084 53.3597C5.08909 53.4415 3.78122 53.1723 2.43018 52.2657C1.21935 51.1309 0.224446 50.0068 0.04311 48.3188C0.0125752 46.3464 0.00361826 44.7988 1.42347 43.2975C2.79127 41.8825 4.00467 41.2484 5.99287 41.1756C7.60737 41.2172 8.80565 41.5742 10.0454 42.6234C10.619 43.3129 10.619 43.3129 10.9871 44.1122C11.7238 44.949 11.849 44.9686 12.9027 45.0518C13.4269 45.0632 13.9512 45.0663 14.4755 45.0626C14.7518 45.0666 15.0282 45.0706 15.3129 45.0747C16.1953 45.0857 17.0773 45.0862 17.9597 45.0865C18.558 45.0921 19.1563 45.0984 19.7547 45.1055C21.2213 45.1225 22.6869 45.1253 24.1538 45.1289C24.1587 42.2545 24.1635 39.38 24.1684 36.4185C22.5791 36.436 22.5791 36.436 20.9899 36.4594C18.474 36.4711 16.6556 36.0229 14.804 34.1922C14.5822 33.9439 14.3603 33.6955 14.1318 33.4396C13.9526 33.2402 13.9526 33.2402 13.7697 33.0369C12.7533 31.8958 11.8006 30.7094 10.8656 29.5002C10.4108 28.9036 10.4108 28.9036 9.62172 28.7086C9.19037 28.7222 8.75924 28.7438 8.3285 28.7704C6.5102 28.7771 5.08962 28.2295 3.77867 26.9485C2.54963 25.4301 2.14361 23.972 2.24134 22.0353C2.50714 20.0628 3.57479 18.6875 5.10861 17.4768C7.16891 16.0734 9.92835 16.3508 11.9391 17.6964ZM6.56813 21.7864C6.27162 22.2674 6.27162 22.2674 6.31099 22.8107C6.66719 23.5282 7.02105 24.0385 7.58514 24.6062C8.43975 24.5608 9.12063 24.4997 9.86897 24.0656C10.3187 23.2727 10.2671 22.682 10.1442 21.7924C9.602 21.1378 9.602 21.1378 8.86873 20.7655C7.66621 20.7635 7.41004 20.9676 6.56813 21.7864ZM29.3364 26.714C28.1369 28.6774 28.1548 30.7614 28.1619 33.0022C28.1603 33.3497 28.1583 33.6971 28.1561 34.0445C28.151 34.9819 28.1508 35.9193 28.1517 36.8567C28.152 37.8414 28.1485 38.826 28.1457 39.8106C28.1415 41.4636 28.1406 43.1166 28.1415 44.7696C28.1424 46.6762 28.1379 48.5826 28.1305 50.4892C28.1242 52.131 28.121 53.7728 28.1203 55.4147C28.1198 56.3931 28.1184 57.3715 28.1142 58.3499C28.1104 59.2701 28.1104 60.1903 28.1133 61.1105C28.1139 61.606 28.1109 62.1015 28.1076 62.5969C28.1211 65.0177 28.3816 67.0124 30.0709 68.8351C31.4669 70.0928 32.8862 70.5357 34.7313 70.5468C35.1663 70.5503 35.1663 70.5503 35.6101 70.5538C36.0858 70.5556 36.0858 70.5556 36.5712 70.5575C37.0735 70.5609 37.0735 70.5609 37.5859 70.5643C38.6959 70.5715 39.8059 70.5761 40.9158 70.5805C41.2988 70.5822 41.6818 70.5838 42.0647 70.5856C43.8647 70.5935 45.6647 70.6001 47.4647 70.6053C49.5381 70.6112 51.6115 70.6214 53.6848 70.6353C55.2901 70.6457 56.8954 70.6522 58.5007 70.6557C59.4582 70.6579 60.4156 70.6618 61.373 70.6699C62.275 70.6774 63.1769 70.6799 64.0789 70.6788C64.564 70.6794 65.0492 70.6851 65.5343 70.691C67.6976 70.6816 69.5596 70.3868 71.281 68.9951C71.4367 68.8072 71.5924 68.6192 71.7529 68.4255C71.9944 68.1455 71.9944 68.1455 72.2407 67.8599C73.0191 66.6818 73.2264 65.5415 73.2332 64.1459C73.2359 63.8389 73.2386 63.5318 73.2414 63.2155C73.2417 62.8821 73.242 62.5487 73.2424 62.2052C73.2445 61.8477 73.2468 61.4903 73.2494 61.1329C73.2555 60.1648 73.2583 59.1967 73.2603 58.2285C73.2617 57.6228 73.2638 57.0171 73.2661 56.4114C73.2744 54.2958 73.28 52.1803 73.2832 50.0647C73.2862 48.0967 73.2948 46.1287 73.3062 44.1606C73.3157 42.4677 73.3213 40.7748 73.3238 39.0818C73.3254 38.0721 73.3285 37.0625 73.3356 36.0529C73.3422 35.1026 73.3438 34.1524 73.3417 33.2021C73.3417 32.6901 73.3468 32.1781 73.3521 31.6662C73.3407 29.4904 73.0752 27.8059 71.6581 26.1075C71.377 25.8688 71.377 25.8688 71.0902 25.6252C70.8111 25.3795 70.8111 25.3795 70.5263 25.1289C69.3754 24.3472 68.2458 24.1316 66.8734 24.1229C66.5784 24.1198 66.2834 24.1168 65.9795 24.1136C65.6594 24.1129 65.3393 24.1122 65.0095 24.1115C64.6661 24.1089 64.3228 24.1062 63.9794 24.1033C63.0495 24.0961 62.1196 24.0923 61.1896 24.0894C60.6076 24.0875 60.0256 24.085 59.4435 24.0822C57.4101 24.0725 55.3767 24.0657 53.3433 24.0614C51.4527 24.0573 49.5622 24.0465 47.6716 24.0326C46.0446 24.021 44.4177 24.0143 42.7906 24.0114C41.8206 24.0096 40.8507 24.0057 39.8807 23.9968C38.9673 23.9885 38.0542 23.9865 37.1409 23.989C36.6496 23.9889 36.1584 23.9825 35.6672 23.9758C33.1189 23.9929 30.936 24.6087 29.3364 26.714ZM4.80383 45.7529C4.15027 46.3484 4.15027 46.3484 4.06692 47.2728C4.15155 48.1918 4.15155 48.1918 4.76678 48.8111C5.48034 49.2611 5.48034 49.2611 6.29875 49.1819C7.22487 48.897 7.22487 48.897 7.8011 48.1757C7.97289 47.2902 7.97289 47.2902 7.8041 46.3824C7.26193 45.7278 7.26193 45.7278 6.52866 45.3555C5.52048 45.2695 5.52048 45.2695 4.80383 45.7529ZM6.48661 70.4618C6.15396 71.1483 6.21081 71.4202 6.41991 72.1589C6.71448 72.8405 6.71448 72.8405 7.50362 73.2815C8.42693 73.4013 8.8665 73.4001 9.64355 72.8688C10.1911 72.0691 10.2351 71.6768 10.0622 70.7239C9.52057 69.965 9.52057 69.965 8.78721 69.4409C7.58469 69.4389 7.32852 69.6429 6.48661 70.4618ZM97.931 70.6149C97.5983 71.3015 97.6552 71.5733 97.8643 72.312C98.1588 72.9936 98.1588 72.9936 98.948 73.4347C99.8713 73.5545 100.311 73.5533 101.088 73.022C101.635 72.2223 101.679 71.83 101.507 70.8771C100.965 70.1181 100.965 70.1181 100.232 69.594C99.0291 69.592 98.7729 69.7961 97.931 70.6149ZM43.2618 74.6223C43.2574 77.2431 43.2531 79.8639 43.2485 82.5641C48.1375 82.5723 53.0264 82.5805 58.0635 82.5889C58.0679 79.9681 58.0723 77.3474 58.0768 74.6472C53.1879 74.639 48.2989 74.6308 43.2618 74.6223ZM31.7473 86.6438C32.244 88.1469 32.8508 89.5131 33.5281 90.938C33.6429 91.1835 33.7578 91.4291 33.8761 91.6821C33.987 91.9164 34.0979 92.1507 34.2121 92.3922C34.3129 92.6053 34.4136 92.8183 34.5174 93.0379C34.7876 93.6015 34.7876 93.6015 35.3109 94.0792C35.9004 94.2359 35.9004 94.2359 36.588 94.0814C37.1838 93.6524 37.6978 93.2329 38.2346 92.7391C38.5509 92.4577 38.8674 92.1764 39.1839 91.8951C39.4267 91.6768 39.4267 91.6768 39.6743 91.454C40.6158 90.6152 41.5836 89.807 42.5462 88.9929C42.6854 88.8741 42.8246 88.7554 42.968 88.6331C43.0885 88.5308 43.2091 88.4284 43.3332 88.323C43.9188 87.7922 44.4706 87.2249 45.0297 86.6661C40.6465 86.6587 36.2633 86.6514 31.7473 86.6438ZM56.2687 86.6849C57.3164 87.7428 57.3164 87.7428 58.4065 88.742C58.5608 88.8767 58.7151 89.0115 58.874 89.1503C59.0347 89.2895 59.1954 89.4288 59.3609 89.5722C59.528 89.7174 59.6951 89.8625 59.8673 90.0121C62.1411 92.1459 62.1411 92.1459 64.6859 93.8722C64.7285 93.7251 64.7712 93.5781 64.8152 93.4265C65.0114 92.7531 65.2099 92.0804 65.4084 91.4076C65.4755 91.1763 65.5425 90.9449 65.6116 90.7065C65.9781 89.4707 66.3939 88.3601 66.9959 87.2153C66.9962 87.0462 66.9965 86.8771 66.9968 86.7029C63.4565 86.697 59.9162 86.691 56.2687 86.6849ZM70.7874 88.707C69.1897 90.6043 68.8443 93.6465 68.2444 96.0118C68.1462 96.3946 68.0478 96.7773 67.9494 97.1601C67.6871 98.1812 67.4265 99.2027 67.1663 100.224C66.8958 101.285 66.6238 102.346 66.3519 103.407C65.9121 105.123 65.4733 106.84 65.0351 108.557C64.4962 110.668 63.9547 112.778 63.4119 114.888C63.1182 116.03 62.8252 117.172 62.5321 118.314C62.3754 118.924 62.2186 119.534 62.0617 120.144C61.8465 120.981 61.632 121.818 61.4178 122.656C61.323 123.024 61.323 123.024 61.2262 123.399C61.1698 123.621 61.1133 123.842 61.0551 124.07C61.0059 124.262 60.9567 124.454 60.906 124.652C60.7837 125.124 60.7837 125.124 60.8012 125.633C67.6554 125.656 74.5097 125.677 81.3639 125.694C84.5465 125.702 87.7291 125.711 90.9117 125.722C93.6858 125.732 96.46 125.74 99.2342 125.745C100.703 125.749 102.172 125.753 103.64 125.759C105.023 125.765 106.406 125.768 107.789 125.77C108.296 125.771 108.803 125.772 109.31 125.775C110.004 125.779 110.698 125.779 111.392 125.779C111.591 125.781 111.79 125.783 111.995 125.785C113.751 125.778 115.658 125.641 117.078 124.51C117.314 124.33 117.314 124.33 117.554 124.147C118.649 123.05 119.188 121.893 119.565 120.405C119.609 120.237 119.652 120.07 119.697 119.897C119.839 119.344 119.977 118.79 120.115 118.236C120.215 117.843 120.315 117.45 120.416 117.057C120.684 116.009 120.948 114.96 121.212 113.91C121.484 112.828 121.759 111.747 122.034 110.665C122.362 109.376 122.69 108.086 123.016 106.795C123.625 104.387 124.244 101.982 124.88 99.5801C125.015 99.0707 125.149 98.5613 125.283 98.0519C125.463 97.3677 125.644 96.6838 125.829 96.0007C126.956 92.3633 126.956 92.3633 126.349 88.7557C125.45 87.7551 124.527 87.0351 123.192 86.797C122.539 86.7709 121.894 86.7581 121.242 86.7577C121.044 86.7567 120.847 86.7556 120.644 86.7544C119.981 86.7511 119.319 86.7496 118.657 86.7481C118.183 86.7461 117.708 86.7441 117.233 86.7419C115.944 86.7364 114.654 86.7325 113.364 86.7292C112.558 86.7271 111.752 86.7247 110.945 86.7222C108.422 86.7145 105.9 86.7078 103.377 86.7026C100.466 86.6966 97.5548 86.6872 94.6439 86.6749C92.393 86.6656 90.1422 86.6593 87.8913 86.6551C86.5474 86.6526 85.2035 86.6489 83.8596 86.642C82.5948 86.6357 81.3299 86.633 80.0651 86.6332C79.6018 86.6326 79.1386 86.6307 78.6753 86.6274C74.3869 86.5646 74.3869 86.5646 70.7874 88.707ZM33.4778 120.976C33.063 121.804 33.0734 122.641 33.2181 123.537C33.9977 124.784 34.6264 125.23 36.0244 125.591C36.7171 125.637 37.3822 125.659 38.0741 125.653C38.3734 125.654 38.3734 125.654 38.6787 125.654C39.3339 125.655 39.9889 125.652 40.644 125.649C41.1 125.649 41.5559 125.649 42.0119 125.649C43.2087 125.649 44.4054 125.646 45.6022 125.643C46.8248 125.639 48.0473 125.639 49.2698 125.639C51.6662 125.637 54.0625 125.632 56.4589 125.626C57.1593 123.696 57.5956 121.747 58.0013 119.736C55.0305 119.701 52.0597 119.674 49.0887 119.655C47.7092 119.646 46.3297 119.634 44.9502 119.617C43.6186 119.601 42.2871 119.591 40.9555 119.586C40.4477 119.583 39.94 119.577 39.4322 119.569C38.7204 119.559 38.009 119.556 37.2971 119.556C37.0876 119.551 36.8782 119.546 36.6624 119.541C35.1713 119.552 34.5188 119.899 33.4778 120.976Z" fill="black" fill-opacity="0.7"/>
<path d="M123.102 6.38108C127.125 9.50025 130.162 13.8003 130.968 18.9205C131.408 24.3096 130.463 29.112 127.049 33.4526C124.77 36.0728 121.476 39.3694 117.881 40.001C116.926 40.0318 116.47 39.9862 115.736 39.3579C115.289 38.495 115.192 38.0415 115.357 37.0836C116.1 36.1912 116.915 35.7416 117.946 35.2306C121.789 33.2125 124.703 30.2276 126.199 26.1018C127.279 22.2712 126.844 18.2406 124.925 14.7634C122.051 10.3014 117.852 7.7831 112.771 6.53002C107.611 5.45968 102.218 6.36174 97.7238 9.14175C96.5338 9.97572 95.4822 10.9176 94.4534 11.9423C94.3093 12.0804 94.1651 12.2186 94.0167 12.3609C91.6641 14.8242 90.4168 18.4618 90.327 21.8166C90.5003 26.0386 92.2143 29.7279 95.2708 32.6318C97.0582 34.1483 99.0545 35.1994 101.174 36.1742C101.865 36.5749 102.2 36.8758 102.584 37.5746C102.519 38.8773 102.24 39.9273 101.812 41.1599C101.974 41.0607 102.137 40.9614 102.304 40.8591C103.044 40.4086 103.786 39.9619 104.529 39.5153C104.912 39.2809 104.912 39.2809 105.303 39.0417C105.552 38.8927 105.8 38.7437 106.057 38.5902C106.398 38.3835 106.398 38.3835 106.747 38.1726C107.507 37.8053 108.131 37.6522 108.97 37.5853C109.564 37.8778 110.034 38.1426 110.501 38.6126C110.642 40.0553 110.642 40.0553 110.497 40.6621C109.613 41.6563 108.653 42.3453 107.507 42.9978C107.347 43.0912 107.187 43.1845 107.021 43.2808C106.514 43.5758 106.004 43.868 105.495 44.1603C105.152 44.3592 104.809 44.5583 104.467 44.7575C100.695 46.944 100.695 46.944 98.9928 46.7913C97.9483 46.3264 97.2837 45.7218 96.6973 44.738C96.4419 42.89 97.0849 41.3339 97.7276 39.616C97.4994 39.4759 97.2711 39.3358 97.0359 39.1915C91.7472 35.8936 87.7793 31.6743 86.3198 25.4616C85.4628 20.7838 86.2464 15.9333 88.8319 11.9059C89.3267 11.2145 89.8344 10.546 90.3699 9.88598C90.5686 9.63467 90.7672 9.38336 90.9719 9.12443C98.6006 0.0511292 113.985 -0.405974 123.102 6.38108Z" fill="#166450"/>
<path d="M46.3949 34.4064C47.8825 35.5154 48.3123 37.1261 48.9289 38.8238C49.0452 39.1356 49.1615 39.4474 49.2814 39.7686C49.5916 40.6001 49.8976 41.4331 50.2027 42.2664C50.5041 43.0875 50.8095 43.9071 51.1146 44.7268C51.5967 46.0234 52.0749 47.3213 52.5507 48.6203C52.969 49.762 53.3931 50.9013 53.8257 52.0376C54.0082 52.5172 54.1893 52.9974 54.3704 53.4775C54.5945 54.0714 54.8209 54.6644 55.0498 55.2565C55.5716 56.6478 55.9806 57.7815 55.8042 59.2722C55.5159 59.8802 55.5159 59.8802 55.0362 60.2957C54.1686 60.5779 53.6941 60.618 52.8331 60.308C51.5152 59.1563 50.9923 57.3014 50.4462 55.6766C50.4466 55.423 50.447 55.1694 50.4475 54.9081C46.9915 54.9023 43.5355 54.8965 39.9748 54.8905C39.7207 55.651 39.4665 56.4114 39.2047 57.1949C39.0335 57.661 38.8583 58.1255 38.6755 58.5871C38.5932 58.7979 38.5108 59.0088 38.426 59.2261C38.1786 59.7551 38.1786 59.7551 37.6669 60.2666C36.8853 60.409 36.1504 60.3963 35.368 60.2628C34.6984 59.7493 34.6984 59.7493 34.3485 58.9801C34.4448 57.5284 34.7799 56.2926 35.3211 54.9428C35.3943 54.7545 35.4676 54.5662 35.543 54.3721C35.7848 53.7521 36.0299 53.1333 36.275 52.5146C36.446 52.0787 36.6168 51.6427 36.7874 51.2066C37.0573 50.5168 37.3275 49.827 37.5985 49.1375C38.2921 47.3719 38.9709 45.601 39.6451 43.8279C39.9386 43.059 40.2323 42.2903 40.526 41.5215C40.7164 41.0222 40.906 40.5226 41.0949 40.0228C41.3605 39.3208 41.6289 38.62 41.898 37.9194C41.9759 37.7113 42.0538 37.5031 42.1341 37.2887C42.5645 36.1772 42.9952 35.2697 43.8406 34.4021C44.8234 34.0753 45.3908 34.1615 46.3949 34.4064ZM45.1062 41.3212C44.5942 42.6289 44.0827 43.9368 43.5717 45.245C43.3977 45.6903 43.2235 46.1356 43.0492 46.5808C42.7992 47.2193 42.5497 47.858 42.3004 48.4968C42.2218 48.6971 42.1433 48.8973 42.0623 49.1037C41.6828 49.9261 41.6828 49.9261 41.5143 50.7941C43.8744 50.7981 46.2346 50.802 48.6663 50.8061C48.4434 49.6784 48.1249 48.6723 47.7208 47.6052C47.6534 47.4249 47.5861 47.2447 47.5167 47.0589C47.3025 46.4866 47.087 45.9149 46.8715 45.3431C46.7255 44.9538 46.5797 44.5644 46.4339 44.175C46.0775 43.2235 45.7199 42.2725 45.3616 41.3217C45.2773 41.3215 45.193 41.3214 45.1062 41.3212Z" fill="#166450"/>
<path d="M100.514 100.458C102.094 101.728 103.097 103.471 103.493 105.466C103.637 107.624 103.201 109.729 101.842 111.458C100.194 113.126 98.3125 113.903 95.9909 114.003C93.9137 113.954 92.1138 113.215 90.5917 111.792C89.0128 109.952 88.5801 108.113 88.6042 105.742C88.763 104.001 89.4695 102.314 90.7283 101.089C93.7704 98.6868 97.1824 98.3154 100.514 100.458ZM94.0442 103.913C93.0947 104.924 93.0947 104.924 92.7492 106.213C92.8321 107.312 92.9093 107.874 93.605 108.764C94.7198 109.625 95.4043 109.981 96.8441 109.81C98.1279 109.106 98.9311 108.454 99.3711 107.044C99.4147 105.974 99.1559 105.366 98.6411 104.433C97.9391 103.687 97.4761 103.436 96.488 103.164C95.4179 103.144 94.9316 103.322 94.0442 103.913Z" fill="black" fill-opacity="0.7"/>
<path d="M62.9982 34.4341C63.7688 35.1532 64.0798 35.7125 64.1458 36.7475C64.1512 37.159 64.1509 37.5706 64.1462 37.9821C64.1476 38.2077 64.149 38.4332 64.1505 38.6655C64.1537 39.4094 64.1495 40.1529 64.1448 40.8968C64.1446 41.4145 64.1448 41.9323 64.1452 42.4501C64.1449 43.5347 64.1409 44.6191 64.1343 45.7036C64.1261 47.0932 64.1271 48.4826 64.1309 49.8722C64.1328 50.9412 64.1299 52.0102 64.1254 53.0792C64.1239 53.5915 64.1239 54.1039 64.1254 54.6162C64.1268 55.3325 64.1216 56.0485 64.1147 56.7648C64.1165 56.9762 64.1182 57.1875 64.1199 57.4053C64.1034 58.4135 64.0477 58.9182 63.5052 59.7949C62.7975 60.4559 62.3847 60.5642 61.4219 60.5625C60.2567 60.0148 60.2567 60.0148 59.8914 59.2791C59.8648 58.5249 59.8537 57.7767 59.854 57.0224C59.8532 56.7887 59.8523 56.555 59.8514 56.3142C59.8489 55.5388 59.8485 54.7635 59.8484 53.9881C59.8478 53.4508 59.8473 52.9134 59.8467 52.3761C59.8459 51.2487 59.8463 50.1212 59.8473 48.9938C59.8483 47.547 59.8446 46.1003 59.8397 44.6535C59.8368 43.5434 59.8374 42.4334 59.8388 41.3233C59.839 40.7898 59.8378 40.2563 59.8353 39.7228C59.8322 38.9775 59.834 38.2324 59.8369 37.4871C59.8349 37.2655 59.8329 37.0439 59.8309 36.8156C59.8439 35.3081 59.8439 35.3081 60.2736 34.7672C61.1847 34.0462 61.931 34.1264 62.9982 34.4341Z" fill="#166450"/>
<path d="M101.081 20.1516C101.732 20.7218 101.829 21.0772 101.972 21.9303C101.796 23 101.426 23.3568 100.564 23.9935C99.7971 24.1523 99.7971 24.1523 99.0311 23.9909C98.1714 23.3514 97.8021 22.9934 97.6297 21.9231C97.7709 21.0993 97.9401 20.7336 98.5267 20.1473C99.4965 19.8248 100.091 19.9194 101.081 20.1516Z" fill="#166450"/>
<path d="M111.026 20.4403C111.474 21.2615 111.453 22.0894 111.293 22.9866C110.893 23.6264 110.893 23.6264 110.27 24.0097C109.252 24.1538 108.723 24.1791 107.876 23.5733C107.409 22.9042 107.247 22.5139 107.209 21.6988C107.4 20.9548 107.556 20.5538 108.153 20.0672C109.167 19.7942 110.107 19.9329 111.026 20.4403Z" fill="#166450"/>
<path d="M120.494 20.1839C120.989 20.457 120.989 20.457 121.259 20.9538C121.449 22.6942 121.449 22.6942 120.855 23.6431C119.99 24.1755 119.442 24.1679 118.444 24.0233C117.822 23.638 117.822 23.638 117.424 22.9969C117.27 22.277 117.259 21.6653 117.428 20.9474C118.358 19.7921 119.114 19.797 120.494 20.1839Z" fill="#166450"/>
</g>
<defs>
<clipPath id="clip0_2_501">
<rect width="130.46" height="130.846" fill="white" transform="translate(0.219288) scale(1.00246) rotate(0.095959)"/>
</clipPath>
</defs>
</svg>
