<svg width="22" height="20" viewBox="0 0 22 20" fill="none" xmlns="http://www.w3.org/2000/svg">
<g clip-path="url(#clip0_2_327)">
<path d="M16.4999 15.7143C16.1149 15.7143 15.8124 15.4 15.8124 15C15.8124 14.6 16.1149 14.2857 16.4999 14.2857C18.7687 14.2857 20.6249 12.3572 20.6249 10C20.6249 7.64287 18.7687 5.7143 16.4999 5.7143H15.0562C14.8087 5.7143 14.5887 5.58573 14.4649 5.35716C13.5849 3.78573 12.0449 2.85716 10.3262 2.85716C7.67242 2.85716 5.51367 5.10002 5.51367 7.85716C5.51367 8.25716 5.21117 8.57145 4.82617 8.57145H4.13867C2.62617 8.57145 1.38867 9.85716 1.38867 11.4286C1.38867 13 2.62617 14.2857 4.13867 14.2857C4.52367 14.2857 4.82617 14.6 4.82617 15C4.82617 15.4 4.52367 15.7143 4.13867 15.7143C1.86992 15.7143 0.0136719 13.7857 0.0136719 11.4286C0.0136719 9.07145 1.86992 7.14287 4.13867 7.14287H4.17992C4.52367 3.92859 7.14992 1.42859 10.3262 1.42859C12.3749 1.42859 14.2999 2.5143 15.4412 4.28573H16.5137C19.5524 4.28573 22.0137 6.84287 22.0137 10C22.0137 13.1572 19.5524 15.7143 16.5137 15.7143H16.4999Z" fill="black" fill-opacity="0.6"/>
<path d="M10.3125 18.5714C10.2223 18.5726 10.1329 18.5541 10.0501 18.5172C9.96717 18.4803 9.89264 18.4258 9.83125 18.3571L6.39375 14.7857C6.11875 14.5 6.11875 14.0571 6.39375 13.7714C6.66875 13.4857 7.095 13.4857 7.37 13.7714L10.3263 16.8428L13.2825 13.7714C13.5575 13.4857 13.9837 13.4857 14.2587 13.7714C14.5337 14.0571 14.5337 14.5 14.2587 14.7857L10.8212 18.3571C10.6837 18.5 10.505 18.5714 10.34 18.5714H10.3125Z" fill="black" fill-opacity="0.6"/>
<path d="M10.3125 18.2143C9.9275 18.2143 9.625 17.9 9.625 17.5V8.92858C9.625 8.52858 9.9275 8.21429 10.3125 8.21429C10.6975 8.21429 11 8.52858 11 8.92858V17.5C11 17.9 10.6975 18.2143 10.3125 18.2143Z" fill="black" fill-opacity="0.6"/>
</g>
<defs>
<clipPath id="clip0_2_327">
<rect width="22" height="20" fill="white"/>
</clipPath>
</defs>
</svg>
