<svg width="130" height="130" viewBox="0 0 130 130" fill="none" xmlns="http://www.w3.org/2000/svg">
<g clip-path="url(#clip0_2_510)">
<path d="M43.2258 -0.102597C43.6181 -0.105211 43.6181 -0.105211 44.0183 -0.107878C44.8834 -0.112526 45.7484 -0.11154 46.6135 -0.110098C47.2174 -0.111257 47.8212 -0.112604 48.4251 -0.114131C49.6925 -0.116401 50.9599 -0.115782 52.2273 -0.113259C53.8428 -0.110356 55.4582 -0.115451 57.0736 -0.122887C58.3223 -0.127574 59.5709 -0.12747 60.8195 -0.126026C61.4145 -0.125987 62.0095 -0.127503 62.6045 -0.13067C66.6344 -0.149083 70.282 0.0297645 73.9342 1.92016C74.1015 2.00544 74.2687 2.09072 74.441 2.17859C76.2114 3.13045 77.5777 4.40292 78.9647 5.83984C79.152 6.0192 79.3392 6.19856 79.5321 6.38336C80.624 7.49221 81.3692 8.70273 82.0751 10.0769C82.1557 10.2319 82.2363 10.387 82.3193 10.5467C83.6679 13.3223 84.1985 16.1376 84.1688 19.2036C84.1692 19.5183 84.1696 19.8329 84.1699 20.157C84.1695 20.8163 84.1666 21.4756 84.1613 22.1348C84.1539 23.1366 84.1561 24.1379 84.1594 25.1397C84.1578 25.7847 84.1557 26.4297 84.153 27.0747C84.1537 27.37 84.1544 27.6652 84.1552 27.9694C84.104 32.4748 82.3893 36.1572 79.9804 39.8633C80.3687 39.9065 80.3687 39.9065 80.7649 39.9506C86.3164 40.8823 91.5937 45.5012 94.7465 49.9233C97.6027 54.0033 99.5579 58.7528 99.5761 63.7825C99.5778 63.9859 99.5794 64.1892 99.5811 64.3987C99.5861 65.0673 99.5891 65.7358 99.5916 66.4044C99.5927 66.6336 99.5937 66.8628 99.5948 67.099C99.6001 68.3108 99.6037 69.5225 99.6061 70.7343C99.6089 71.9843 99.6176 73.2341 99.6277 74.484C99.6344 75.4472 99.6365 76.4104 99.6374 77.3737C99.6386 77.8345 99.6416 78.2953 99.6463 78.7561C99.6525 79.4008 99.6522 80.0453 99.6505 80.6901C99.6553 80.9739 99.6553 80.9739 99.6603 81.2634C99.6474 82.5661 99.359 83.3088 98.5155 84.2969C97.3252 85.2711 96.1302 85.1661 94.6648 85.157C94.4025 85.1584 94.1402 85.1598 93.8699 85.1612C92.9896 85.1648 92.1094 85.163 91.2292 85.1612C90.5986 85.1626 89.968 85.1644 89.3374 85.1665C87.8016 85.1705 86.2658 85.171 84.73 85.1697C83.4817 85.1687 82.2334 85.169 80.9851 85.1704C80.8074 85.1706 80.6298 85.1708 80.4467 85.171C80.0858 85.1714 79.7248 85.1718 79.3639 85.1721C75.9791 85.1756 72.5943 85.1743 69.2096 85.1713C66.1132 85.1688 63.0169 85.1721 59.9206 85.1782C56.7409 85.1844 53.5613 85.1868 50.3816 85.1851C48.5966 85.1842 46.8116 85.1848 45.0266 85.1892C43.3484 85.1934 41.6701 85.1922 39.9918 85.1874C39.3755 85.1865 38.7591 85.1873 38.1427 85.1899C37.3021 85.1932 36.4617 85.1903 35.6211 85.1858C35.3765 85.1883 35.1318 85.1907 34.8797 85.1932C33.4138 85.1771 32.6093 85.0029 31.4843 84.043C30.6422 83.0163 30.6121 82.0429 30.62 80.7633C30.6173 80.465 30.6173 80.4651 30.6147 80.1608C30.61 79.5042 30.611 78.8478 30.6125 78.1912C30.6113 77.7309 30.6099 77.2705 30.6084 76.8102C30.6062 75.8438 30.6068 74.8773 30.6093 73.9109C30.6122 72.6842 30.6071 71.4578 30.5997 70.2312C30.595 69.2787 30.5951 68.3263 30.5965 67.3738C30.5966 66.9224 30.5951 66.471 30.5919 66.0196C30.545 58.2802 33.3614 51.5475 38.7593 46.0304C41.8377 43.0921 45.7814 40.5816 50.0194 39.8633C49.7985 39.5216 49.7985 39.5216 49.5731 39.173C48.4948 37.4656 47.5487 35.778 46.8456 33.8806C46.784 33.7147 46.7224 33.5487 46.659 33.3778C45.9979 31.5084 45.9215 29.78 45.9321 27.8206C45.9325 27.5691 45.9328 27.3177 45.9332 27.0586C45.9346 26.2593 45.9378 25.46 45.9411 24.6606C45.9423 24.1171 45.9435 23.5736 45.9445 23.0301C45.9473 21.701 45.9516 20.372 45.9569 19.043C45.7253 18.9341 45.7253 18.9341 45.489 18.8231C41.7469 16.8559 39.781 12.1956 38.5936 8.3789C38.3149 7.11274 38.2764 5.8617 38.2604 4.57031C38.253 4.37196 38.2457 4.17362 38.2381 3.96926C38.2232 2.60883 38.4279 1.8235 39.3554 0.761713C40.5492 -0.215028 41.756 -0.10943 43.2258 -0.102597ZM46.7186 7.61718C46.9493 8.10054 47.1826 8.58266 47.4169 9.06425C47.5465 9.33286 47.6761 9.60147 47.8096 9.87822C49.1298 12.2773 51.4823 13.9218 54.0819 14.7266C56.6157 15.2725 59.1283 15.302 61.7041 15.284C62.1092 15.283 62.5144 15.2823 62.9195 15.2818C63.9743 15.2799 65.0291 15.2749 66.0838 15.2692C67.1648 15.264 68.2458 15.2617 69.3267 15.2592C71.4391 15.2538 73.5515 15.2451 75.664 15.2344C75.4319 14.7487 75.1974 14.2643 74.9617 13.7804C74.8314 13.5105 74.701 13.2406 74.5667 12.9625C73.1755 10.4328 70.598 8.89841 67.9188 8.00895C65.5678 7.49754 63.1689 7.58415 60.7777 7.59239C60.3711 7.59286 59.9645 7.59322 59.5579 7.59347C58.4948 7.59444 57.4316 7.59693 56.3685 7.59975C55.2808 7.60236 54.1931 7.60351 53.1055 7.60478C50.9765 7.6075 48.8476 7.61182 46.7186 7.61718ZM53.5741 22.8516C53.572 30.0031 53.572 30.0031 57.2756 35.7522C58.2437 36.6282 59.2579 37.2631 60.4296 37.832C60.5972 37.9181 60.7647 38.0042 60.9374 38.0929C63.2349 39.0666 66.49 38.968 68.8244 38.1811C71.9093 36.8247 74.3972 34.6249 75.6818 31.4576C76.5689 28.6956 76.4257 26.0231 76.4257 23.1055C68.8847 23.0217 61.3436 22.9379 53.5741 22.8516ZM59.414 46.4648C60.6341 47.8977 60.6341 47.8977 61.9193 49.2489C62.0862 49.415 62.2531 49.5811 62.4251 49.7522C62.594 49.919 62.7629 50.0858 62.9369 50.2576C63.1117 50.4312 63.2865 50.6048 63.4665 50.7837C63.8924 51.2067 64.3189 51.629 64.746 52.0508C65.6481 51.6669 66.2276 51.1391 66.9161 50.447C67.1305 50.2321 67.3449 50.0173 67.5657 49.7959C67.7873 49.5712 68.0089 49.3465 68.2372 49.115C68.4627 48.8893 68.6882 48.6636 68.9206 48.4311C69.9767 47.5608 69.9767 47.5608 70.5858 46.4648C66.8991 46.4648 63.2124 46.4648 59.414 46.4648ZM76.87 50.7158C76.0491 51.4015 75.2504 52.1102 74.4579 52.8284C74.3236 52.9492 74.1893 53.0701 74.0509 53.1946C70.2427 56.6605 68.3234 59.7455 68.0215 64.9397C67.8372 69.0948 68.4506 73.346 68.8085 77.4414C76.4333 77.4414 84.0581 77.4414 91.914 77.4414C91.9244 75.5614 91.9349 73.6814 91.9457 71.7444C91.9503 71.1607 91.9549 70.5769 91.9597 69.9755C91.9919 63.1339 91.1435 57.2476 86.2804 52.0984C82.7472 48.7298 80.7965 47.5166 76.87 50.7158ZM43.9257 52.0508C39.5349 56.7246 38.2812 62.1234 38.3149 68.4158C38.3152 68.6473 38.3155 68.8789 38.3157 69.1174C38.317 69.9666 38.3206 70.8158 38.3239 71.665C38.3291 73.5712 38.3343 75.4774 38.3397 77.4414C45.8808 77.4414 53.4218 77.4414 61.1913 77.4414C62.8075 66.4204 62.8075 66.4204 59.0285 56.368C57.9248 55.11 56.7437 53.9565 55.4943 52.8442C55.3582 52.7228 55.2221 52.6014 55.0818 52.4763C50.4849 48.4104 48.7697 47.3846 43.9257 52.0508Z" fill="black" fill-opacity="0.7"/>
<path d="M21.1568 86.702C22.3386 87.4163 23.0742 88.4688 23.8833 89.5654C24.032 89.7618 24.1808 89.9582 24.3341 90.1605C24.6293 90.5511 24.9228 90.943 25.2144 91.3363C25.5042 91.7253 25.7975 92.1118 26.0939 92.4958C26.2334 92.6769 26.3729 92.8581 26.5166 93.0447C26.7048 93.2869 26.7048 93.2869 26.8969 93.5339C27.1682 93.9453 27.1682 93.9453 27.1682 94.4531C27.3348 94.4967 27.5015 94.5403 27.6732 94.5852C29.4632 95.0621 31.2225 95.6026 32.9763 96.1987C33.2316 96.2815 33.4869 96.3643 33.7499 96.4497C35.588 97.0761 36.4932 97.6496 37.5784 99.2773C37.983 100.834 37.7956 101.94 37.0705 103.34C36.438 104.309 35.7395 105.229 35.0353 106.148C34.9158 106.309 34.7962 106.47 34.6731 106.636C34.2776 107.148 34.2776 107.148 33.7968 107.676C32.1137 109.684 32.2671 111.688 32.3098 114.178C32.3146 114.777 32.3168 115.375 32.3148 115.974C32.3141 116.344 32.3175 116.713 32.3257 117.083C32.3312 118.38 32.0713 119.221 31.4846 120.352C30.719 121.097 29.9853 121.615 28.9455 121.875C26.6758 121.758 24.6519 121.015 22.5171 120.277C19.0388 119.14 16.5463 120.076 13.1557 121.188C11.5233 121.699 10.3099 122.047 8.63304 121.621C7.53383 121.02 6.62629 120.385 6.20041 119.168C6.05159 118.338 6.0947 117.522 6.12076 116.683C6.30243 110.995 6.30243 110.995 3.57872 106.182C3.44387 106.045 3.30902 105.907 3.17009 105.765C2.62774 105.198 2.18986 104.572 1.74583 103.927C1.61164 103.733 1.47745 103.539 1.33919 103.339C0.575677 102.142 0.394155 101.15 0.628051 99.7732C0.960409 98.5423 1.51923 97.905 2.60673 97.2689C3.54706 96.8148 4.49828 96.5208 5.50186 96.2354C9.44787 95.0988 12.0387 94.0908 14.1758 90.3824C14.6033 89.6635 15.1028 89.0394 15.6313 88.3911C15.8518 88.1093 15.8518 88.1093 16.0767 87.8218C17.4814 86.2509 19.2323 85.8495 21.1568 86.702ZM19.0432 96.9922C18.7252 97.4214 18.4076 97.851 18.0923 98.2823C16.606 100.28 15.4011 101.378 12.9494 102.07C12.5461 102.22 12.1439 102.373 11.7434 102.531C11.4711 102.63 11.1988 102.73 10.9182 102.832C11.0347 103.01 11.1512 103.188 11.2713 103.372C11.4271 103.612 11.5829 103.853 11.7434 104.102C11.8966 104.337 12.0497 104.573 12.2076 104.816C12.3686 105.083 12.5296 105.35 12.6955 105.625C12.7878 105.777 12.88 105.928 12.975 106.084C13.7397 107.45 13.8754 108.646 13.9016 110.195C13.9091 110.416 13.9167 110.637 13.9244 110.865C13.9422 111.403 13.9542 111.942 13.9651 112.48C14.2289 112.407 14.4927 112.334 14.7645 112.258C17.8938 111.413 20.0468 111.192 23.185 112.258C23.8283 112.507 23.8283 112.507 24.3752 112.48C24.3788 112.162 24.3824 111.843 24.3861 111.514C24.4424 109.117 24.5049 107.153 25.8987 105.117C26.0381 104.9 26.1775 104.683 26.3212 104.459C26.679 103.909 27.0451 103.368 27.4221 102.832C27.1069 102.718 26.7917 102.605 26.467 102.488C26.05 102.333 25.6331 102.178 25.2163 102.023C25.0089 101.949 24.8016 101.874 24.588 101.798C22.6456 101.067 21.6601 99.9185 20.3762 98.3093C20.0222 97.8657 19.6641 97.4251 19.2971 96.9922C19.2133 96.9922 19.1295 96.9922 19.0432 96.9922Z" fill="#FFB901"/>
<path d="M113.496 87.0897C114.038 87.6323 114.038 87.6323 114.544 88.2799C114.831 88.6462 114.831 88.6462 115.124 89.0198C115.343 89.3073 115.562 89.5949 115.781 89.8827C115.914 90.0541 116.046 90.2255 116.182 90.4022C116.606 90.9522 117.027 91.504 117.448 92.0568C117.584 92.2352 117.72 92.4136 117.861 92.5975C117.987 92.765 118.113 92.9325 118.242 93.1051C118.355 93.2549 118.468 93.4046 118.585 93.5589C118.828 93.9452 118.828 93.9452 118.828 94.453C118.995 94.4966 119.162 94.5402 119.333 94.585C121.123 95.062 122.883 95.6025 124.636 96.1986C124.892 96.2814 125.147 96.3642 125.41 96.4495C127.248 97.076 128.153 97.6495 129.239 99.2772C129.643 100.834 129.456 101.94 128.731 103.34C128.098 104.309 127.4 105.229 126.695 106.148C126.576 106.309 126.456 106.47 126.333 106.636C125.938 107.148 125.938 107.148 125.457 107.676C123.774 109.684 123.927 111.688 123.97 114.178C123.975 114.777 123.977 115.375 123.975 115.974C123.974 116.344 123.978 116.713 123.986 117.083C123.991 118.379 123.73 119.22 123.145 120.351C122.304 121.193 121.514 121.624 120.352 121.875C118.195 121.748 116.219 120.975 114.19 120.277C110.738 119.153 108.327 120.044 104.98 121.188C103.371 121.712 102.206 122.038 100.547 121.621C99.4479 121.02 98.5404 120.385 98.1145 119.168C97.9656 118.337 98.0088 117.522 98.0348 116.683C98.2165 110.995 98.2165 110.995 95.4928 106.182C95.3579 106.045 95.2231 105.907 95.0842 105.765C94.5418 105.198 94.1039 104.572 93.6599 103.927C93.5257 103.733 93.3915 103.539 93.2532 103.339C92.4897 102.142 92.3082 101.15 92.5421 99.7731C92.7708 98.9263 93.1108 98.4091 93.6916 97.7538C95.4483 96.7512 97.329 96.1581 99.2458 95.5321C99.7162 95.3755 99.7162 95.3755 100.196 95.2157C102.507 94.453 102.507 94.453 103.086 94.453C103.154 94.308 103.222 94.1629 103.292 94.0134C103.607 93.4123 103.965 92.8919 104.368 92.3454C104.519 92.139 104.671 91.9327 104.828 91.72C104.986 91.5065 105.145 91.2929 105.308 91.0729C105.462 90.8623 105.617 90.6516 105.776 90.4346C109.841 84.9318 109.841 84.9318 113.496 87.0897ZM110.703 97.246C110.404 97.6422 110.107 98.0401 109.82 98.4458C108.42 100.412 107.227 101.382 104.864 102.07C104.46 102.221 104.058 102.374 103.657 102.53C103.385 102.63 103.113 102.729 102.832 102.832C102.949 103.01 103.065 103.188 103.185 103.371C103.341 103.612 103.497 103.853 103.657 104.101C103.811 104.337 103.964 104.573 104.122 104.816C104.283 105.083 104.444 105.35 104.61 105.625C104.702 105.776 104.794 105.928 104.889 106.084C105.654 107.45 105.789 108.646 105.816 110.195C105.823 110.416 105.831 110.637 105.838 110.865C105.856 111.403 105.868 111.942 105.879 112.48C106.069 112.428 106.259 112.376 106.454 112.323C106.704 112.254 106.955 112.186 107.212 112.115C107.46 112.048 107.707 111.98 107.962 111.91C108.196 111.847 108.431 111.784 108.672 111.719C108.934 111.646 108.934 111.646 109.201 111.572C111.197 111.133 112.949 111.614 114.845 112.258C115.488 112.507 115.488 112.507 116.035 112.48C116.039 112.162 116.043 111.843 116.046 111.514C116.103 109.117 116.165 107.152 117.559 105.117C117.698 104.9 117.838 104.682 117.981 104.459C118.339 103.909 118.705 103.368 119.082 102.832C118.767 102.718 118.452 102.605 118.127 102.488C117.71 102.333 117.293 102.178 116.876 102.023C116.669 101.948 116.462 101.874 116.248 101.798C114.088 100.985 113.034 99.5563 111.66 97.7568C111.438 97.5039 111.438 97.5039 111.211 97.246C111.044 97.246 110.876 97.246 110.703 97.246Z" fill="#FFB901"/>
<path d="M66.793 94.9609C68.5794 96.1772 69.8176 98.1263 71.0618 99.8645C71.2091 100.067 71.3564 100.269 71.5081 100.478C72.5846 101.973 72.5846 101.973 72.8709 102.832C73.419 103.06 73.419 103.06 74.0948 103.198C75.6537 103.585 77.1608 104.07 78.679 104.593C78.9343 104.678 79.1896 104.763 79.4526 104.851C82.2 105.796 82.2 105.796 83.0817 107.095C83.6599 108.564 83.5042 109.724 83.0271 111.211C82.6168 111.989 82.1183 112.673 81.583 113.369C81.1885 113.902 80.7944 114.436 80.4037 114.972C79.9803 115.527 79.9803 115.527 79.4899 116.07C77.8352 118.045 77.9786 120.102 78.0284 122.541C78.0929 127.318 78.0929 127.318 76.9334 128.984C76.0267 129.891 75.2953 130.066 74.0541 130.098C71.8469 130.071 69.9153 129.239 67.8776 128.46C65.7781 127.717 64.5241 127.651 62.4607 128.477C62.0543 128.614 61.6474 128.75 61.2398 128.884C60.95 128.984 60.95 128.984 60.6543 129.086C58.329 129.875 56.0738 130.636 53.701 129.619C52.5975 128.516 52.084 127.593 52.0027 126.037C52.0101 125.121 52.0421 124.206 52.0689 123.291C52.162 119.189 51.552 116.612 48.6958 113.506C47.3967 112.025 46.4328 110.678 46.4646 108.672C46.7725 107.208 47.2668 106.5 48.4959 105.625C49.1258 105.359 49.7328 105.128 50.3794 104.915C50.5567 104.854 50.734 104.794 50.9168 104.731C51.2891 104.605 51.6619 104.479 52.0351 104.355C52.6077 104.164 53.1789 103.97 53.7501 103.775C54.1128 103.652 54.4757 103.53 54.8386 103.407C55.0097 103.349 55.1808 103.291 55.3571 103.232C56.5611 102.832 56.5611 102.832 57.1287 102.832C57.1883 102.699 57.2478 102.566 57.3092 102.429C57.7434 101.616 58.2728 100.88 58.8108 100.134C58.9233 99.9779 59.0358 99.8215 59.1516 99.6603C63.3645 93.8414 63.3645 93.8414 66.793 94.9609ZM64.7459 105.371C64.3396 105.936 63.9542 106.505 63.5716 107.085C62.5981 108.495 61.8623 109.438 60.1756 109.941C59.9105 110.034 59.6453 110.126 59.3722 110.221C58.6274 110.477 57.8803 110.721 57.1287 110.957C57.1287 112.016 57.6831 112.648 58.2554 113.496C59.0741 114.72 59.6777 115.667 59.7481 117.165C59.7641 117.488 59.7641 117.488 59.7803 117.817C59.7903 118.041 59.8003 118.264 59.8106 118.495C59.8215 118.722 59.8325 118.948 59.8438 119.182C59.8707 119.741 59.8966 120.3 59.9217 120.859C60.2405 120.762 60.5592 120.664 60.8877 120.564C65.1206 119.322 65.1206 119.322 67.2849 120.098C67.8027 120.237 68.3211 120.375 68.8401 120.51C69.253 120.626 69.6657 120.742 70.0779 120.859C70.0815 120.541 70.0851 120.222 70.0888 119.893C70.1451 117.496 70.2076 115.531 71.6014 113.496C71.7408 113.279 71.8802 113.061 72.0239 112.837C72.3817 112.288 72.7478 111.747 73.1248 111.211C72.971 111.149 72.8171 111.088 72.6586 111.024C72.2075 110.844 71.7576 110.66 71.3088 110.474C70.609 110.187 70.609 110.187 69.95 110.036C67.8512 109.446 66.9782 107.897 65.825 106.168C65.6365 105.905 65.4479 105.642 65.2537 105.371C65.0861 105.371 64.9185 105.371 64.7459 105.371Z" fill="#FFB901"/>
</g>
<defs>
<clipPath id="clip0_2_510">
<rect width="130" height="130" fill="white"/>
</clipPath>
</defs>
</svg>
