<svg width="18" height="15" viewBox="0 0 18 15" fill="none" xmlns="http://www.w3.org/2000/svg">
<g clip-path="url(#clip0_2_636)">
<path d="M13.5 11.7858C13.185 11.7858 12.9375 11.5501 12.9375 11.2501C12.9375 10.9501 13.185 10.7144 13.5 10.7144C15.3562 10.7144 16.875 9.26796 16.875 7.5001C16.875 5.73225 15.3562 4.28582 13.5 4.28582H12.3187C12.1162 4.28582 11.9362 4.18939 11.835 4.01796C11.115 2.83939 9.85498 2.14296 8.44873 2.14296C6.27748 2.14296 4.51123 3.8251 4.51123 5.89296C4.51123 6.19296 4.26373 6.42868 3.94873 6.42868H3.38623C2.14873 6.42868 1.13623 7.39296 1.13623 8.57153C1.13623 9.7501 2.14873 10.7144 3.38623 10.7144C3.70123 10.7144 3.94873 10.9501 3.94873 11.2501C3.94873 11.5501 3.70123 11.7858 3.38623 11.7858C1.52998 11.7858 0.0112305 10.3394 0.0112305 8.57153C0.0112305 6.80368 1.52998 5.35725 3.38623 5.35725H3.41998C3.70123 2.94653 5.84998 1.07153 8.44873 1.07153C10.125 1.07153 11.7 1.88582 12.6337 3.21439H13.5112C15.9975 3.21439 18.0112 5.13225 18.0112 7.5001C18.0112 9.86796 15.9975 11.7858 13.5112 11.7858H13.5Z" fill="#727272"/>
<path d="M8.4375 13.9286C8.36373 13.9294 8.29058 13.9156 8.22277 13.8879C8.15496 13.8602 8.09398 13.8193 8.04375 13.7678L5.23125 11.0893C5.00625 10.875 5.00625 10.5428 5.23125 10.3286C5.45625 10.1143 5.805 10.1143 6.03 10.3286L8.44875 12.6321L10.8675 10.3286C11.0925 10.1143 11.4412 10.1143 11.6662 10.3286C11.8912 10.5428 11.8912 10.875 11.6662 11.0893L8.85375 13.7678C8.74125 13.875 8.595 13.9286 8.46 13.9286H8.4375Z" fill="#727272"/>
<path d="M8.4375 13.6608C8.1225 13.6608 7.875 13.4251 7.875 13.1251V6.69648C7.875 6.39648 8.1225 6.16077 8.4375 6.16077C8.7525 6.16077 9 6.39648 9 6.69648V13.1251C9 13.4251 8.7525 13.6608 8.4375 13.6608Z" fill="#727272"/>
</g>
<defs>
<clipPath id="clip0_2_636">
<rect width="18" height="15" fill="white"/>
</clipPath>
</defs>
</svg>
