<svg width="126" height="66" viewBox="0 0 126 66" fill="none" xmlns="http://www.w3.org/2000/svg">
<path d="M13.4067 0C6.05534 0 0 4.4715 0 9.9V56.1C0 61.5285 6.05534 66 13.4067 66H111.722C119.074 66 125.129 61.5285 125.129 56.1V9.9C125.129 4.4715 119.074 0 111.722 0H13.4067ZM13.4067 6.6H111.722C114.252 6.6 116.191 8.0322 116.191 9.9V56.1C116.191 57.9678 114.252 59.4 111.722 59.4H13.4067C10.8773 59.4 8.93778 57.9678 8.93778 56.1V9.9C8.93778 8.0322 10.8773 6.6 13.4067 6.6ZM40.2113 16.5C38.1332 16.5 35.761 17.3756 34.2237 18.6527C33.0349 19.712 31.7431 21.3945 32.19 23.0742C34.3216 23.259 36.6494 22.2728 37.9856 20.9924C39.4692 19.8242 40.3096 18.1797 40.2113 16.5ZM49.1578 23.1V42.9H53.3212V36.1195H59.1168C64.3677 36.1195 68.0807 33.451 68.0807 29.6098C68.0807 25.7323 64.4146 23.1 59.2128 23.1H49.1578ZM26.0889 24.8273C21.4457 24.8273 17.8756 27.8298 17.8756 32.1363C17.8756 37.7463 23.2134 42.9 26.5428 42.9C28.5538 42.9 29.2906 41.901 31.963 41.901C34.4254 41.901 35.2001 42.9 37.296 42.9C41.2778 42.9 44.5638 36.9273 44.6889 36.5643C44.032 36.3201 40.2068 34.9896 40.2113 31.7754C40.2113 28.6536 43.7031 27.2522 43.8684 27.1928C41.9379 25.0709 38.8984 24.8273 37.7499 24.8273C35.082 24.8273 32.7479 25.8908 31.4742 25.8908C30.1604 25.8908 28.225 24.8273 26.0889 24.8273ZM53.3212 25.6975H58.1217C61.7371 25.6975 63.8213 27.1216 63.8213 29.6098C63.8213 32.098 61.7371 33.5607 58.1217 33.5607H53.3212V25.6975ZM77.8913 28.1531C73.485 28.1531 70.2127 30.0203 70.1144 32.5811H73.8763C74.1757 31.3733 75.7041 30.5701 77.7866 30.5701C80.3607 30.5701 81.758 31.4476 81.758 33.058V34.1537L76.5559 34.4115C71.7518 34.6326 69.1194 36.0958 69.1194 38.6203C69.1194 41.1811 71.7958 42.9 75.6569 42.9C78.2801 42.9 80.7157 41.9112 81.8016 40.3734H81.8976V42.7518H85.7643V32.8775C85.7643 30.023 82.6462 28.1531 77.8913 28.1531ZM87.475 28.34L94.51 42.7904L94.1609 43.667C93.5174 45.1322 92.4756 45.7166 90.6434 45.7166C90.2993 45.7166 89.6585 45.6779 89.4127 45.6779V48.0562C89.6629 48.0925 90.6931 48.1271 90.9925 48.1271C95.0547 48.1271 96.9886 46.9573 98.6734 43.5187L105.953 28.34H101.737L96.8405 40.0447H96.7357L91.8391 28.34H87.475ZM81.758 36.2355V37.3377H81.7492C81.7492 39.2022 79.6202 40.5152 76.8003 40.5152C74.5703 40.5152 73.1868 39.7508 73.1868 38.543C73.1868 37.2989 74.5217 36.5636 77.1494 36.4547L81.758 36.2355Z" fill="black"/>
</svg>
