<svg width="401" height="348" viewBox="0 0 401 348" fill="none" xmlns="http://www.w3.org/2000/svg">
<mask id="mask0_2_2447" style="mask-type:luminance" maskUnits="userSpaceOnUse" x="0" y="0" width="384" height="342">
<path d="M0 0H383.487V341.54H0V0Z" fill="white"/>
</mask>
<g mask="url(#mask0_2_2447)">
<mask id="mask1_2_2447" style="mask-type:luminance" maskUnits="userSpaceOnUse" x="-13" y="-23" width="407" height="380">
<path d="M9.90283 -22.0936L393.626 2.39236L370.95 356.145L-12.7732 331.659L9.90283 -22.0936Z" fill="white"/>
</mask>
<g mask="url(#mask1_2_2447)">
<mask id="mask2_2_2447" style="mask-type:luminance" maskUnits="userSpaceOnUse" x="-13" y="-23" width="407" height="380">
<path d="M9.90283 -22.0936L393.626 2.39236L370.95 356.145L-12.7732 331.659L9.90283 -22.0936Z" fill="white"/>
</mask>
<g mask="url(#mask2_2_2447)">
<path d="M321.571 310.473C346.534 301.094 366.159 274.452 360.494 248.496C358.594 239.98 354.346 232.196 351.481 223.955C346.223 208.587 346.092 191.514 351.285 176.142C360.363 148.892 385.342 125.499 381.943 96.9809C380.455 84.2263 373.182 72.7908 364.993 62.86C328.232 18.1262 267.462 -5.65766 210.091 2.1917C193.322 4.43867 176.437 9.52446 163.337 20.1324C140.862 38.3991 132.412 70.6993 108.112 86.6187C83.0381 103.03 47.5537 97.6479 23.9075 116.115C0.331705 134.583 -2.03593 169.371 2.30725 199.033C4.29787 212.429 7.29386 226.097 14.9196 237.281C36.1881 268.629 83.0783 269.727 111.239 295.156C120.026 303.096 126.641 313.132 135.357 321.137C151.69 336.329 175.185 343.516 197.253 340.115C219.798 336.68 231.229 316.081 250.879 311.241C260.39 308.939 272.137 314.155 281.583 315.028C295.07 316.362 308.778 315.273 321.571 310.473Z" fill="#166450" fill-opacity="0.6"/>
</g>
</g>
</g>
<mask id="mask3_2_2447" style="mask-type:luminance" maskUnits="userSpaceOnUse" x="101" y="30" width="29" height="29">
<path d="M101.713 30.6849H129.32V58.2354H101.713V30.6849Z" fill="white"/>
</mask>
<g mask="url(#mask3_2_2447)">
<mask id="mask4_2_2447" style="mask-type:luminance" maskUnits="userSpaceOnUse" x="101" y="30" width="29" height="29">
<path d="M115.516 30.6849C107.891 30.6849 101.713 36.8541 101.713 44.4577C101.713 52.0663 107.891 58.2354 115.516 58.2354C123.142 58.2354 129.32 52.0663 129.32 44.4577C129.32 36.8541 123.142 30.6849 115.516 30.6849Z" fill="white"/>
</mask>
<g mask="url(#mask4_2_2447)">
<path d="M101.713 30.6849H129.32V58.2354H101.713V30.6849Z" fill="#166450" fill-opacity="0.6"/>
</g>
</g>
<mask id="mask5_2_2447" style="mask-type:luminance" maskUnits="userSpaceOnUse" x="247" y="328" width="20" height="20">
<path d="M247.295 328.996H266.336V348H247.295V328.996Z" fill="white"/>
</mask>
<g mask="url(#mask5_2_2447)">
<mask id="mask6_2_2447" style="mask-type:luminance" maskUnits="userSpaceOnUse" x="247" y="328" width="20" height="20">
<path d="M256.816 328.996C251.558 328.996 247.295 333.249 247.295 338.5C247.295 343.747 251.558 348 256.816 348C262.074 348 266.336 343.747 266.336 338.5C266.336 333.249 262.074 328.996 256.816 328.996Z" fill="white"/>
</mask>
<g mask="url(#mask6_2_2447)">
<path d="M247.295 328.996H266.336V348H247.295V328.996Z" fill="#166450" fill-opacity="0.6"/>
</g>
</g>
<mask id="mask7_2_2447" style="mask-type:luminance" maskUnits="userSpaceOnUse" x="381" y="201" width="20" height="20">
<path d="M381.953 201.004H401V220.008H381.953V201.004Z" fill="white"/>
</mask>
<g mask="url(#mask7_2_2447)">
<mask id="mask8_2_2447" style="mask-type:luminance" maskUnits="userSpaceOnUse" x="381" y="201" width="20" height="20">
<path d="M391.479 201.004C386.221 201.004 381.953 205.257 381.953 210.504C381.953 215.755 386.221 220.008 391.479 220.008C396.737 220.008 401 215.755 401 210.504C401 205.257 396.737 201.004 391.479 201.004Z" fill="white"/>
</mask>
<g mask="url(#mask8_2_2447)">
<path d="M381.953 201.004H401V220.008H381.953V201.004Z" fill="#166450" fill-opacity="0.6"/>
</g>
</g>
<mask id="mask9_2_2447" style="mask-type:luminance" maskUnits="userSpaceOnUse" x="372" y="220" width="10" height="10">
<path d="M372.433 220.008H381.953V229.508H372.433V220.008Z" fill="white"/>
</mask>
<g mask="url(#mask9_2_2447)">
<mask id="mask10_2_2447" style="mask-type:luminance" maskUnits="userSpaceOnUse" x="372" y="220" width="10" height="10">
<path d="M377.193 220.008C374.564 220.008 372.433 222.135 372.433 224.758C372.433 227.381 374.564 229.508 377.193 229.508C379.822 229.508 381.953 227.381 381.953 224.758C381.953 222.135 379.822 220.008 377.193 220.008Z" fill="white"/>
</mask>
<g mask="url(#mask10_2_2447)">
<path d="M372.433 220.008H381.953V229.508H372.433V220.008Z" fill="#166450" fill-opacity="0.6"/>
</g>
</g>
<mask id="mask11_2_2447" style="mask-type:luminance" maskUnits="userSpaceOnUse" x="171" y="36" width="190" height="53">
<path d="M171.535 36.5983H360.323V88.4241H171.535V36.5983Z" fill="white"/>
</mask>
<g mask="url(#mask11_2_2447)">
<path d="M327.543 88.4443C307.657 88.4443 279.587 87.2556 260.214 87.2556C245.57 87.2556 211.011 88.7553 197.067 85.4049C195.905 85.129 194.528 77.3198 194.066 69.1444C185.585 68.1965 173.983 68.9087 171.817 70.4234C173.395 65.3627 184.615 58.1904 193.543 53.1297C194.116 45.0647 196.292 37.1652 200.027 36.9646C212.911 36.2674 335.681 38.1833 345.886 38.3288C350.857 38.394 357.92 39.7683 359.795 48.9869C360.695 53.4106 360.851 82.3956 356.321 85.2444C352.401 87.7121 341.151 88.4443 327.543 88.4443Z" fill="#0B3322"/>
</g>
<path d="M325.713 86.3034C305.877 86.3034 279.396 84.7435 260.073 84.7435C245.465 84.7435 212.514 86.0275 198.605 82.6871C197.449 82.4063 196.227 75.5851 195.77 67.4298C187.279 66.9082 177.246 66.6674 175.084 68.1821C176.627 65.4236 186.897 59.1742 195.8 54.1285C196.373 46.0785 198.117 39.4229 201.842 39.2223C214.696 38.5251 333.54 40.4511 343.719 40.5915C348.681 40.6617 355.261 42.031 357.131 51.2245C358.026 55.6382 358.463 80.2747 353.949 83.1135C350.038 85.5761 339.286 86.3034 325.713 86.3034Z" fill="#F1F1E5"/>
<path d="M175.084 68.1821C176.627 65.4236 186.897 59.1742 195.8 54.1285C196.373 46.0785 198.117 39.4229 201.842 39.2223C214.696 38.5251 333.54 40.4511 343.719 40.5915C348.681 40.6617 355.261 42.031 357.126 51.2245C357.578 53.4514 357.915 60.8293 357.558 67.9514C357.106 58.8732 352.27 48.6666 347.68 46.4998C342.94 44.2629 309.572 44.8648 309.572 44.8648C309.572 44.8648 206.17 42.2216 203.124 44.1676C200.078 46.1136 199.228 56.0344 199.228 56.0344C199.228 56.0344 194.719 58.5873 190.451 59.9265C187.727 60.7792 180.704 65.0073 175.517 67.9464C175.351 68.0166 175.205 68.0969 175.084 68.1821Z" fill="#E8E8E8"/>
<mask id="mask12_2_2447" style="mask-type:luminance" maskUnits="userSpaceOnUse" x="265" y="45" width="16" height="15">
<path d="M265.095 45.5464H280.537V59.6903H265.095V45.5464Z" fill="white"/>
</mask>
<g mask="url(#mask12_2_2447)">
<path d="M272.499 45.5414L274.259 50.9833H279.909L275.324 54.3437L277.084 59.7856L272.499 56.4201L267.92 59.7856L269.674 54.3437L265.095 50.9833H270.745L272.499 45.5414Z" fill="#FFB901"/>
</g>
<mask id="mask13_2_2447" style="mask-type:luminance" maskUnits="userSpaceOnUse" x="281" y="45" width="17" height="15">
<path d="M281.824 45.5464H297.267V59.6903H281.824V45.5464Z" fill="white"/>
</mask>
<g mask="url(#mask13_2_2447)">
<path d="M289.797 45.5414L291.531 50.9833H297.201L292.622 54.3437L294.376 59.7856L289.797 56.4201L285.217 59.7856L286.952 54.3437L282.372 50.9833H288.042L289.797 45.5414Z" fill="#FFB901"/>
</g>
<mask id="mask14_2_2447" style="mask-type:luminance" maskUnits="userSpaceOnUse" x="298" y="45" width="18" height="15">
<path d="M298.553 45.5464H315.283V59.6903H298.553V45.5464Z" fill="white"/>
</mask>
<g mask="url(#mask14_2_2447)">
<path d="M307.074 45.5414L308.828 50.9833H314.478L309.899 54.3437L311.653 59.7856L307.074 56.4201L302.489 59.7856L304.249 54.3437L299.664 50.9833H305.314L307.074 45.5414Z" fill="#FFB901"/>
</g>
<mask id="mask15_2_2447" style="mask-type:luminance" maskUnits="userSpaceOnUse" x="316" y="45" width="17" height="15">
<path d="M316.57 45.5464H332.012V59.6903H316.57V45.5464Z" fill="white"/>
</mask>
<g mask="url(#mask15_2_2447)">
<path d="M324.366 45.5414L326.105 50.9833H331.776L327.191 54.3437L328.951 59.7856L324.366 56.4201L319.787 59.7856L321.521 54.3437L316.942 50.9833H322.612L324.366 45.5414Z" fill="#FFB901"/>
</g>
<mask id="mask16_2_2447" style="mask-type:luminance" maskUnits="userSpaceOnUse" x="333" y="45" width="17" height="15">
<path d="M333.299 45.5464H349.254V59.6903H333.299V45.5464Z" fill="white"/>
</mask>
<g mask="url(#mask16_2_2447)">
<path d="M341.643 45.5414L343.398 50.9833H349.048L344.468 54.3437L346.223 59.7856L341.643 56.4201L337.059 59.7856L338.818 54.3437L334.234 50.9833H339.889L341.643 45.5414Z" fill="#FFB901"/>
</g>
<mask id="mask17_2_2447" style="mask-type:luminance" maskUnits="userSpaceOnUse" x="341" y="45" width="9" height="15">
<path d="M341.02 45.5464H349.254V59.6903H341.02V45.5464Z" fill="white"/>
</mask>
<g mask="url(#mask17_2_2447)">
<path d="M346.223 59.7856L344.468 54.3437L349.048 50.9833H343.398L341.643 45.5414V56.4201L346.223 59.7856Z" fill="#FFB901"/>
</g>
<path d="M291.214 64.2842H347.298" stroke="#0B3322" stroke-linecap="round"/>
<path d="M239.247 71.3514H347.298" stroke="#0B3322" stroke-linecap="round"/>
<path d="M251.281 78.4233H347.298" stroke="#0B3322" stroke-linecap="round"/>
<mask id="mask18_2_2447" style="mask-type:luminance" maskUnits="userSpaceOnUse" x="202" y="47" width="32" height="31">
<path d="M202.933 47.4921H233.054V77.5504H202.933V47.4921Z" fill="white"/>
</mask>
<g mask="url(#mask18_2_2447)">
<path d="M233.039 62.5137C233.039 70.8094 226.303 77.5353 217.988 77.5353C209.674 77.5353 202.933 70.8094 202.933 62.5137C202.933 54.2179 209.674 47.4921 217.988 47.4921C226.303 47.4921 233.039 54.2179 233.039 62.5137Z" fill="#7C9986"/>
</g>
<path d="M223.332 57.764C223.332 60.7231 220.929 63.1206 217.968 63.1206C215.002 63.1206 212.599 60.7231 212.599 57.764C212.599 54.8098 215.002 52.4124 217.968 52.4124C220.929 52.4124 223.332 54.8098 223.332 57.764Z" fill="#F1F1E5"/>
<path d="M217.968 76.8231C221.763 76.8231 225.232 75.4188 227.881 73.1016C227.062 67.745 224.639 64.0284 217.968 64.0284C211.484 64.0284 208.97 67.76 208.09 73.1367C210.735 75.4338 214.188 76.8231 217.968 76.8231Z" fill="#F1F1E5"/>
<mask id="mask19_2_2447" style="mask-type:luminance" maskUnits="userSpaceOnUse" x="0" y="264" width="196" height="55">
<path d="M0.386963 264.847H195.91V318.77H0.386963V264.847Z" fill="white"/>
</mask>
<g mask="url(#mask19_2_2447)">
<path d="M34.8409 265.168C55.4107 265.168 84.4456 266.397 104.478 266.397C119.623 266.397 155.364 264.847 169.786 268.313C170.988 268.599 172.41 276.669 172.888 285.13C181.66 286.108 193.654 285.371 195.9 283.806C194.267 289.037 182.66 296.455 173.431 301.692C172.837 310.032 170.585 318.198 166.725 318.408C153.399 319.131 26.431 317.15 15.8747 316.999C10.7322 316.929 3.42826 315.509 1.4879 305.975C0.557937 301.401 0.397079 271.423 5.08208 268.473C9.13873 265.926 20.7708 265.168 34.8409 265.168Z" fill="#0B3322"/>
</g>
<path d="M36.736 267.38C57.2505 267.38 84.6416 268.995 104.618 268.995C119.729 268.995 153.806 267.671 168.193 271.121C169.389 271.412 170.651 278.464 171.128 286.905C179.905 287.442 190.285 287.688 192.522 286.128C190.924 288.977 180.297 295.442 171.093 300.658C170.505 308.984 168.695 315.865 164.845 316.076C151.549 316.798 28.6377 314.802 18.1116 314.657C12.9842 314.586 6.18291 313.172 4.24758 303.662C3.31761 299.093 2.8652 273.619 7.53512 270.68C11.5817 268.137 22.7011 267.38 36.736 267.38Z" fill="#F1F1E5"/>
<path d="M192.522 286.128C190.924 288.977 180.297 295.442 171.093 300.658C170.505 308.984 168.695 315.865 164.845 316.076C151.554 316.798 28.6426 314.802 18.1114 314.657C12.9841 314.586 6.18278 313.172 4.24745 303.662C3.77995 301.355 3.4331 293.732 3.80509 286.364C4.26756 295.753 9.26925 306.311 14.0196 308.548C18.9208 310.86 53.4299 310.238 53.4299 310.238C53.4299 310.238 160.366 312.971 163.518 310.96C166.669 308.949 167.549 298.687 167.549 298.687C167.549 298.687 172.214 296.044 176.627 294.664C179.448 293.777 186.706 289.408 192.075 286.369C192.246 286.294 192.397 286.213 192.522 286.128Z" fill="#E8E8E8"/>
<mask id="mask20_2_2447" style="mask-type:luminance" maskUnits="userSpaceOnUse" x="63" y="271" width="20" height="18">
<path d="M63.6194 271.047H82.0176V288.521H63.6194V271.047Z" fill="white"/>
</mask>
<g mask="url(#mask20_2_2447)">
<mask id="mask21_2_2447" style="mask-type:luminance" maskUnits="userSpaceOnUse" x="63" y="271" width="19" height="18">
<path d="M72.8034 271.047L74.975 277.722H81.9924L76.3121 281.845L78.4837 288.521L72.8034 284.398L67.1281 288.521L69.2947 281.845L63.6194 277.722H70.6368L72.8034 271.047Z" fill="white"/>
</mask>
<g mask="url(#mask21_2_2447)">
<path d="M63.6194 271.047H82.0176V288.521H63.6194V271.047Z" fill="#FFB901"/>
</g>
</g>
<mask id="mask22_2_2447" style="mask-type:luminance" maskUnits="userSpaceOnUse" x="84" y="271" width="20" height="18">
<path d="M84.6467 271.047H103.05V288.521H84.6467V271.047Z" fill="white"/>
</mask>
<g mask="url(#mask22_2_2447)">
<mask id="mask23_2_2447" style="mask-type:luminance" maskUnits="userSpaceOnUse" x="84" y="271" width="20" height="18">
<path d="M93.8358 271.047L96.0023 277.722H103.02L97.3445 281.845L99.5111 288.521L93.8358 284.398L88.1555 288.521L90.327 281.845L84.6467 277.722H91.6642L93.8358 271.047Z" fill="white"/>
</mask>
<g mask="url(#mask23_2_2447)">
<path d="M84.6467 271.047H103.05V288.521H84.6467V271.047Z" fill="#FFB901"/>
</g>
</g>
<mask id="mask24_2_2447" style="mask-type:luminance" maskUnits="userSpaceOnUse" x="105" y="271" width="20" height="18">
<path d="M105.679 271.047H124.077V288.521H105.679V271.047Z" fill="white"/>
</mask>
<g mask="url(#mask24_2_2447)">
<mask id="mask25_2_2447" style="mask-type:luminance" maskUnits="userSpaceOnUse" x="105" y="271" width="20" height="18">
<path d="M114.863 271.047L117.034 277.722H124.052L118.372 281.845L120.543 288.521L114.863 284.398L109.188 288.521L111.354 281.845L105.679 277.722H112.696L114.863 271.047Z" fill="white"/>
</mask>
<g mask="url(#mask25_2_2447)">
<path d="M105.679 271.047H124.077V288.521H105.679V271.047Z" fill="#FFB901"/>
</g>
</g>
<mask id="mask26_2_2447" style="mask-type:luminance" maskUnits="userSpaceOnUse" x="126" y="271" width="20" height="18">
<path d="M126.706 271.047H145.109V288.521H126.706V271.047Z" fill="white"/>
</mask>
<g mask="url(#mask26_2_2447)">
<mask id="mask27_2_2447" style="mask-type:luminance" maskUnits="userSpaceOnUse" x="126" y="271" width="20" height="18">
<path d="M135.895 271.047L138.062 277.722H145.079L139.404 281.845L141.57 288.521L135.895 284.398L130.215 288.521L132.386 281.845L126.706 277.722H133.724L135.895 271.047Z" fill="white"/>
</mask>
<g mask="url(#mask27_2_2447)">
<path d="M126.706 271.047H145.109V288.521H126.706V271.047Z" fill="#FFB901"/>
</g>
</g>
<mask id="mask28_2_2447" style="mask-type:luminance" maskUnits="userSpaceOnUse" x="147" y="271" width="20" height="18">
<path d="M147.738 271.047H166.142V288.521H147.738V271.047Z" fill="white"/>
</mask>
<g mask="url(#mask28_2_2447)">
<mask id="mask29_2_2447" style="mask-type:luminance" maskUnits="userSpaceOnUse" x="147" y="271" width="20" height="18">
<path d="M156.922 271.047L159.094 277.722H166.111L160.431 281.845L162.603 288.521L156.922 284.398L151.247 288.521L153.414 281.845L147.738 277.722H154.756L156.922 271.047Z" fill="white"/>
</mask>
<g mask="url(#mask29_2_2447)">
<path d="M147.738 271.047H166.142V288.521H147.738V271.047Z" fill="#DCDCDC"/>
</g>
</g>
<path d="M95.2683 297.087L163.055 297.087" stroke="#0B3322" stroke-linecap="round"/>
<path d="M59.5176 305.639H163.055" stroke="#0B3322" stroke-linecap="round"/>
<mask id="mask30_2_2447" style="mask-type:luminance" maskUnits="userSpaceOnUse" x="13" y="273" width="38" height="38">
<path d="M13.688 273.794H50.0119V310.042H13.688V273.794Z" fill="white"/>
</mask>
<g mask="url(#mask30_2_2447)">
<path d="M50.1526 291.986C50.1526 302.032 41.989 310.177 31.9203 310.177C21.8516 310.177 13.688 302.032 13.688 291.986C13.688 281.94 21.8516 273.799 31.9203 273.799C41.989 273.799 50.1526 281.94 50.1526 291.986Z" fill="#7C9986"/>
</g>
<path d="M38.3947 286.238C38.3947 289.819 35.4892 292.723 31.8951 292.723C28.3059 292.723 25.4004 289.819 25.4004 286.238C25.4004 282.657 28.3059 279.753 31.8951 279.753C35.4892 279.753 38.3947 282.657 38.3947 286.238Z" fill="#F1F1E5"/>
<path d="M31.8953 309.315C36.4949 309.315 40.6973 307.614 43.9044 304.811C42.9091 298.326 39.9785 293.822 31.8953 293.822C24.0434 293.822 21.0072 298.341 19.9365 304.851C23.1386 307.629 27.3209 309.315 31.8953 309.315Z" fill="#F1F1E5"/>
<path d="M318.434 260.178H62.3626C58.8991 260.178 56.064 257.349 56.064 253.893V122.531C56.064 119.075 58.8991 116.246 62.3626 116.246H318.434C321.898 116.246 324.733 119.075 324.733 122.531V253.893C324.733 257.349 321.898 260.178 318.434 260.178Z" fill="#7C9986"/>
<path d="M316.232 110.904C316.232 160.87 316.232 257.665 316.232 257.665C316.232 257.665 292.923 252.323 252.92 251.691C221.738 251.064 188.667 259.551 188.667 259.551C188.667 259.551 170.082 252.323 131.029 251.064C91.0255 249.806 64.5693 258.608 64.5693 258.608C64.5693 258.608 64.5693 160.87 64.5693 110.904C66.7761 110.273 69.6112 109.33 72.758 108.703C72.758 106.817 72.758 104.931 72.758 103.045C85.3553 99.2734 105.518 94.2478 130.712 94.2478C156.857 94.2478 177.643 98.9624 190.24 103.045C190.24 103.045 223 94.2478 248.511 94.2478C274.656 94.2478 295.441 98.9624 308.039 103.045C308.039 104.931 308.039 106.817 308.039 108.703C311.191 109.33 313.709 110.273 316.232 110.904Z" fill="#F8F0E1"/>
<path d="M174.496 191.67C174.496 193.24 173.551 193.867 172.606 192.297L165.674 184.126C164.417 182.867 162.527 182.556 161.266 183.81L152.76 190.727C151.503 191.67 150.242 191.354 150.242 189.468V95.8173C150.242 93.9315 151.503 92.9885 153.394 93.3045L171.973 96.7602C173.551 97.0762 175.124 98.6461 175.124 100.532L174.496 191.67Z" fill="#FFB901"/>
<mask id="mask31_2_2447" style="mask-type:luminance" maskUnits="userSpaceOnUse" x="54" y="91" width="273" height="171">
<path d="M54.3198 91.4191H326.311V261.933H54.3198V91.4191Z" fill="white"/>
</mask>
<g mask="url(#mask31_2_2447)">
<path d="M318.434 114.676H317.806V110.905C317.806 110.273 317.489 109.646 316.544 109.33C314.026 108.703 311.819 108.076 309.301 107.444V103.045C309.301 102.418 308.984 101.791 308.039 101.475C289.143 95.502 268.986 92.6782 248.511 92.6782C235.286 92.6782 220.165 95.191 209.769 97.0768C198.117 99.2737 192.764 100.533 190.557 101.475C185.832 99.9056 180.795 98.6467 175.753 97.7038C175.125 96.4449 173.551 95.502 172.289 95.191L153.705 91.7353C152.449 91.4193 151.187 91.7353 150.242 92.6782C149.925 92.9892 149.613 93.3051 149.297 93.6211C143.31 92.9892 137.645 92.6782 131.658 92.6782C131.341 92.6782 131.029 92.6782 131.029 92.6782C110.872 92.6782 91.0257 95.8179 72.1299 101.475C71.4965 101.791 71.1848 102.418 71.1848 103.045V107.444C68.6664 108.076 66.4596 108.703 63.9412 109.33C63.3078 109.646 62.9961 110.273 62.9961 110.905V114.676H62.3627C57.9542 114.676 54.4907 118.132 54.4907 122.531V253.894C54.4907 258.292 57.9542 261.748 62.3627 261.748H318.434C322.843 261.748 326.311 258.292 326.311 253.894V122.531C326.311 118.132 322.843 114.676 318.434 114.676ZM317.806 116.246V114.987C318.123 115.303 318.123 115.93 317.806 116.246ZM308.984 251.692C309.301 251.381 309.617 251.065 309.617 250.438V110.589C311.191 110.905 313.081 111.532 314.654 111.848V255.463C308.356 254.21 285.991 250.438 252.92 249.806C227.725 249.495 201.264 254.836 191.819 256.722V253.267C199.691 251.381 224.89 245.723 248.828 246.039C285.363 246.666 307.411 252.008 307.411 252.008C308.039 252.008 308.672 252.008 308.984 251.692ZM313.709 258.608H199.691C211.976 256.095 233.079 252.635 253.236 252.951C285.68 253.578 307.411 257.349 313.709 258.608ZM248.511 95.8179C248.828 95.8179 249.14 95.8179 249.14 95.8179C268.669 95.8179 287.881 98.6467 306.466 104.304V248.552C300.167 247.293 279.693 243.521 249.14 242.894C225.519 242.578 200.952 247.92 192.13 249.806V104.304C192.13 104.304 192.13 104.304 192.13 103.988C197.801 102.734 226.147 95.8179 248.511 95.8179ZM151.815 95.8179C151.815 95.502 151.815 95.191 152.132 94.875C152.449 94.559 152.76 94.559 153.077 94.559L171.661 98.0198C172.606 98.3307 173.551 99.2737 173.551 100.217L172.918 190.412L166.936 183.184C165.991 181.925 164.729 181.614 163.156 181.614C162.211 181.614 160.949 181.925 160.004 182.557L151.503 189.469V95.8179H151.815ZM74.3316 104.304C92.6041 98.9627 111.5 96.1339 131.029 95.8179C137.011 95.8179 142.998 96.1339 148.98 96.4449V189.469C148.98 191.67 150.242 192.297 150.558 192.613C151.187 192.924 152.449 193.24 154.022 191.981L162.527 185.07C163.156 184.443 164.101 184.754 164.729 185.386L171.344 193.556C172.289 194.81 173.234 194.81 173.863 194.81C174.18 194.81 174.496 194.81 174.496 194.81C175.125 194.499 176.07 193.867 176.07 191.981L176.698 101.475C180.795 102.418 184.887 103.361 188.984 104.62C188.984 104.62 188.984 104.62 188.984 104.931V251.065C185.52 249.806 168.193 243.837 135.121 242.894C132.603 242.894 130.084 242.894 127.566 242.894C100.159 242.894 80.3186 248.236 74.3316 250.122V104.304ZM66.1429 112.159C67.7213 111.532 69.6114 111.216 71.1848 110.905V251.692C71.1848 252.324 71.4965 252.635 71.8132 252.951C72.1299 253.267 72.7582 253.267 73.3866 253.267C73.7033 253.267 98.5861 244.464 135.121 245.723C170.716 246.982 188.355 253.894 188.355 254.21C188.667 254.21 188.667 254.21 188.984 254.21V258.292C185.832 257.038 167.248 251.065 131.341 249.806C128.511 249.806 125.987 249.806 123.469 249.806C94.1775 249.806 72.7582 255.152 66.1429 257.038V112.159ZM180.478 258.608H69.6114C79.0568 256.095 101.421 251.692 131.029 252.635C155.279 253.267 171.661 256.406 180.478 258.608ZM57.6425 253.894V122.531C57.6425 120.018 59.8443 117.816 62.3627 117.816H62.9961V258.608C62.9961 258.608 62.9961 258.608 62.9961 258.924H62.3627C59.5276 258.608 57.6425 256.722 57.6425 253.894ZM323.16 253.894C323.16 256.406 320.953 258.608 318.434 258.608H317.489C317.806 258.292 318.123 257.981 318.123 257.665V117.816H318.751C321.27 117.816 323.476 120.018 323.476 122.531V253.894H323.16Z" fill="#0B3322"/>
</g>
<mask id="mask32_2_2447" style="mask-type:luminance" maskUnits="userSpaceOnUse" x="198" y="152" width="99" height="3">
<path d="M198.057 152.614H296.397V154.981H198.057V152.614Z" fill="white"/>
</mask>
<g mask="url(#mask32_2_2447)">
<path d="M296.543 154.505H198.057V152.79H296.543V154.505Z" fill="#0B3322"/>
</g>
<mask id="mask33_2_2447" style="mask-type:luminance" maskUnits="userSpaceOnUse" x="225" y="125" width="72" height="3">
<path d="M225.202 125.996H296.397V127.772H225.202V125.996Z" fill="white"/>
</mask>
<g mask="url(#mask33_2_2447)">
<path d="M296.543 127.712H225.287V125.996H296.543V127.712Z" fill="#0B3322"/>
</g>
<path d="M271.298 133.013H225.287V131.293H271.298V133.013Z" fill="#0B3322"/>
<path d="M288.284 133.008L274.988 133.013V131.293H288.284V133.008Z" fill="#0B3322"/>
<mask id="mask34_2_2447" style="mask-type:luminance" maskUnits="userSpaceOnUse" x="225" y="136" width="72" height="3">
<path d="M225.202 136.644H296.397V138.419H225.202V136.644Z" fill="white"/>
</mask>
<g mask="url(#mask34_2_2447)">
<path d="M296.543 138.414H225.287V136.699H296.543V138.414Z" fill="#0B3322"/>
</g>
<path d="M266.729 143.756H225.287V142.041H266.729V143.756Z" fill="#0B3322"/>
<path d="M261.269 148.521H225.287V146.811L261.269 146.806V148.521Z" fill="#0B3322"/>
<path d="M285.554 148.521H266.729V146.806H285.554V148.521Z" fill="#0B3322"/>
<mask id="mask35_2_2447" style="mask-type:luminance" maskUnits="userSpaceOnUse" x="198" y="157" width="38" height="4">
<path d="M198.057 157.93H235.497V160.498H198.057V157.93Z" fill="white"/>
</mask>
<g mask="url(#mask35_2_2447)">
<path d="M234.868 160.438L198.057 160.443V158.723H234.868V160.438Z" fill="#0B3322"/>
</g>
<path d="M288.947 160.438L240.232 160.443V158.723H288.947V160.438Z" fill="#0B3322"/>
<mask id="mask36_2_2447" style="mask-type:luminance" maskUnits="userSpaceOnUse" x="198" y="164" width="17" height="3">
<path d="M198.057 164.35H214.907V166.918H198.057V164.35Z" fill="white"/>
</mask>
<g mask="url(#mask36_2_2447)">
<path d="M214.193 166.377H198.057V164.656H214.193V166.377Z" fill="#0B3322"/>
</g>
<mask id="mask37_2_2447" style="mask-type:luminance" maskUnits="userSpaceOnUse" x="220" y="164" width="77" height="3">
<path d="M220.582 164.445H296.397V166.813H220.582V164.445Z" fill="white"/>
</mask>
<g mask="url(#mask37_2_2447)">
<path d="M296.543 166.377H221.06V164.656H296.543V166.377Z" fill="#0B3322"/>
</g>
<mask id="mask38_2_2447" style="mask-type:luminance" maskUnits="userSpaceOnUse" x="198" y="170" width="99" height="3">
<path d="M198.057 170.359H296.397V172.726H198.057V170.359Z" fill="white"/>
</mask>
<g mask="url(#mask38_2_2447)">
<path d="M296.543 172.31H198.057V170.594H296.543V172.31Z" fill="#0B3322"/>
</g>
<mask id="mask39_2_2447" style="mask-type:luminance" maskUnits="userSpaceOnUse" x="198" y="175" width="38" height="4">
<path d="M198.057 175.906H235.497V178.474H198.057V175.906Z" fill="white"/>
</mask>
<g mask="url(#mask39_2_2447)">
<path d="M234.868 178.244H198.057V176.528H234.868V178.244Z" fill="#0B3322"/>
</g>
<path d="M288.947 178.243H240.232V176.528H288.947V178.243Z" fill="#0B3322"/>
<mask id="mask40_2_2447" style="mask-type:luminance" maskUnits="userSpaceOnUse" x="198" y="182" width="17" height="3">
<path d="M198.057 182.326H214.907V184.893H198.057V182.326Z" fill="white"/>
</mask>
<g mask="url(#mask40_2_2447)">
<path d="M214.193 184.176H198.057V182.461H214.193V184.176Z" fill="#0B3322"/>
</g>
<mask id="mask41_2_2447" style="mask-type:luminance" maskUnits="userSpaceOnUse" x="220" y="182" width="77" height="3">
<path d="M220.582 182.326H296.397V184.552H220.582V182.326Z" fill="white"/>
</mask>
<g mask="url(#mask41_2_2447)">
<path d="M296.543 184.176H221.06V182.461H296.543V184.176Z" fill="#0B3322"/>
</g>
<mask id="mask42_2_2447" style="mask-type:luminance" maskUnits="userSpaceOnUse" x="198" y="187" width="17" height="5">
<path d="M198.057 187.462H214.907V191.314H198.057V187.462Z" fill="white"/>
</mask>
<g mask="url(#mask42_2_2447)">
<path d="M214.193 190.115H198.057V188.4H214.193V190.115Z" fill="#0B3322"/>
</g>
<mask id="mask43_2_2447" style="mask-type:luminance" maskUnits="userSpaceOnUse" x="220" y="188" width="77" height="3">
<path d="M220.582 188.103H296.397V190.471H220.582V188.103Z" fill="white"/>
</mask>
<g mask="url(#mask43_2_2447)">
<path d="M296.543 190.115H221.06V188.399H296.543V190.115Z" fill="#0B3322"/>
</g>
<mask id="mask44_2_2447" style="mask-type:luminance" maskUnits="userSpaceOnUse" x="198" y="194" width="99" height="3">
<path d="M198.057 194.017H296.397V196.384H198.057V194.017Z" fill="white"/>
</mask>
<g mask="url(#mask44_2_2447)">
<path d="M296.543 196.048H198.057V194.333H296.543V196.048Z" fill="#0B3322"/>
</g>
<mask id="mask45_2_2447" style="mask-type:luminance" maskUnits="userSpaceOnUse" x="198" y="199" width="38" height="4">
<path d="M198.057 199.018H235.497V202.87H198.057V199.018Z" fill="white"/>
</mask>
<g mask="url(#mask45_2_2447)">
<path d="M234.868 201.982H198.057V200.267H234.868V201.982Z" fill="#0B3322"/>
</g>
<path d="M288.947 201.982H240.232V200.267H288.947V201.982Z" fill="#0B3322"/>
<mask id="mask46_2_2447" style="mask-type:luminance" maskUnits="userSpaceOnUse" x="198" y="205" width="17" height="3">
<path d="M198.057 205.849H214.656V207.921H198.057V205.849Z" fill="white"/>
</mask>
<g mask="url(#mask46_2_2447)">
<path d="M214.193 207.921H198.057V206.2H214.193V207.921Z" fill="#0B3322"/>
</g>
<mask id="mask47_2_2447" style="mask-type:luminance" maskUnits="userSpaceOnUse" x="220" y="205" width="77" height="3">
<path d="M220.582 205.849H296.397V207.921H220.582V205.849Z" fill="white"/>
</mask>
<g mask="url(#mask47_2_2447)">
<path d="M296.543 207.921H221.06V206.2H296.543V207.921Z" fill="#0B3322"/>
</g>
<mask id="mask48_2_2447" style="mask-type:luminance" maskUnits="userSpaceOnUse" x="198" y="211" width="99" height="4">
<path d="M198.057 211.857H296.397V214.175H198.057V211.857Z" fill="white"/>
</mask>
<g mask="url(#mask48_2_2447)">
<path d="M296.543 213.839H198.057V212.123L296.543 212.118V213.839Z" fill="#0B3322"/>
</g>
<mask id="mask49_2_2447" style="mask-type:luminance" maskUnits="userSpaceOnUse" x="198" y="216" width="38" height="5">
<path d="M198.057 216.993H235.497V220.845H198.057V216.993Z" fill="white"/>
</mask>
<g mask="url(#mask49_2_2447)">
<path d="M234.868 219.772H198.057V218.056H234.868V219.772Z" fill="#0B3322"/>
</g>
<path d="M288.947 219.772H240.232V218.057H288.947V219.772Z" fill="#0B3322"/>
<mask id="mask50_2_2447" style="mask-type:luminance" maskUnits="userSpaceOnUse" x="198" y="223" width="17" height="3">
<path d="M198.057 223.639H214.656V225.71H198.057V223.639Z" fill="white"/>
</mask>
<g mask="url(#mask50_2_2447)">
<path d="M214.193 225.711H198.057V223.99H214.193V225.711Z" fill="#0B3322"/>
</g>
<mask id="mask51_2_2447" style="mask-type:luminance" maskUnits="userSpaceOnUse" x="220" y="223" width="77" height="3">
<path d="M220.582 223.639H296.397V225.71H220.582V223.639Z" fill="white"/>
</mask>
<g mask="url(#mask51_2_2447)">
<path d="M296.543 225.711H221.06V223.99H296.543V225.711Z" fill="#0B3322"/>
</g>
<mask id="mask52_2_2447" style="mask-type:luminance" maskUnits="userSpaceOnUse" x="206" y="201" width="26" height="9">
<path d="M206.824 201.585H231.636V209.289H206.824V201.585Z" fill="white"/>
</mask>
<g mask="url(#mask52_2_2447)">
<path d="M227.947 208.356H209.744C208.161 208.356 206.869 207.062 206.869 205.482V205.121C206.869 203.546 208.161 202.252 209.744 202.252H227.947C229.53 202.252 230.827 203.546 230.827 205.121V205.482C230.827 207.062 229.53 208.356 227.947 208.356Z" fill="#F6CB5A"/>
</g>
<mask id="mask53_2_2447" style="mask-type:luminance" maskUnits="userSpaceOnUse" x="322" y="201" width="25" height="8">
<path d="M322.677 201.982H346.705V208.563H322.677V201.982Z" fill="white"/>
</mask>
<g mask="url(#mask53_2_2447)">
<path d="M343.83 208.357H325.628C324.044 208.357 322.753 207.063 322.753 205.483V205.122C322.753 203.547 324.044 202.253 325.628 202.253H343.83C345.414 202.253 346.705 203.547 346.705 205.122V205.483C346.705 207.063 345.414 208.357 343.83 208.357Z" fill="#F6CB5A"/>
</g>
<path d="M313.614 237.733L326.231 250.317C327.417 251.506 327.417 253.447 326.231 254.636C325.04 255.819 323.094 255.819 321.903 254.636L309.286 242.046C308.099 240.863 308.099 238.917 309.286 237.733C310.477 236.544 312.422 236.544 313.614 237.733Z" fill="#F6CB5A"/>
<path d="M231.671 155.974L244.289 168.558C245.475 169.747 245.475 171.688 244.289 172.876C243.097 174.065 241.152 174.065 239.961 172.876L227.348 160.287C226.157 159.104 226.157 157.158 227.348 155.974C228.535 154.785 230.48 154.785 231.671 155.974Z" fill="#F6CB5A"/>
<path d="M244.289 242.046L231.671 254.636C230.48 255.819 228.535 255.819 227.348 254.636C226.157 253.447 226.157 251.506 227.348 250.317L239.961 237.733C241.152 236.544 243.097 236.544 244.289 237.733C245.475 238.917 245.475 240.863 244.289 242.046Z" fill="#F6CB5A"/>
<path d="M326.231 160.287L313.614 172.876C312.422 174.065 310.477 174.065 309.286 172.876C308.099 171.688 308.099 169.747 309.286 168.558L321.903 155.974C323.094 154.785 325.04 154.785 326.231 155.974C327.417 157.158 327.417 159.104 326.231 160.287Z" fill="#F6CB5A"/>
<mask id="mask54_2_2447" style="mask-type:luminance" maskUnits="userSpaceOnUse" x="272" y="137" width="9" height="27">
<path d="M272.816 137.913H280.537V163.066H272.816V137.913Z" fill="white"/>
</mask>
<g mask="url(#mask54_2_2447)">
<path d="M279.843 140.968V158.768C279.843 160.443 278.471 161.818 276.787 161.818C275.103 161.818 273.731 160.443 273.731 158.768V140.968C273.731 139.288 275.103 137.913 276.787 137.913C278.471 137.913 279.843 139.288 279.843 140.968Z" fill="#F6CB5A"/>
</g>
<path d="M312.679 207.594C312.679 187.707 296.427 171.607 276.45 171.788C256.72 171.968 240.765 188.164 240.901 207.85C240.961 216.672 244.223 224.742 249.582 230.951C255.021 237.251 258.409 245 259.49 253.175C259.922 256.451 262.717 258.898 266.025 258.898H287.549C290.857 258.898 293.652 256.451 294.084 253.175C295.165 245 298.553 237.251 303.992 230.951C309.406 224.682 312.679 216.522 312.679 207.594Z" fill="#F6CB5A"/>
<mask id="mask55_2_2447" style="mask-type:luminance" maskUnits="userSpaceOnUse" x="263" y="276" width="27" height="6">
<path d="M263.808 276.057H289.545V281.118H263.808V276.057Z" fill="white"/>
</mask>
<g mask="url(#mask55_2_2447)">
<path d="M288.439 277.276C289.058 277.276 289.465 277.702 289.183 278.063C287.932 279.698 282.855 280.927 276.782 280.927C270.715 280.927 265.638 279.698 264.386 278.063C264.115 277.702 264.522 277.276 265.135 277.276H288.439Z" fill="#7C9986"/>
</g>
<path d="M290.415 264.812H263.159C262.446 264.812 261.858 264.225 261.858 263.513V262.931C261.858 262.214 262.446 261.632 263.159 261.632H290.415C291.134 261.632 291.717 262.214 291.717 262.931V263.513C291.717 264.225 291.134 264.812 290.415 264.812Z" fill="#7C9986"/>
<path d="M290.646 270.003H262.928C262.209 270.003 261.626 269.416 261.626 268.699V268.122C261.626 267.405 262.209 266.823 262.928 266.823H290.646C291.365 266.823 291.948 267.405 291.948 268.122V268.699C291.948 269.416 291.365 270.003 290.646 270.003Z" fill="#7C9986"/>
<path d="M289.621 275.194H263.954C263.235 275.194 262.652 274.607 262.652 273.89V273.313C262.652 272.596 263.235 272.014 263.954 272.014H289.621C290.339 272.014 290.922 272.596 290.922 273.313V273.89C290.922 274.607 290.339 275.194 289.621 275.194Z" fill="#7C9986"/>
<path d="M297.674 218.067C297.669 218.067 297.659 218.072 297.654 218.077C297.528 218.132 297.397 218.182 297.272 218.227C297.03 218.313 296.789 218.383 296.543 218.438H296.528C296.1 218.528 295.678 218.579 295.256 218.579C295.06 218.579 294.864 218.568 294.678 218.548C294.482 218.533 294.286 218.503 294.095 218.463C293.843 218.418 293.592 218.468 293.381 218.614C293.165 218.764 293.019 218.995 292.969 219.261C292.893 219.687 293.089 220.103 293.431 220.309C293.522 220.364 293.627 220.409 293.733 220.429C294.245 220.53 294.743 220.575 295.256 220.575C295.633 220.575 296.01 220.55 296.377 220.494C296.432 220.484 296.492 220.474 296.553 220.469C296.573 220.464 296.598 220.459 296.618 220.454C297.081 220.374 297.528 220.254 297.96 220.093C298.528 221.252 298.433 222.797 297.659 224.086C297.121 224.988 296.332 225.635 295.437 225.906C295.135 226.002 294.828 226.042 294.537 226.042C294.029 226.037 293.547 225.896 293.124 225.62V225.615C293.069 225.019 292.964 224.427 292.808 223.84C292.747 223.609 292.607 223.409 292.416 223.278C292.39 223.258 292.36 223.243 292.335 223.228C292.114 223.103 291.858 223.077 291.611 223.153C291.395 223.218 291.214 223.358 291.094 223.544C290.938 223.78 290.877 224.086 290.958 224.382C291.621 226.859 291.124 229.548 289.626 231.569C289.183 232.161 288.676 232.672 288.118 233.099C287.359 233.68 286.504 234.102 285.589 234.342C285.273 234.428 284.951 234.493 284.624 234.533C282.638 234.774 280.688 234.177 279.125 232.858C278.702 232.502 278.32 232.1 277.989 231.669C277.833 231.469 277.747 231.203 277.747 230.912V222.832C277.974 222.802 278.2 222.792 278.426 222.792C281.724 222.792 284.408 225.655 284.408 229.181C284.408 230.034 284.252 230.862 283.94 231.649C283.744 232.151 283.976 232.732 284.458 232.948C284.579 232.998 284.704 233.028 284.83 233.028C284.951 233.028 285.071 233.003 285.187 232.953C285.428 232.853 285.624 232.652 285.72 232.401C286.122 231.373 286.328 230.29 286.328 229.181C286.328 224.557 282.784 220.79 278.426 220.79C278.2 220.79 277.974 220.8 277.747 220.82V195.422C278.18 195.01 278.738 194.78 279.321 194.78C280.628 194.78 281.693 195.923 281.693 197.333C281.693 197.393 281.688 197.453 281.683 197.523C281.658 198.07 282.06 198.541 282.593 198.571C282.608 198.571 282.623 198.571 282.643 198.571C282.875 198.571 283.096 198.491 283.272 198.331C283.473 198.15 283.589 197.899 283.604 197.629C283.604 197.528 283.614 197.433 283.614 197.333C283.614 194.82 281.688 192.778 279.321 192.778C278.818 192.778 278.325 192.874 277.863 193.049C278.16 191.158 279.024 189.438 280.361 188.094C282.035 186.419 284.227 185.571 286.534 185.722C290.656 185.987 294.059 189.649 294.281 194.052C294.286 194.143 294.291 194.228 294.291 194.313V194.328C294.291 194.348 294.291 194.363 294.291 194.383C294.291 194.388 294.291 194.393 294.291 194.393V194.398C294.291 194.398 294.291 194.398 294.291 194.403C294.321 196.45 293.697 198.436 292.511 200.021C292.496 200.046 292.481 200.066 292.466 200.091C292.461 200.096 292.456 200.101 292.436 200.126C292.094 200.528 292.119 201.154 292.501 201.521C292.692 201.706 292.938 201.801 293.2 201.786C293.461 201.776 293.697 201.656 293.873 201.455C293.939 201.375 293.999 201.3 294.049 201.225C295.236 199.62 295.96 197.689 296.161 195.672C297.573 196.345 298.699 197.834 299.111 199.665C299.428 201.059 299.302 202.474 298.775 203.662C298.262 203.411 297.724 203.216 297.161 203.075C296.92 203.01 296.668 203.055 296.452 203.186C296.226 203.326 296.06 203.557 296 203.823C295.884 204.354 296.206 204.891 296.714 205.016C297.377 205.182 297.99 205.448 298.548 205.799C298.558 205.809 298.563 205.814 298.573 205.819C298.619 205.854 298.664 205.884 298.714 205.909C300.529 207.138 301.68 209.29 301.68 211.707C301.68 214.511 300.112 217.004 297.674 218.067ZM275.827 197.443C275.611 197.468 275.39 197.483 275.164 197.483C271.871 197.483 269.187 194.614 269.187 191.093C269.187 190.241 269.342 189.413 269.649 188.626C269.845 188.119 269.619 187.537 269.136 187.327C268.905 187.221 268.644 187.221 268.407 187.316C268.166 187.417 267.97 187.617 267.87 187.868C267.467 188.901 267.266 189.98 267.266 191.093C267.266 195.718 270.81 199.484 275.164 199.484C275.385 199.484 275.606 199.474 275.827 199.454V224.622C275.822 224.627 275.817 224.632 275.812 224.637C275.36 225.194 274.711 225.51 274.027 225.51C272.721 225.51 271.66 224.361 271.66 222.957C271.66 222.897 271.66 222.837 271.665 222.777V222.767C271.695 222.215 271.288 221.743 270.76 221.713C270.509 221.698 270.267 221.788 270.081 221.959C269.88 222.135 269.76 222.385 269.75 222.661C269.745 222.756 269.74 222.857 269.74 222.957C269.74 225.465 271.665 227.506 274.027 227.506C274.656 227.506 275.269 227.361 275.827 227.09V230.912C275.827 231.203 275.742 231.469 275.586 231.669C275.254 232.1 274.872 232.502 274.45 232.858C272.886 234.177 270.936 234.774 268.955 234.533C268.624 234.488 268.297 234.428 267.98 234.342C267.065 234.097 266.206 233.675 265.447 233.094C264.894 232.667 264.391 232.156 263.954 231.569C262.451 229.548 261.953 226.859 262.617 224.382C262.697 224.086 262.637 223.78 262.481 223.544C262.36 223.358 262.179 223.218 261.963 223.153C261.717 223.077 261.465 223.103 261.239 223.228C261.214 223.243 261.184 223.258 261.159 223.278C260.973 223.409 260.832 223.614 260.767 223.84C260.611 224.427 260.505 225.024 260.45 225.62C259.781 226.052 258.962 226.157 258.138 225.906C257.243 225.635 256.454 224.988 255.916 224.086C255.142 222.797 255.046 221.252 255.614 220.093C256.122 220.279 256.65 220.419 257.198 220.494C257.565 220.545 257.942 220.575 258.324 220.575C258.846 220.575 259.344 220.525 259.842 220.429C259.947 220.404 260.048 220.369 260.133 220.314C260.48 220.113 260.681 219.692 260.606 219.266C260.561 218.995 260.41 218.764 260.194 218.614C259.983 218.468 259.731 218.418 259.48 218.463C259.284 218.503 259.088 218.533 258.887 218.548C258.701 218.568 258.515 218.579 258.324 218.579C257.615 218.579 256.941 218.453 256.303 218.227C253.744 217.325 251.894 214.742 251.894 211.707C251.894 209.29 253.051 207.133 254.865 205.904C254.915 205.884 254.961 205.854 255.006 205.819C255.011 205.814 255.016 205.809 255.021 205.804C255.579 205.453 256.197 205.182 256.861 205.016C257.369 204.891 257.69 204.359 257.575 203.823C257.514 203.557 257.354 203.326 257.127 203.186C256.911 203.055 256.66 203.01 256.413 203.075C255.85 203.211 255.313 203.411 254.805 203.662C254.272 202.474 254.146 201.059 254.463 199.665C254.875 197.834 256.006 196.345 257.419 195.667C257.615 197.689 258.339 199.62 259.525 201.225C259.575 201.3 259.636 201.375 259.701 201.455C259.877 201.656 260.118 201.776 260.38 201.786C260.636 201.801 260.887 201.706 261.078 201.521C261.455 201.154 261.481 200.527 261.139 200.121C261.119 200.101 261.114 200.096 261.109 200.091C261.098 200.066 261.078 200.046 261.068 200.026C259.882 198.431 259.254 196.45 259.284 194.398C259.284 194.368 259.284 194.343 259.284 194.318C259.289 194.228 259.289 194.143 259.294 194.052C259.515 189.649 262.918 185.987 267.04 185.722C269.348 185.571 271.539 186.419 273.213 188.094C274.897 189.784 275.827 192.076 275.827 194.544V197.443ZM300.413 204.726C301.208 203.085 301.414 201.124 300.981 199.203C300.363 196.455 298.478 194.273 296.171 193.541C295.944 190.928 294.803 188.555 293.099 186.795C291.395 185.034 289.133 183.886 286.655 183.725C283.81 183.54 281.1 184.578 279.029 186.654C278.084 187.602 277.33 188.726 276.787 189.96C276.249 188.726 275.49 187.602 274.55 186.654C272.474 184.578 269.77 183.54 266.92 183.725C261.968 184.041 257.861 188.32 257.404 193.541C256.253 193.907 255.207 194.634 254.368 195.617C253.528 196.6 252.905 197.829 252.593 199.203C252.161 201.124 252.367 203.085 253.161 204.726C251.196 206.356 249.974 208.893 249.974 211.707C249.974 214.867 251.537 217.646 253.89 219.215C253.04 220.986 253.161 223.273 254.287 225.144C255.076 226.458 256.253 227.411 257.595 227.822C258.072 227.968 258.55 228.043 259.027 228.043C259.525 228.043 260.013 227.958 260.48 227.797C260.581 228.7 260.797 229.583 261.129 230.425C261.455 231.263 261.893 232.065 262.431 232.793C263.421 234.117 264.683 235.135 266.105 235.782C268.357 244.96 270.338 252.845 271.911 258.899H273.369C272.132 252.995 270.463 245.362 268.463 236.479C268.553 236.494 268.639 236.504 268.729 236.514C269.091 236.559 269.458 236.584 269.825 236.584C271.961 236.584 273.977 235.832 275.661 234.413C276.068 234.067 276.445 233.69 276.787 233.289C277.129 233.69 277.506 234.067 277.913 234.413C279.597 235.832 281.613 236.584 283.749 236.584C284.116 236.584 284.483 236.559 284.845 236.514C284.931 236.504 285.021 236.494 285.107 236.479C283.106 245.362 281.437 252.995 280.2 258.899H281.658C283.232 252.845 285.207 244.96 287.464 235.782C288.892 235.14 290.154 234.122 291.139 232.793C291.787 231.925 292.285 230.957 292.622 229.939C292.727 229.618 292.823 229.292 292.898 228.961C292.984 228.58 293.054 228.188 293.094 227.797C293.562 227.958 294.049 228.043 294.552 228.043C294.768 228.043 294.989 228.028 295.206 227.993C295.467 227.958 295.723 227.902 295.98 227.822C297.327 227.411 298.498 226.458 299.287 225.144C300.413 223.273 300.534 220.986 299.689 219.221C299.735 219.19 299.775 219.155 299.82 219.125C299.855 219.1 299.891 219.075 299.926 219.05C300.021 218.985 300.117 218.915 300.207 218.839C300.232 218.819 300.252 218.804 300.278 218.784C300.976 218.222 301.595 217.54 302.107 216.763C303.083 215.273 303.6 213.523 303.6 211.707C303.6 208.893 302.379 206.356 300.413 204.726Z" fill="#0B3322"/>
<path d="M272.208 211.371C271.685 214.611 269.056 216.968 265.949 216.968C264.919 216.968 263.924 216.702 263.044 216.221C262.079 215.694 261.244 214.907 260.636 213.914C260.53 213.748 260.435 213.573 260.344 213.397C260.108 212.916 260.279 212.319 260.737 212.058C260.963 211.933 261.219 211.903 261.465 211.973C261.717 212.053 261.928 212.234 262.049 212.474C262.818 214.009 264.316 214.967 265.949 214.967C268.111 214.967 269.951 213.317 270.318 211.04C270.358 210.774 270.509 210.533 270.725 210.378C270.931 210.232 271.182 210.177 271.429 210.222C271.946 210.318 272.298 210.834 272.208 211.371Z" fill="#0B3322"/>
<path d="M264.853 204.5C264.853 206.18 265.864 207.629 267.362 208.111C267.865 208.271 268.151 208.828 268.005 209.35C267.885 209.771 267.503 210.067 267.08 210.067C266.985 210.067 266.889 210.052 266.799 210.022C264.487 209.285 262.933 207.063 262.933 204.5C262.933 201.606 264.969 199.148 267.668 198.787C267.92 198.752 268.166 198.822 268.367 198.978C268.578 199.143 268.714 199.384 268.744 199.655C268.81 200.201 268.438 200.698 267.915 200.768C266.171 201.004 264.853 202.609 264.853 204.5Z" fill="#0B3322"/>
<path d="M292.109 208.297C292.355 208.372 292.617 208.342 292.838 208.217C293.295 207.956 293.471 207.354 293.23 206.877C292.124 204.676 289.977 203.306 287.625 203.306C284.518 203.306 281.889 205.659 281.366 208.904C281.276 209.44 281.628 209.957 282.146 210.052C282.201 210.062 282.256 210.067 282.312 210.067C282.503 210.067 282.689 210.007 282.849 209.897C283.066 209.741 283.216 209.501 283.262 209.235C283.624 206.958 285.463 205.307 287.625 205.307C289.259 205.307 290.757 206.26 291.526 207.8C291.646 208.041 291.857 208.222 292.109 208.297Z" fill="#0B3322"/>
<path d="M290.661 215.769C290.661 215.855 290.656 215.945 290.656 216.025C290.591 217.55 289.968 218.934 288.982 219.932C288.485 220.444 287.892 220.85 287.238 221.131C286.826 221.301 286.383 221.427 285.926 221.487C285.886 221.492 285.846 221.497 285.8 221.497C285.594 221.497 285.393 221.427 285.227 221.296C285.016 221.131 284.88 220.89 284.85 220.619C284.83 220.474 284.845 220.328 284.885 220.198C284.996 219.837 285.298 219.556 285.68 219.506C287.424 219.27 288.736 217.665 288.736 215.769C288.736 214.094 287.731 212.64 286.228 212.163C285.73 212.003 285.443 211.446 285.589 210.924C285.71 210.503 286.087 210.207 286.509 210.207C286.605 210.207 286.7 210.222 286.796 210.252C289.103 210.989 290.661 213.211 290.661 215.769Z" fill="#0B3322"/>
<mask id="mask56_2_2447" style="mask-type:luminance" maskUnits="userSpaceOnUse" x="42" y="84" width="75" height="78">
<path d="M42.4666 84.8586H116.602V161.782H42.4666V84.8586Z" fill="white"/>
</mask>
<g mask="url(#mask56_2_2447)">
<path d="M43.1101 126.227C42.1349 117.159 44.5829 108.111 50.0069 100.758C55.7877 92.9187 64.278 87.7928 73.9245 86.3282C83.566 84.8586 93.2074 87.231 101.064 92.9989C108.926 98.7668 114.064 107.243 115.532 116.863C116.999 126.488 114.627 136.103 108.846 143.947C103.422 151.3 95.4997 156.325 86.5318 158.096C84.1591 158.567 81.7714 158.798 79.3887 158.798C72.8337 158.798 66.3742 157.038 60.6788 153.632C60.6738 153.627 60.6637 153.622 60.6587 153.617L54.8377 161.507L51.2988 160.619L49.283 157.429L55.099 149.539C55.094 149.534 55.089 149.529 55.0789 149.519C48.3279 143.511 44.0752 135.24 43.1101 126.227ZM49.3081 126.929C50.5347 134.954 54.8175 142.026 61.3725 146.836C67.9275 151.646 75.9654 153.622 84.0134 152.398C92.0563 151.179 99.1391 146.901 103.965 140.361C108.786 133.821 110.766 125.801 109.54 117.776C108.313 109.746 104.03 102.679 97.4752 97.869C92.0513 93.8867 85.7325 91.9707 79.4641 91.9707C70.0991 91.9707 60.8497 96.254 54.8829 104.339C50.0622 110.879 48.0816 118.904 49.3081 126.929Z" fill="#0B3322"/>
</g>
<mask id="mask57_2_2447" style="mask-type:luminance" maskUnits="userSpaceOnUse" x="19" y="155" width="38" height="46">
<path d="M19.5493 155.362H56.6222V200.657H19.5493V155.362Z" fill="white"/>
</mask>
<g mask="url(#mask57_2_2447)">
<path d="M19.9213 191.84C19.1371 192.903 19.3633 194.398 20.429 195.18L27.3108 200.226C28.3765 201.009 29.8744 200.783 30.6586 199.72L56.0089 165.333C56.7931 164.27 56.5619 162.775 55.4962 161.992L54.8377 161.506L49.283 157.428L48.6195 156.947C47.5538 156.159 46.0558 156.39 45.2716 157.453L19.9213 191.84Z" fill="#7C9986"/>
</g>
<mask id="mask58_2_2447" style="mask-type:luminance" maskUnits="userSpaceOnUse" x="84" y="152" width="66" height="3">
<path d="M84.4858 152.614H149.161V154.981H84.4858V152.614Z" fill="white"/>
</mask>
<g mask="url(#mask58_2_2447)">
<path d="M182.971 154.505H84.4808V152.79H182.971V154.505Z" fill="#0B3322"/>
</g>
<mask id="mask59_2_2447" style="mask-type:luminance" maskUnits="userSpaceOnUse" x="111" y="125" width="39" height="3">
<path d="M111.158 125.996H149.161V127.772H111.158V125.996Z" fill="white"/>
</mask>
<g mask="url(#mask59_2_2447)">
<path d="M182.971 127.712H111.716V125.996H182.971V127.712Z" fill="#0B3322"/>
</g>
<mask id="mask60_2_2447" style="mask-type:luminance" maskUnits="userSpaceOnUse" x="110" y="130" width="40" height="4">
<path d="M110.671 130.966H149.161V133.534H110.671V130.966Z" fill="white"/>
</mask>
<g mask="url(#mask60_2_2447)">
<path d="M157.722 133.013H111.716V131.292H157.722V133.013Z" fill="#0B3322"/>
</g>
<mask id="mask61_2_2447" style="mask-type:luminance" maskUnits="userSpaceOnUse" x="111" y="136" width="39" height="3">
<path d="M111.158 136.644H149.161V138.419H111.158V136.644Z" fill="white"/>
</mask>
<g mask="url(#mask61_2_2447)">
<path d="M182.971 138.414H111.716V136.699H182.971V138.414Z" fill="#0B3322"/>
</g>
<mask id="mask62_2_2447" style="mask-type:luminance" maskUnits="userSpaceOnUse" x="110" y="141" width="40" height="3">
<path d="M110.671 141.239H149.161V143.807H110.671V141.239Z" fill="white"/>
</mask>
<g mask="url(#mask62_2_2447)">
<path d="M153.157 143.756H111.716V142.041H153.157V143.756Z" fill="#0B3322"/>
</g>
<path d="M147.693 148.521H111.716V146.811L147.693 146.806V148.521Z" fill="#0B3322"/>
<mask id="mask63_2_2447" style="mask-type:luminance" maskUnits="userSpaceOnUse" x="84" y="157" width="39" height="4">
<path d="M84.4858 157.93H122.252V160.498H84.4858V157.93Z" fill="white"/>
</mask>
<g mask="url(#mask63_2_2447)">
<path d="M121.297 160.438L84.4808 160.443V158.723H121.297V160.438Z" fill="#0B3322"/>
</g>
<mask id="mask64_2_2447" style="mask-type:luminance" maskUnits="userSpaceOnUse" x="126" y="157" width="24" height="4">
<path d="M126.113 157.93H149.161V160.498H126.113V157.93Z" fill="white"/>
</mask>
<g mask="url(#mask64_2_2447)">
<path d="M175.376 160.438L126.661 160.443V158.723H175.376V160.438Z" fill="#0B3322"/>
</g>
<mask id="mask65_2_2447" style="mask-type:luminance" maskUnits="userSpaceOnUse" x="84" y="164" width="18" height="3">
<path d="M84.4858 164.35H101.663V166.918H84.4858V164.35Z" fill="white"/>
</mask>
<g mask="url(#mask65_2_2447)">
<path d="M100.617 166.377H84.4808V164.656H100.617V166.377Z" fill="#0B3322"/>
</g>
<mask id="mask66_2_2447" style="mask-type:luminance" maskUnits="userSpaceOnUse" x="107" y="164" width="43" height="3">
<path d="M107.011 164.445H149.161V166.813H107.011V164.445Z" fill="white"/>
</mask>
<g mask="url(#mask66_2_2447)">
<path d="M182.972 166.377H107.489V164.656H182.972V166.377Z" fill="#0B3322"/>
</g>
<mask id="mask67_2_2447" style="mask-type:luminance" maskUnits="userSpaceOnUse" x="84" y="170" width="66" height="3">
<path d="M84.4858 170.359H149.161V172.726H84.4858V170.359Z" fill="white"/>
</mask>
<g mask="url(#mask67_2_2447)">
<path d="M182.971 172.31H84.4808V170.594H182.971V172.31Z" fill="#0B3322"/>
</g>
<mask id="mask68_2_2447" style="mask-type:luminance" maskUnits="userSpaceOnUse" x="84" y="175" width="39" height="4">
<path d="M84.4858 175.906H122.252V178.474H84.4858V175.906Z" fill="white"/>
</mask>
<g mask="url(#mask68_2_2447)">
<path d="M121.297 178.244H84.4808V176.528H121.297V178.244Z" fill="#0B3322"/>
</g>
<mask id="mask69_2_2447" style="mask-type:luminance" maskUnits="userSpaceOnUse" x="126" y="175" width="24" height="4">
<path d="M126.113 175.906H149.161V178.474H126.113V175.906Z" fill="white"/>
</mask>
<g mask="url(#mask69_2_2447)">
<path d="M175.376 178.244H126.661V176.528H175.376V178.244Z" fill="#0B3322"/>
</g>
<mask id="mask70_2_2447" style="mask-type:luminance" maskUnits="userSpaceOnUse" x="84" y="182" width="18" height="3">
<path d="M84.4858 182.326H101.663V184.893H84.4858V182.326Z" fill="white"/>
</mask>
<g mask="url(#mask70_2_2447)">
<path d="M100.617 184.176H84.4808V182.461H100.617V184.176Z" fill="#0B3322"/>
</g>
<mask id="mask71_2_2447" style="mask-type:luminance" maskUnits="userSpaceOnUse" x="107" y="182" width="43" height="3">
<path d="M107.011 182.326H149.161V184.552H107.011V182.326Z" fill="white"/>
</mask>
<g mask="url(#mask71_2_2447)">
<path d="M182.972 184.176H107.489V182.461H182.972V184.176Z" fill="#0B3322"/>
</g>
<mask id="mask72_2_2447" style="mask-type:luminance" maskUnits="userSpaceOnUse" x="84" y="187" width="18" height="5">
<path d="M84.4858 187.462H101.663V191.314H84.4858V187.462Z" fill="white"/>
</mask>
<g mask="url(#mask72_2_2447)">
<path d="M100.617 190.115H84.4808V188.4H100.617V190.115Z" fill="#0B3322"/>
</g>
<mask id="mask73_2_2447" style="mask-type:luminance" maskUnits="userSpaceOnUse" x="107" y="188" width="43" height="3">
<path d="M107.011 188.103H149.161V190.471H107.011V188.103Z" fill="white"/>
</mask>
<g mask="url(#mask73_2_2447)">
<path d="M182.972 190.115H107.489V188.399H182.972V190.115Z" fill="#0B3322"/>
</g>
<mask id="mask74_2_2447" style="mask-type:luminance" maskUnits="userSpaceOnUse" x="84" y="194" width="66" height="3">
<path d="M84.4858 194.017H149.161V196.384H84.4858V194.017Z" fill="white"/>
</mask>
<g mask="url(#mask74_2_2447)">
<path d="M182.971 196.048H84.4808V194.333H182.971V196.048Z" fill="#0B3322"/>
</g>
<mask id="mask75_2_2447" style="mask-type:luminance" maskUnits="userSpaceOnUse" x="84" y="199" width="39" height="4">
<path d="M84.4858 199.018H122.252V202.87H84.4858V199.018Z" fill="white"/>
</mask>
<g mask="url(#mask75_2_2447)">
<path d="M121.297 201.982H84.4808V200.267H121.297V201.982Z" fill="#0B3322"/>
</g>
<mask id="mask76_2_2447" style="mask-type:luminance" maskUnits="userSpaceOnUse" x="126" y="199" width="24" height="4">
<path d="M126.113 199.018H149.161V202.87H126.113V199.018Z" fill="white"/>
</mask>
<g mask="url(#mask76_2_2447)">
<path d="M175.376 201.982H126.661V200.267H175.376V201.982Z" fill="#0B3322"/>
</g>
<mask id="mask77_2_2447" style="mask-type:luminance" maskUnits="userSpaceOnUse" x="84" y="205" width="18" height="3">
<path d="M84.4858 205.849H101.084V207.921H84.4858V205.849Z" fill="white"/>
</mask>
<g mask="url(#mask77_2_2447)">
<path d="M100.617 207.921H84.4808V206.2H100.617V207.921Z" fill="#0B3322"/>
</g>
<mask id="mask78_2_2447" style="mask-type:luminance" maskUnits="userSpaceOnUse" x="107" y="205" width="43" height="3">
<path d="M107.011 205.849H149.161V207.921H107.011V205.849Z" fill="white"/>
</mask>
<g mask="url(#mask78_2_2447)">
<path d="M182.972 207.921H107.489V206.2H182.972V207.921Z" fill="#0B3322"/>
</g>
<mask id="mask79_2_2447" style="mask-type:luminance" maskUnits="userSpaceOnUse" x="84" y="194" width="99" height="3">
<path d="M84.4858 194.017H182.826V196.384H84.4858V194.017Z" fill="white"/>
</mask>
<g mask="url(#mask79_2_2447)">
<path d="M182.971 196.048H84.4808V194.333H182.971V196.048Z" fill="#0B3322"/>
</g>
<mask id="mask80_2_2447" style="mask-type:luminance" maskUnits="userSpaceOnUse" x="84" y="199" width="39" height="4">
<path d="M84.4858 199.018H122.252V202.87H84.4858V199.018Z" fill="white"/>
</mask>
<g mask="url(#mask80_2_2447)">
<path d="M121.297 201.982H84.4808V200.267H121.297V201.982Z" fill="#0B3322"/>
</g>
<path d="M175.376 201.982H126.661V200.267H175.376V201.982Z" fill="#0B3322"/>
<mask id="mask81_2_2447" style="mask-type:luminance" maskUnits="userSpaceOnUse" x="84" y="205" width="18" height="3">
<path d="M84.4858 205.849H101.084V207.921H84.4858V205.849Z" fill="white"/>
</mask>
<g mask="url(#mask81_2_2447)">
<path d="M100.617 207.921H84.4808V206.2H100.617V207.921Z" fill="#0B3322"/>
</g>
<mask id="mask82_2_2447" style="mask-type:luminance" maskUnits="userSpaceOnUse" x="107" y="205" width="76" height="3">
<path d="M107.011 205.849H182.826V207.921H107.011V205.849Z" fill="white"/>
</mask>
<g mask="url(#mask82_2_2447)">
<path d="M182.972 207.921H107.489V206.2H182.972V207.921Z" fill="#0B3322"/>
</g>
<mask id="mask83_2_2447" style="mask-type:luminance" maskUnits="userSpaceOnUse" x="84" y="213" width="99" height="3">
<path d="M84.4858 213.513H182.826V215.709H84.4858V213.513Z" fill="white"/>
</mask>
<g mask="url(#mask83_2_2447)">
<path d="M182.971 215.544H84.4808V213.829H182.971V215.544Z" fill="#0B3322"/>
</g>
<mask id="mask84_2_2447" style="mask-type:luminance" maskUnits="userSpaceOnUse" x="84" y="219" width="39" height="4">
<path d="M84.4858 219.561H122.252V222.129H84.4858V219.561Z" fill="white"/>
</mask>
<g mask="url(#mask84_2_2447)">
<path d="M121.297 221.478H84.4808V219.762H121.297V221.478Z" fill="#0B3322"/>
</g>
<path d="M175.376 221.477H126.661V219.762H175.376V221.477Z" fill="#0B3322"/>
<mask id="mask85_2_2447" style="mask-type:luminance" maskUnits="userSpaceOnUse" x="84" y="225" width="18" height="3">
<path d="M84.4858 225.344H101.084V227.415H84.4858V225.344Z" fill="white"/>
</mask>
<g mask="url(#mask85_2_2447)">
<path d="M100.617 227.415H84.4808V225.7H100.617V227.415Z" fill="#0B3322"/>
</g>
<mask id="mask86_2_2447" style="mask-type:luminance" maskUnits="userSpaceOnUse" x="107" y="225" width="76" height="3">
<path d="M107.011 225.344H182.826V227.415H107.011V225.344Z" fill="white"/>
</mask>
<g mask="url(#mask86_2_2447)">
<path d="M182.972 227.415H107.489V225.7H182.972V227.415Z" fill="#0B3322"/>
</g>
</svg>
