<svg width="27" height="28" viewBox="0 0 27 28" fill="none" xmlns="http://www.w3.org/2000/svg">
<path d="M13.5 27.3632C11.5403 27.3632 9.7379 27.0245 8.09272 26.3471C6.44754 25.6696 5.0201 24.714 3.81041 23.4801C2.60072 22.2462 1.65716 20.8067 0.979732 19.1615C0.326499 17.4921 -0.000118069 15.6655 -0.000118069 13.6816C-0.000118069 11.6977 0.326499 9.88317 0.979732 8.23799C1.65716 6.56862 2.60072 5.11699 3.81041 3.88311C5.0201 2.64922 6.44754 1.69356 8.09272 1.01614C9.7379 0.33871 11.5403 -3.84551e-06 13.5 -3.84551e-06C15.4355 -3.84551e-06 17.2259 0.33871 18.8711 1.01614C20.5162 1.69356 21.9437 2.64922 23.1534 3.88311C24.3631 5.11699 25.3066 6.56862 25.9841 8.23799C26.6615 9.88317 27.0002 11.6977 27.0002 13.6816C27.0002 15.6655 26.6615 17.4921 25.9841 19.1615C25.3066 20.8067 24.3631 22.2462 23.1534 23.4801C21.9437 24.714 20.5162 25.6696 18.8711 26.3471C17.2259 27.0245 15.4355 27.3632 13.5 27.3632ZM13.5 24.8229C15.5807 24.8229 17.4194 24.3511 19.0162 23.4075C20.6372 22.4398 21.9074 21.1212 22.8268 19.4518C23.7703 17.7825 24.2421 15.8591 24.2421 13.6816C24.2421 11.5284 23.7703 9.61704 22.8268 7.94767C21.9074 6.2541 20.6372 4.93554 19.0162 3.99198C17.4194 3.02422 15.5807 2.54035 13.5 2.54035C11.4436 2.54035 9.60483 3.02422 7.98385 3.99198C6.36286 4.93554 5.08059 6.2541 4.13703 7.94767C3.21766 9.61704 2.75798 11.5284 2.75798 13.6816C2.75798 15.8591 3.21766 17.7825 4.13703 19.4518C5.08059 21.1212 6.36286 22.4398 7.98385 23.4075C9.60483 24.3511 11.4436 24.8229 13.5 24.8229ZM10.4516 12.9195V14.4074C10.4516 15.7381 10.6936 16.7542 11.1774 17.4558C11.6613 18.1333 12.4476 18.472 13.5363 18.472C14.1654 18.472 14.8065 18.3752 15.4597 18.1817C16.113 17.9881 16.7783 17.7341 17.4557 17.4196L18.5082 20.2865C16.863 21.1333 15.1452 21.5567 13.3549 21.5567C11.2984 21.5567 9.7379 20.9277 8.67337 19.6696C7.60884 18.4115 7.07658 16.6574 7.07658 14.4074V12.9195C7.07658 10.6937 7.60884 8.95171 8.67337 7.69363C9.7379 6.43555 11.2984 5.80651 13.3549 5.80651C14.1291 5.80651 14.9396 5.90329 15.7864 6.09684C16.6331 6.2662 17.4315 6.55652 18.1815 6.96782L17.1291 9.83479C16.5243 9.54446 15.9194 9.31462 15.3146 9.14526C14.7097 8.97591 14.117 8.89123 13.5363 8.89123C12.4476 8.89123 11.6613 9.22994 11.1774 9.90737C10.6936 10.5848 10.4516 11.5888 10.4516 12.9195Z" fill="#0B1D26"/>
</svg>
