<svg width="107" height="24" viewBox="0 0 107 24" fill="none" xmlns="http://www.w3.org/2000/svg">
<path d="M18.1121 1.16319C16.7709 0.389876 15.0208 0.00227824 12.8618 0.00227824H4.50324C3.84137 0.00227824 3.4757 0.279918 3.40624 0.834527L0.0106582 18.7122C-0.024631 18.8878 0.0277439 19.0484 0.167304 19.1944C0.306065 19.3406 0.480595 19.4133 0.689615 19.4133H4.65989C5.35625 19.4133 5.739 19.1364 5.80926 18.581L6.74945 13.7613C6.78378 13.5277 6.90626 13.3378 7.11528 13.1916C7.32414 13.0456 7.58537 12.9501 7.89882 12.9063C8.21228 12.8629 8.50784 12.8411 8.78696 12.8411C9.06528 12.8411 9.39598 12.8558 9.77969 12.8849C10.1624 12.9141 10.4064 12.9283 10.511 12.9283C13.506 12.9283 15.8568 12.2204 17.5636 10.8033C19.2696 9.38671 20.1236 7.42234 20.1236 4.90979C20.1236 3.18649 19.4526 1.93772 18.1121 1.16319ZM13.8023 6.53116C13.6276 7.55373 13.1754 8.22526 12.4441 8.54669C11.7126 8.86853 10.6678 9.02844 9.30975 9.02844C8.42297 9.05104 7.7416 8.24946 7.90673 7.3779L8.47399 4.38384C8.54329 4.06281 8.76956 3.90209 9.15295 3.90209H10.1458C11.5382 3.90209 12.5489 4.07044 13.1758 4.40581C13.8023 4.74197 14.0114 5.45074 13.8023 6.53116Z" fill="#003087"/>
<path d="M106.321 0H102.455C102.071 0 101.845 0.160718 101.776 0.482019L98.3876 18.6704C98.3828 18.6966 98.3733 18.7216 98.3597 18.7444C98.3389 18.7792 98.3266 18.8191 98.3321 18.8592C98.349 18.9832 98.4174 19.101 98.5372 19.2139C98.6758 19.3452 98.8507 19.4109 99.0594 19.4109H102.508C103.168 19.4109 103.534 19.134 103.605 18.5785L106.992 0.6997C106.998 0.671251 107 0.64236 107 0.613405C107 0.204513 106.773 0 106.321 0Z" fill="#009CDE"/>
<path d="M59.6179 7.05489C59.6179 6.90917 59.5479 6.77015 59.4094 6.6389C59.2697 6.50751 59.1127 6.44148 58.9392 6.44148H54.9165C54.5326 6.44148 54.2193 6.58827 53.9762 6.87957L52.8215 8.30494C50.9077 10.6675 47.1438 10.0128 46.1402 7.14275C45.9654 6.67559 45.5824 6.44148 44.9908 6.44148H41.0723C40.8978 6.44148 40.741 6.50737 40.6025 6.6389C40.4628 6.77015 40.3935 6.9093 40.3935 7.05489C40.3935 7.11382 40.7331 7.97513 41.4121 9.64016C42.091 11.3055 42.8225 13.102 43.6062 15.0302C43.6756 15.2008 43.742 15.3644 43.8055 15.5208C44.4546 17.1202 44.1393 18.8839 43.0187 20.1968C41.3729 22.1251 40.5501 23.1779 40.5501 23.355C40.5501 23.7351 40.7764 23.9247 41.2293 23.9247H45.2519C45.635 23.9247 45.9483 23.779 46.1923 23.4868L59.3009 7.6193C59.4426 7.44785 59.6179 7.27728 59.6179 7.05489Z" fill="#003087"/>
<path d="M97.0782 6.44152H93.1076C92.4326 6.44152 91.3772 7.04594 90.7649 6.76199C89.8634 6.34394 88.6942 6.13468 87.2568 6.13468C84.7492 6.13468 82.6155 6.92354 80.8573 8.50098C79.0983 10.0786 78.2192 11.9338 78.2192 14.066C78.2192 15.7898 78.8198 17.1626 80.0212 18.1846C81.2228 19.2077 82.8335 19.7183 84.8541 19.7183C85.8637 19.7183 86.8911 19.5427 87.9359 19.1925C88.8129 18.8983 89.5298 18.522 90.0882 18.0631C90.2053 17.9668 90.33 18.0391 90.287 18.1845C90.2167 18.4186 90.1824 18.5942 90.1824 18.7103C90.1824 19.1783 90.4082 19.4113 90.8617 19.4113H94.4666C95.1274 19.4113 95.5111 19.1343 95.6153 18.5789L97.7574 7.14265C97.7918 6.96733 97.7395 6.80688 97.6006 6.66063C97.4609 6.51478 97.2872 6.44152 97.0782 6.44152ZM90.2608 15.0737C89.3727 15.804 88.3019 16.169 87.0481 16.169C86.0376 16.169 85.2199 15.9356 84.5927 15.468C83.9656 15.0013 83.6522 14.3586 83.6522 13.54C83.6522 12.4599 84.0874 11.5464 84.9583 10.8015C85.8281 10.0566 86.9087 9.68413 88.1974 9.68413C89.1716 9.68413 89.9815 9.92521 90.6265 10.4071C91.2703 10.8891 91.5932 11.5539 91.5932 12.4011C91.593 13.4526 91.1488 14.3437 90.2608 15.0737Z" fill="#009CDE"/>
<path d="M37.73 6.44152H33.7598C33.0737 6.44152 32.0299 7.05938 31.408 6.76962C30.5 6.34648 29.3334 6.13468 27.9085 6.13468C25.4009 6.13468 23.2674 6.92354 21.5088 8.50098C19.7498 10.0786 18.8708 11.9338 18.8708 14.066C18.8708 15.7898 19.4717 17.1626 20.6732 18.1846C21.8748 19.2077 23.4852 19.7183 25.5055 19.7183C26.4801 19.7183 27.4908 19.5427 28.5354 19.1925C29.208 18.9668 29.7941 18.6928 30.2936 18.3702C30.4843 18.2471 30.834 18.4832 30.834 18.7103C30.834 19.1783 31.0602 19.4113 31.5131 19.4113H35.1177C35.7789 19.4113 36.1625 19.1343 36.2671 18.5789L38.4088 7.14265C38.4432 6.96733 38.391 6.80688 38.2522 6.66063C38.1128 6.51478 37.9389 6.44152 37.73 6.44152ZM30.9125 15.0954C30.0242 15.8119 28.9354 16.169 27.6476 16.169C26.637 16.169 25.8272 15.9356 25.2182 15.468C24.6084 15.0013 24.3039 14.3586 24.3039 13.54C24.3039 12.4599 24.739 11.5464 25.6101 10.8015C26.4801 10.0566 27.5599 9.68413 28.849 9.68413C29.8237 9.68413 30.6334 9.92521 31.2784 10.4071C31.9222 10.8891 32.2447 11.5539 32.2447 12.4011C32.2447 13.4819 31.8007 14.3804 30.9125 15.0954Z" fill="#003087"/>
<path d="M77.4605 1.16092C76.1195 0.387597 74.3698 0 72.2104 0H63.9041C63.2071 0 62.8238 0.27764 62.7547 0.832249L59.3591 18.7098C59.3238 18.8854 59.376 19.046 59.5158 19.192C59.654 19.3382 59.829 19.4109 60.0381 19.4109H64.3216C64.5776 19.4109 64.7813 19.3398 64.9327 19.1973C65.1387 19.0037 65.1834 18.7017 65.2348 18.4238L66.0981 13.7589C66.1326 13.5253 66.2546 13.3354 66.4637 13.1892C66.6728 13.0432 66.9337 12.9477 67.2474 12.9039C67.5607 12.8605 67.8563 12.8387 68.1356 12.8387C68.4139 12.8387 68.7446 12.8534 69.1278 12.8824C69.5109 12.9116 69.7554 12.9258 69.8592 12.9258C72.8546 12.9258 75.2051 12.218 76.9119 10.8009C78.6184 9.3843 79.4717 7.41993 79.4717 4.90738C79.4719 3.18422 78.801 1.93544 77.4605 1.16092ZM72.1058 8.3691C71.3395 8.80719 70.1902 9.02616 68.658 9.02616C67.7984 9.04875 67.1374 8.27183 67.2975 7.4269L67.8745 4.38156C67.9435 4.06053 68.1697 3.89981 68.5535 3.89981H69.4935C70.2595 3.89981 70.869 3.92901 71.3225 3.98727C71.7745 4.0462 72.2104 4.22821 72.6283 4.53491C73.0465 4.84175 73.2552 5.28734 73.2552 5.87155C73.2552 7.09836 72.8717 7.93074 72.1058 8.3691Z" fill="#009CDE"/>
</svg>
