<svg width="401" height="348" viewBox="0 0 401 348" fill="none" xmlns="http://www.w3.org/2000/svg">
<mask id="mask0_2_2451" style="mask-type:luminance" maskUnits="userSpaceOnUse" x="0" y="0" width="384" height="342">
<path d="M0 0H383.064V341.314H0V0Z" fill="white"/>
</mask>
<g mask="url(#mask0_2_2451)">
<mask id="mask1_2_2451" style="mask-type:luminance" maskUnits="userSpaceOnUse" x="-13" y="-22" width="407" height="379">
<path d="M10.3289 -21.8484L393.629 2.62141L370.983 356.14L-12.3171 331.67L10.3289 -21.8484Z" fill="white"/>
</mask>
<g mask="url(#mask1_2_2451)">
<mask id="mask2_2_2451" style="mask-type:luminance" maskUnits="userSpaceOnUse" x="-13" y="-22" width="407" height="379">
<path d="M10.3289 -21.8484L393.629 2.62141L370.983 356.14L-12.3171 331.67L10.3289 -21.8484Z" fill="white"/>
</mask>
<g mask="url(#mask2_2_2451)">
<path d="M321.659 310.494C346.594 301.126 366.192 274.501 360.533 248.562C358.64 240.052 354.392 232.267 351.53 224.032C346.278 208.68 346.153 191.618 351.34 176.251C360.403 149.019 385.359 125.647 381.964 97.1474C380.473 84.3962 373.207 72.9733 365.033 63.044C328.312 18.3448 267.605 -5.42324 210.302 2.42092C193.551 4.66641 176.684 9.74882 163.599 20.3447C141.143 38.6043 132.703 70.8832 108.435 86.7871C83.3886 103.187 47.9433 97.814 24.3232 116.264C0.773334 134.724 -1.59169 169.484 2.7467 199.127C4.73513 212.519 7.7228 226.173 15.3451 237.35C36.5902 268.681 83.4237 269.779 111.553 295.186C120.335 303.121 126.943 313.155 135.65 321.15C151.964 336.337 175.429 343.519 197.472 340.121C219.998 336.688 231.416 316.102 251.044 311.266C260.545 308.96 272.279 314.178 281.709 315.05C295.181 316.383 308.88 315.295 321.659 310.494Z" fill="white" fill-opacity="0.6"/>
</g>
</g>
</g>
<mask id="mask3_2_2451" style="mask-type:luminance" maskUnits="userSpaceOnUse" x="44" y="19" width="263" height="202">
<path d="M44.6794 19.7733H306.635V220.303H44.6794V19.7733Z" fill="white"/>
</mask>
<g mask="url(#mask3_2_2451)">
<path d="M306.484 43.8722L297.712 35.1108L190.136 137.005H120.958L43.138 219.637L4.89584 188.806H-52.6331V178.922H8.38563L42.204 206.184L116.67 127.116H186.179L290.713 28.1237L282.573 19.9989H306.484V43.8722Z" fill="url(#paint0_linear_2_2451)"/>
</g>
<mask id="mask4_2_2451" style="mask-type:luminance" maskUnits="userSpaceOnUse" x="288" y="61" width="37" height="195">
<path d="M288.89 61.3443H324.089V255.599H288.89V61.3443Z" fill="white"/>
</mask>
<g mask="url(#mask4_2_2451)">
<path d="M288.89 61.3443H324.089V255.554H288.89V61.3443Z" fill="#7C9986"/>
</g>
<mask id="mask5_2_2451" style="mask-type:luminance" maskUnits="userSpaceOnUse" x="102" y="30" width="28" height="29">
<path d="M102.038 30.8949H129.62V58.4221H102.038V30.8949Z" fill="white"/>
</mask>
<g mask="url(#mask5_2_2451)">
<mask id="mask6_2_2451" style="mask-type:luminance" maskUnits="userSpaceOnUse" x="102" y="30" width="28" height="29">
<path d="M115.831 30.8949C108.214 30.8949 102.038 37.0549 102.038 44.6585C102.038 52.2621 108.214 58.4221 115.831 58.4221C123.443 58.4221 129.62 52.2621 129.62 44.6585C129.62 37.0549 123.443 30.8949 115.831 30.8949Z" fill="white"/>
</mask>
<g mask="url(#mask6_2_2451)">
<path d="M102.038 30.8949H129.62V58.4221H102.038V30.8949Z" fill="white" fill-opacity="0.6"/>
</g>
</g>
<mask id="mask7_2_2451" style="mask-type:luminance" maskUnits="userSpaceOnUse" x="247" y="329" width="20" height="19">
<path d="M247.459 329.009H266.485V348H247.459V329.009Z" fill="white"/>
</mask>
<g mask="url(#mask7_2_2451)">
<mask id="mask8_2_2451" style="mask-type:luminance" maskUnits="userSpaceOnUse" x="247" y="329" width="20" height="19">
<path d="M256.974 329.009C251.717 329.009 247.459 333.259 247.459 338.502C247.459 343.745 251.717 348 256.974 348C262.227 348 266.485 343.745 266.485 338.502C266.485 333.259 262.227 329.009 256.974 329.009Z" fill="white"/>
</mask>
<g mask="url(#mask8_2_2451)">
<path d="M247.459 329.009H266.485V348H247.459V329.009Z" fill="white" fill-opacity="0.6"/>
</g>
</g>
<mask id="mask9_2_2451" style="mask-type:luminance" maskUnits="userSpaceOnUse" x="381" y="201" width="20" height="20">
<path d="M381.974 201.101H401V220.088H381.974V201.101Z" fill="white"/>
</mask>
<g mask="url(#mask9_2_2451)">
<mask id="mask10_2_2451" style="mask-type:luminance" maskUnits="userSpaceOnUse" x="381" y="201" width="20" height="20">
<path d="M391.485 201.101C386.232 201.101 381.974 205.352 381.974 210.595C381.974 215.837 386.232 220.088 391.485 220.088C396.742 220.088 401 215.837 401 210.595C401 205.352 396.742 201.101 391.485 201.101Z" fill="white"/>
</mask>
<g mask="url(#mask10_2_2451)">
<path d="M381.974 201.101H401V220.088H381.974V201.101Z" fill="white" fill-opacity="0.6"/>
</g>
</g>
<mask id="mask11_2_2451" style="mask-type:luminance" maskUnits="userSpaceOnUse" x="372" y="220" width="10" height="10">
<path d="M372.464 220.087H381.974V229.585H372.464V220.087Z" fill="white"/>
</mask>
<g mask="url(#mask11_2_2451)">
<mask id="mask12_2_2451" style="mask-type:luminance" maskUnits="userSpaceOnUse" x="372" y="220" width="10" height="10">
<path d="M377.219 220.087C374.593 220.087 372.464 222.212 372.464 224.839C372.464 227.46 374.593 229.585 377.219 229.585C379.845 229.585 381.974 227.46 381.974 224.839C381.974 222.212 379.845 220.087 377.219 220.087Z" fill="white"/>
</mask>
<g mask="url(#mask12_2_2451)">
<path d="M372.464 220.087H381.974V229.585H372.464V220.087Z" fill="white" fill-opacity="0.6"/>
</g>
</g>
<mask id="mask13_2_2451" style="mask-type:luminance" maskUnits="userSpaceOnUse" x="252" y="92" width="37" height="164">
<path d="M252.817 92.5154H288.016V255.599H252.817V92.5154Z" fill="white"/>
</mask>
<g mask="url(#mask13_2_2451)">
<path d="M252.817 92.5154H288.016V255.569H252.817V92.5154Z" fill="#7C9986"/>
</g>
<mask id="mask14_2_2451" style="mask-type:luminance" maskUnits="userSpaceOnUse" x="216" y="117" width="36" height="139">
<path d="M216.729 117.397H251.928V255.599H216.729V117.397Z" fill="white"/>
</mask>
<g mask="url(#mask14_2_2451)">
<path d="M216.729 117.397H251.928V255.609H216.729V117.397Z" fill="#7C9986"/>
</g>
<mask id="mask15_2_2451" style="mask-type:luminance" maskUnits="userSpaceOnUse" x="180" y="143" width="36" height="113">
<path d="M180.636 143.49H215.835V255.599H180.636V143.49Z" fill="white"/>
</mask>
<g mask="url(#mask15_2_2451)">
<path d="M180.636 143.49H215.835V255.624H180.636V143.49Z" fill="#7C9986"/>
</g>
<mask id="mask16_2_2451" style="mask-type:luminance" maskUnits="userSpaceOnUse" x="144" y="157" width="36" height="99">
<path d="M144.548 157.364H179.747V255.599H144.548V157.364Z" fill="white"/>
</mask>
<g mask="url(#mask16_2_2451)">
<path d="M144.548 157.364H179.747V255.634H144.548V157.364Z" fill="#7C9986"/>
</g>
<mask id="mask17_2_2451" style="mask-type:luminance" maskUnits="userSpaceOnUse" x="175" y="168" width="191" height="53">
<path d="M175.715 168.577H365.068V220.368H175.715V168.577Z" fill="white"/>
</mask>
<g mask="url(#mask17_2_2451)">
<path d="M331.556 220.388C311.686 220.388 283.647 219.201 264.3 219.201C249.668 219.201 215.147 220.699 201.218 217.351C200.058 217.075 198.682 209.271 198.22 201.096C189.749 200.154 178.165 200.866 175.996 202.379C177.573 197.322 188.785 190.155 197.698 185.097C198.271 177.038 200.445 169.143 204.176 168.943C217.045 168.246 339.68 170.161 349.873 170.306C354.839 170.371 361.894 171.745 363.767 180.957C364.666 185.378 364.822 214.344 360.297 217.191C356.381 219.657 345.148 220.388 331.556 220.388Z" fill="#0B3322"/>
</g>
<path d="M329.723 218.248C309.909 218.248 283.457 216.689 264.16 216.689C249.568 216.689 216.654 217.972 202.76 214.634C201.6 214.354 200.385 207.537 199.923 199.387C191.442 198.866 181.419 198.625 179.26 200.134C180.802 197.377 191.065 191.137 199.953 186.095C200.525 178.05 202.273 171.399 205.993 171.198C218.833 170.501 337.546 172.426 347.714 172.566C352.665 172.637 359.238 174.005 361.106 183.192C362 187.603 362.442 212.223 357.927 215.06C354.021 217.521 343.28 218.248 329.723 218.248Z" fill="#F1F1E5"/>
<path d="M179.26 200.134C180.802 197.377 191.065 191.137 199.953 186.095C200.525 178.05 202.273 171.399 205.993 171.198C218.828 170.501 337.546 172.426 347.709 172.566C352.665 172.637 359.238 174.005 361.106 183.192C361.558 185.418 361.894 192.786 361.533 199.908C361.086 190.836 356.255 180.636 351.666 178.471C346.931 176.235 313.6 176.837 313.6 176.837C313.6 176.837 210.317 174.195 207.274 176.14C204.231 178.085 203.377 187.999 203.377 187.999C203.377 187.999 198.873 190.55 194.61 191.889C191.889 192.741 184.879 196.966 179.692 199.903C179.526 199.973 179.381 200.054 179.26 200.134Z" fill="#E8E8E8"/>
<mask id="mask18_2_2451" style="mask-type:luminance" maskUnits="userSpaceOnUse" x="269" y="177" width="16" height="15">
<path d="M269.166 177.518H284.084V191.653H269.166V177.518Z" fill="white"/>
</mask>
<g mask="url(#mask18_2_2451)">
<path d="M276.587 177.513L278.345 182.911H284.004L279.414 186.249L281.177 191.648L276.587 188.314L272.003 191.648L273.76 186.249L269.171 182.911H274.83L276.587 177.513Z" fill="#FFB901"/>
</g>
<mask id="mask19_2_2451" style="mask-type:luminance" maskUnits="userSpaceOnUse" x="285" y="177" width="18" height="15">
<path d="M285.37 177.518H302.081V191.653H285.37V177.518Z" fill="white"/>
</mask>
<g mask="url(#mask19_2_2451)">
<path d="M293.906 177.513L295.643 182.911H301.317L296.733 186.249L298.49 191.648L293.906 188.314L289.317 191.648L291.054 186.249L286.469 182.911H292.149L293.906 177.513Z" fill="#FFB901"/>
</g>
<mask id="mask20_2_2451" style="mask-type:luminance" maskUnits="userSpaceOnUse" x="303" y="177" width="16" height="15">
<path d="M303.366 177.518H318.791V191.653H303.366V177.518Z" fill="white"/>
</mask>
<g mask="url(#mask20_2_2451)">
<path d="M311.199 177.513L312.957 182.911H318.616L314.031 186.249L315.789 191.648L311.199 188.314L306.615 191.648L308.372 186.249L303.783 182.911H309.442L311.199 177.513Z" fill="#FFB901"/>
</g>
<mask id="mask21_2_2451" style="mask-type:luminance" maskUnits="userSpaceOnUse" x="320" y="177" width="17" height="15">
<path d="M320.077 177.518H336.788V191.653H320.077V177.518Z" fill="white"/>
</mask>
<g mask="url(#mask21_2_2451)">
<path d="M328.518 177.513L330.255 182.911H335.934L331.345 186.249L333.102 191.648L328.518 188.314L323.928 191.648L325.665 186.249L321.081 182.911H326.76L328.518 177.513Z" fill="#FFB901"/>
</g>
<mask id="mask22_2_2451" style="mask-type:luminance" maskUnits="userSpaceOnUse" x="338" y="177" width="16" height="15">
<path d="M338.073 177.518H353.238V191.653H338.073V177.518Z" fill="white"/>
</mask>
<g mask="url(#mask22_2_2451)">
<path d="M345.811 177.513L347.568 182.911H353.227L348.643 186.249L350.4 191.648L345.811 188.314L341.227 191.648L342.984 186.249L338.4 182.911H344.054L345.811 177.513Z" fill="#FFB901"/>
</g>
<mask id="mask23_2_2451" style="mask-type:luminance" maskUnits="userSpaceOnUse" x="345" y="177" width="9" height="15">
<path d="M345.786 177.518H353.237V191.653H345.786V177.518Z" fill="white"/>
</mask>
<g mask="url(#mask23_2_2451)">
<path d="M350.4 191.648L348.643 186.249L353.227 182.911H347.568L345.811 177.513V188.314L350.4 191.648Z" fill="#DCDCDC"/>
</g>
<path d="M295.262 196.244H351.289" stroke="#0B3322" stroke-linecap="round"/>
<path d="M243.357 203.306H351.289" stroke="#0B3322" stroke-linecap="round"/>
<path d="M255.378 210.373L351.289 210.373" stroke="#0B3322" stroke-linecap="round"/>
<mask id="mask24_2_2451" style="mask-type:luminance" maskUnits="userSpaceOnUse" x="207" y="179" width="31" height="31">
<path d="M207.078 179.463H237.165V209.502H207.078V179.463Z" fill="white"/>
</mask>
<g mask="url(#mask24_2_2451)">
<path d="M237.155 194.475C237.155 202.765 230.422 209.487 222.117 209.487C213.811 209.487 207.078 202.765 207.078 194.475C207.078 186.185 213.811 179.463 222.117 179.463C230.422 179.463 237.155 186.185 237.155 194.475Z" fill="#7C9986"/>
</g>
<path d="M227.459 189.729C227.459 192.686 225.059 195.082 222.097 195.082C219.134 195.082 216.734 192.686 216.734 189.729C216.734 186.776 219.134 184.381 222.097 184.381C225.059 184.381 227.459 186.776 227.459 189.729Z" fill="#F1F1E5"/>
<path d="M222.097 208.775C225.893 208.775 229.357 207.372 231.999 205.056C231.18 199.703 228.76 195.989 222.097 195.989C215.619 195.989 213.113 199.718 212.23 205.091C214.871 207.382 218.321 208.775 222.097 208.775Z" fill="#F1F1E5"/>
<mask id="mask25_2_2451" style="mask-type:luminance" maskUnits="userSpaceOnUse" x="108" y="177" width="36" height="79">
<path d="M108.465 177.308H143.664V255.599H108.465V177.308Z" fill="white"/>
</mask>
<g mask="url(#mask25_2_2451)">
<path d="M108.465 177.308H143.664V255.539H108.465V177.308Z" fill="#7C9986"/>
</g>
<mask id="mask26_2_2451" style="mask-type:luminance" maskUnits="userSpaceOnUse" x="72" y="199" width="36" height="57">
<path d="M72.3818 199.542H107.581V255.599H72.3818V199.542Z" fill="white"/>
</mask>
<g mask="url(#mask26_2_2451)">
<path d="M72.3818 199.542H107.581V255.544H72.3818V199.542Z" fill="#7C9986"/>
</g>
<mask id="mask27_2_2451" style="mask-type:luminance" maskUnits="userSpaceOnUse" x="36" y="219" width="36" height="37">
<path d="M36.2939 219.867H71.4932V255.6H36.2939V219.867Z" fill="white"/>
</mask>
<g mask="url(#mask27_2_2451)">
<path d="M36.2939 219.867H71.4932V255.554H36.2939V219.867Z" fill="#7C9986"/>
</g>
<mask id="mask28_2_2451" style="mask-type:luminance" maskUnits="userSpaceOnUse" x="46" y="229" width="197" height="55">
<path d="M46.8938 229.681H242.202V283.472H46.8938V229.681Z" fill="white"/>
</mask>
<g mask="url(#mask28_2_2451)">
<path d="M81.3097 229.906C101.857 229.906 130.86 231.134 150.865 231.134C165.999 231.134 201.7 229.585 216.106 233.044C217.306 233.334 218.727 241.399 219.204 249.855C227.966 250.832 239.947 250.095 242.192 248.532C240.56 253.759 228.966 261.173 219.747 266.4C219.154 274.741 216.904 282.901 213.048 283.111C199.737 283.833 72.909 281.848 62.3643 281.703C57.2276 281.633 49.9316 280.214 47.9934 270.686C47.0645 266.11 46.9038 236.156 51.5836 233.209C55.6358 230.658 67.2551 229.906 81.3097 229.906Z" fill="#0B3322"/>
</g>
<path d="M83.2027 232.116C103.695 232.116 131.056 233.73 151.01 233.73C166.104 233.73 200.143 232.402 214.514 235.856C215.709 236.141 216.97 243.194 217.447 251.624C226.214 252.165 236.583 252.411 238.817 250.847C237.221 253.699 226.606 260.155 217.412 265.373C216.824 273.688 215.016 280.57 211.17 280.78C197.889 281.497 75.1134 279.507 64.5988 279.362C59.4771 279.292 52.6783 277.878 50.7501 268.37C49.8211 263.809 49.3692 238.352 54.034 235.415C58.0761 232.873 69.1832 232.116 83.2027 232.116Z" fill="#F1F1E5"/>
<path d="M238.817 250.848C237.221 253.7 226.606 260.155 217.412 265.373C216.824 273.688 215.017 280.57 211.17 280.781C197.894 281.497 75.1185 279.508 64.5989 279.362C59.4772 279.292 52.6834 277.879 50.7502 268.37C50.2832 266.07 49.9368 258.451 50.3083 251.083C50.7703 260.466 55.7665 271.017 60.5116 273.257C65.4073 275.568 99.8785 274.946 99.8785 274.946C99.8785 274.946 206.696 277.678 209.845 275.663C212.993 273.653 213.872 263.403 213.872 263.403C213.872 263.403 218.531 260.762 222.94 259.378C225.757 258.496 233.008 254.131 238.371 251.093C238.541 251.018 238.692 250.938 238.817 250.848Z" fill="#E8E8E8"/>
<mask id="mask29_2_2451" style="mask-type:luminance" maskUnits="userSpaceOnUse" x="110" y="235" width="19" height="19">
<path d="M110.057 235.781H128.435V253.243H110.057V235.781Z" fill="white"/>
</mask>
<g mask="url(#mask29_2_2451)">
<mask id="mask30_2_2451" style="mask-type:luminance" maskUnits="userSpaceOnUse" x="110" y="235" width="19" height="19">
<path d="M119.231 235.781L121.4 242.452H128.409L122.735 246.572L124.905 253.243L119.231 249.118L113.561 253.243L115.726 246.572L110.057 242.452H117.066L119.231 235.781Z" fill="white"/>
</mask>
<g mask="url(#mask30_2_2451)">
<path d="M110.057 235.781H128.435V253.243H110.057V235.781Z" fill="#FFB901"/>
</g>
</g>
<mask id="mask31_2_2451" style="mask-type:luminance" maskUnits="userSpaceOnUse" x="131" y="235" width="19" height="19">
<path d="M131.061 235.781H149.443V253.243H131.061V235.781Z" fill="white"/>
</mask>
<g mask="url(#mask31_2_2451)">
<mask id="mask32_2_2451" style="mask-type:luminance" maskUnits="userSpaceOnUse" x="131" y="235" width="19" height="19">
<path d="M140.239 235.781L142.404 242.452H149.413L143.744 246.572L145.908 253.243L140.239 249.118L134.565 253.243L136.735 246.572L131.061 242.452H138.07L140.239 235.781Z" fill="white"/>
</mask>
<g mask="url(#mask32_2_2451)">
<path d="M131.061 235.781H149.443V253.243H131.061V235.781Z" fill="#FFB901"/>
</g>
</g>
<mask id="mask33_2_2451" style="mask-type:luminance" maskUnits="userSpaceOnUse" x="152" y="235" width="19" height="19">
<path d="M152.07 235.781H170.447V253.243H152.07V235.781Z" fill="white"/>
</mask>
<g mask="url(#mask33_2_2451)">
<mask id="mask34_2_2451" style="mask-type:luminance" maskUnits="userSpaceOnUse" x="152" y="235" width="19" height="19">
<path d="M161.243 235.781L163.413 242.452H170.422L164.748 246.572L166.918 253.243L161.243 249.118L155.574 253.243L157.739 246.572L152.07 242.452H159.079L161.243 235.781Z" fill="white"/>
</mask>
<g mask="url(#mask34_2_2451)">
<path d="M152.07 235.781H170.447V253.243H152.07V235.781Z" fill="#DCDCDC"/>
</g>
</g>
<mask id="mask35_2_2451" style="mask-type:luminance" maskUnits="userSpaceOnUse" x="173" y="235" width="19" height="19">
<path d="M173.074 235.781H191.457V253.243H173.074V235.781Z" fill="white"/>
</mask>
<g mask="url(#mask35_2_2451)">
<mask id="mask36_2_2451" style="mask-type:luminance" maskUnits="userSpaceOnUse" x="173" y="235" width="19" height="19">
<path d="M182.253 235.781L184.417 242.452H191.427L185.757 246.572L187.922 253.243L182.253 249.118L176.579 253.243L178.748 246.572L173.074 242.452H180.083L182.253 235.781Z" fill="white"/>
</mask>
<g mask="url(#mask36_2_2451)">
<path d="M173.074 235.781H191.457V253.243H173.074V235.781Z" fill="#DCDCDC"/>
</g>
</g>
<mask id="mask37_2_2451" style="mask-type:luminance" maskUnits="userSpaceOnUse" x="194" y="235" width="19" height="19">
<path d="M194.083 235.781H212.461V253.243H194.083V235.781Z" fill="white"/>
</mask>
<g mask="url(#mask37_2_2451)">
<mask id="mask38_2_2451" style="mask-type:luminance" maskUnits="userSpaceOnUse" x="194" y="235" width="19" height="19">
<path d="M203.257 235.781L205.426 242.452H212.436L206.761 246.572L208.931 253.243L203.257 249.118L197.588 253.243L199.752 246.572L194.083 242.452H201.092L203.257 235.781Z" fill="white"/>
</mask>
<g mask="url(#mask38_2_2451)">
<path d="M194.083 235.781H212.461V253.243H194.083V235.781Z" fill="#DCDCDC"/>
</g>
</g>
<path d="M141.671 261.799L209.383 261.799" stroke="#0B3322" stroke-linecap="round"/>
<path d="M105.959 270.35H209.383" stroke="#0B3322" stroke-linecap="round"/>
<mask id="mask39_2_2451" style="mask-type:luminance" maskUnits="userSpaceOnUse" x="60" y="238" width="37" height="37">
<path d="M60.1802 238.528H96.464V274.746H60.1802V238.528Z" fill="white"/>
</mask>
<g mask="url(#mask39_2_2451)">
<path d="M96.6046 256.707C96.6046 266.747 88.45 274.887 78.3924 274.887C68.3347 274.887 60.1802 266.747 60.1802 256.707C60.1802 246.668 68.3347 238.528 78.3924 238.528C88.45 238.528 96.6046 246.668 96.6046 256.707Z" fill="#7C9986"/>
</g>
<path d="M84.8598 250.963C84.8598 254.542 81.9525 257.439 78.3673 257.439C74.7821 257.439 71.8747 254.542 71.8747 250.963C71.8747 247.379 74.7821 244.482 78.3673 244.482C81.9525 244.482 84.8598 247.379 84.8598 250.963Z" fill="#F1F1E5"/>
<path d="M78.3673 274.025C82.9617 274.025 87.1595 272.325 90.3631 269.524C89.3689 263.038 86.4415 258.542 78.3673 258.542C70.524 258.542 67.4861 263.058 66.4216 269.564C69.6202 272.34 73.7979 274.025 78.3673 274.025Z" fill="#F1F1E5"/>
<mask id="mask40_2_2451" style="mask-type:luminance" maskUnits="userSpaceOnUse" x="247" y="227" width="59" height="53">
<path d="M247.459 227.571H305.872V279.693H247.459V227.571Z" fill="white"/>
</mask>
<g mask="url(#mask40_2_2451)">
<path d="M298.646 264.747H298.51V264.426C298.51 263.037 297.531 261.875 296.226 261.579V255.644C297.531 255.354 298.51 254.191 298.51 252.797V251.83C298.51 251.469 298.219 251.178 297.858 251.178H296.959C297.185 250.797 297.32 250.356 297.32 249.88C297.32 248.447 296.155 247.284 294.719 247.284H293.971V239.986L297.446 239.009L300.097 239.755C300.8 239.951 301.292 240.598 301.292 241.324V243.59C299.982 243.645 298.932 244.718 298.932 246.041C298.932 247.399 300.037 248.502 301.398 248.502H302.487C303.848 248.502 304.953 247.399 304.953 246.041C304.953 244.718 303.903 243.645 302.598 243.59V241.324C302.598 240.016 301.714 238.853 300.454 238.497L299.851 238.332L305.048 236.868C305.329 236.788 305.52 236.533 305.52 236.242C305.52 235.951 305.329 235.696 305.048 235.615L276.653 227.631C276.537 227.596 276.417 227.596 276.301 227.631L247.911 235.615C247.63 235.696 247.434 235.951 247.434 236.242C247.434 236.533 247.63 236.793 247.911 236.868L258.988 239.986V247.284H258.24C256.804 247.284 255.634 248.447 255.634 249.88C255.634 250.361 255.774 250.812 256.005 251.198C252.094 251.419 248.975 254.652 248.975 258.612C248.975 262.712 252.315 266.05 256.422 266.05H256.563V266.366C256.563 267.759 257.542 268.917 258.842 269.212V275.147C257.542 275.443 256.563 276.606 256.563 277.994V278.961C256.563 279.322 256.854 279.613 257.215 279.613H298.646C302.753 279.613 306.093 276.28 306.093 272.18C306.093 268.08 302.753 264.747 298.646 264.747ZM303.647 246.041C303.647 246.677 303.13 247.199 302.487 247.199H301.398C300.76 247.199 300.238 246.677 300.238 246.041C300.238 245.399 300.76 244.883 301.398 244.883H302.487C303.13 244.883 303.647 245.399 303.647 246.041ZM256.422 261.504C254.825 261.504 253.525 260.205 253.525 258.612C253.525 257.018 254.825 255.724 256.422 255.724H294.92V261.504H256.422ZM276.477 228.934L302.462 236.242L297.446 237.655L283.989 233.871C283.642 233.771 283.281 233.971 283.18 234.317C283.085 234.663 283.286 235.024 283.632 235.124L295.041 238.332L276.477 243.55L250.492 236.242L276.477 228.934ZM260.293 240.352L276.301 244.858C276.356 244.873 276.417 244.883 276.477 244.883C276.537 244.883 276.597 244.873 276.653 244.858L292.666 240.352V247.284H260.288V240.352H260.293ZM258.24 248.587H294.719C295.432 248.587 296.015 249.168 296.015 249.88C296.015 250.597 295.432 251.178 294.719 251.178H258.24C257.522 251.178 256.939 250.597 256.939 249.88C256.939 249.168 257.522 248.587 258.24 248.587ZM250.281 258.612C250.281 255.233 253.038 252.482 256.422 252.482H297.205V252.797C297.205 253.695 296.477 254.421 295.583 254.421H256.422C254.107 254.421 252.224 256.301 252.224 258.612C252.224 260.927 254.107 262.807 256.422 262.807H295.578C296.477 262.807 297.205 263.534 297.205 264.426V264.747H256.422C253.038 264.747 250.281 261.995 250.281 258.612ZM298.646 269.288C300.243 269.288 301.543 270.586 301.543 272.18C301.543 273.774 300.243 275.072 298.646 275.072H260.148V269.288H298.646ZM298.646 278.315H257.863V277.994C257.863 277.102 258.591 276.375 259.49 276.375H298.646C300.961 276.375 302.849 274.495 302.849 272.18C302.849 269.869 300.961 267.989 298.646 267.989H259.49C258.591 267.989 257.863 267.258 257.863 266.366V266.05H298.646C302.03 266.05 304.787 268.801 304.787 272.18C304.787 275.563 302.03 278.315 298.646 278.315Z" fill="#0B3322"/>
</g>
<path d="M262.212 273.694H272.078C272.435 273.694 272.731 273.403 272.731 273.042C272.731 272.681 272.435 272.391 272.078 272.391H262.212C261.85 272.391 261.559 272.681 261.559 273.042C261.559 273.403 261.85 273.694 262.212 273.694Z" fill="#0B3322"/>
<path d="M270.979 271.634H280.846C281.207 271.634 281.499 271.343 281.499 270.982C281.499 270.626 281.207 270.331 280.846 270.331H270.979C270.617 270.331 270.326 270.626 270.326 270.982C270.326 271.343 270.617 271.634 270.979 271.634Z" fill="#0B3322"/>
<path d="M282.995 271.634H287.142C287.504 271.634 287.795 271.343 287.795 270.982C287.795 270.626 287.504 270.331 287.142 270.331H282.995C282.633 270.331 282.342 270.626 282.342 270.982C282.342 271.343 282.633 271.634 282.995 271.634Z" fill="#0B3322"/>
<path d="M292.882 258.993H283.015C282.653 258.993 282.362 259.284 282.362 259.644C282.362 260.005 282.653 260.296 283.015 260.296H292.882C293.243 260.296 293.534 260.005 293.534 259.644C293.534 259.284 293.243 258.993 292.882 258.993Z" fill="#0B3322"/>
<path d="M284.767 257.584C284.767 257.223 284.476 256.933 284.115 256.933H274.248C273.891 256.933 273.595 257.223 273.595 257.584C273.595 257.945 273.891 258.236 274.248 258.236H284.115C284.476 258.236 284.767 257.945 284.767 257.584Z" fill="#0B3322"/>
<path d="M272.099 256.933H267.951C267.59 256.933 267.298 257.223 267.298 257.584C267.298 257.945 267.59 258.236 267.951 258.236H272.099C272.455 258.236 272.751 257.945 272.751 257.584C272.751 257.223 272.455 256.933 272.099 256.933Z" fill="#0B3322"/>
<mask id="mask41_2_2451" style="mask-type:luminance" maskUnits="userSpaceOnUse" x="123" y="179" width="43" height="43">
<path d="M123.594 179.96H165.19V221.481H123.594V179.96Z" fill="white"/>
</mask>
<g mask="url(#mask41_2_2451)">
<path fill-rule="evenodd" clip-rule="evenodd" d="M152.808 181.554C155.349 182.596 157.583 184.105 159.461 185.979C161.344 187.859 162.85 190.089 163.895 192.621C164.924 195.137 165.492 197.914 165.492 200.871C165.492 203.828 164.924 206.61 163.895 209.121C162.85 211.657 161.344 213.888 159.461 215.762C157.583 217.642 155.349 219.145 152.808 220.188C150.292 221.216 147.505 221.782 144.543 221.782C141.58 221.782 138.798 221.216 136.278 220.188C133.742 219.145 131.508 217.642 129.625 215.762C127.747 213.888 126.235 211.657 125.191 209.121C124.161 206.61 123.594 203.828 123.594 200.871C123.594 197.914 124.161 195.137 125.191 192.621C126.235 190.089 127.747 187.859 129.625 185.979C131.508 184.105 133.742 182.596 136.278 181.554C138.798 180.526 141.58 179.96 144.543 179.96C147.505 179.96 150.292 180.526 152.808 181.554ZM152.311 218.93C154.656 217.978 156.765 216.559 158.522 214.825C160.259 213.071 161.68 210.965 162.634 208.625C163.614 206.254 164.146 203.653 164.146 200.871C164.146 198.094 163.614 195.488 162.634 193.117C161.68 190.781 160.259 188.671 158.522 186.917C156.765 185.182 154.656 183.769 152.311 182.812C149.936 181.839 147.33 181.308 144.543 181.308C141.756 181.308 139.15 181.839 136.775 182.812C134.43 183.769 132.321 185.182 130.564 186.917C128.826 188.671 127.41 190.781 126.451 193.117C125.472 195.488 124.945 198.094 124.945 200.871C124.945 203.653 125.472 206.254 126.451 208.625C127.41 210.965 128.826 213.071 130.564 214.825C132.321 216.559 134.43 217.978 136.775 218.93C139.15 219.907 141.756 220.439 144.543 220.439C147.33 220.439 149.936 219.907 152.311 218.93Z" fill="#F6CB5A"/>
</g>
<path fill-rule="evenodd" clip-rule="evenodd" d="M141.033 192.41C140.998 192.41 140.963 192.425 140.923 192.445C140.837 192.48 140.767 192.53 140.697 192.585C140.641 192.655 140.586 192.726 140.551 192.816C140.536 192.851 140.516 192.886 140.516 192.921C140.501 192.956 140.501 192.976 140.501 193.011V193.698H148.48V193.011C148.48 192.976 148.48 192.956 148.465 192.921C148.465 192.886 148.444 192.851 148.429 192.816C148.394 192.746 148.339 192.655 148.269 192.6C148.198 192.53 148.128 192.48 148.038 192.445C148.003 192.425 147.967 192.41 147.932 192.41C147.897 192.39 147.877 192.39 147.842 192.39H141.118C141.083 192.39 141.068 192.39 141.033 192.41ZM139.15 193.011C139.15 192.866 139.17 192.746 139.205 192.62C139.22 192.495 139.276 192.37 139.331 192.249C139.416 192.019 139.577 191.823 139.753 191.648C139.933 191.468 140.124 191.312 140.355 191.222C140.481 191.167 140.606 191.117 140.732 191.097C140.852 191.062 140.978 191.046 141.118 191.046H147.842C147.982 191.046 148.108 191.062 148.234 191.097C148.359 191.117 148.48 191.167 148.605 191.222C148.836 191.312 149.032 191.468 149.208 191.648C149.403 191.803 149.544 192.019 149.655 192.249C149.705 192.355 149.76 192.48 149.775 192.6C149.81 192.746 149.83 192.866 149.83 193.011V193.698H154.726C155.755 193.698 156.8 194.725 156.8 195.753V197.613L146.034 201.136C145.964 201.101 145.894 201.086 145.838 201.066C145.768 201.046 145.678 201.046 145.607 201.046H143.373C143.303 201.046 143.212 201.046 143.142 201.066C143.087 201.086 143.016 201.101 142.966 201.121L132.196 197.613V195.753C132.196 194.725 133.225 193.698 134.254 193.698H139.15V193.011ZM143.353 201.953H145.627C145.643 201.953 145.663 201.953 145.678 201.953C145.698 201.968 145.733 201.988 145.748 202.023C145.783 202.038 145.803 202.073 145.818 202.093C145.818 202.109 145.818 202.109 145.818 202.129L145.838 202.149V202.905L145.818 202.926C145.818 202.941 145.818 202.961 145.818 202.961C145.803 202.996 145.783 203.031 145.748 203.051C145.733 203.086 145.698 203.101 145.663 203.121C145.663 203.121 145.643 203.121 145.627 203.121L145.607 203.136H143.373L143.353 203.121C143.338 203.121 143.318 203.121 143.318 203.121C143.283 203.101 143.247 203.086 143.232 203.051C143.197 203.031 143.177 202.996 143.162 202.961C143.162 202.961 143.162 202.941 143.162 202.926V202.129C143.162 202.109 143.162 202.109 143.162 202.093C143.177 202.073 143.197 202.038 143.232 202.023C143.247 201.988 143.283 201.968 143.303 201.953C143.318 201.953 143.338 201.953 143.353 201.953ZM146.707 201.918C146.707 201.898 146.692 201.883 146.692 201.863L156.8 198.55V207.868C156.8 208.89 155.755 209.938 154.726 209.938H134.254C133.225 209.938 132.196 208.89 132.196 207.868V198.55L142.288 201.863C142.288 201.883 142.273 201.898 142.273 201.918C142.253 201.988 142.253 202.073 142.253 202.149V202.905C142.253 202.981 142.253 203.066 142.273 203.136C142.288 203.206 142.308 203.281 142.344 203.352C142.399 203.472 142.484 203.582 142.595 203.687C142.7 203.793 142.806 203.883 142.931 203.933C143.001 203.968 143.072 203.988 143.142 204.003C143.212 204.023 143.303 204.043 143.373 204.043H145.607C145.678 204.043 145.768 204.023 145.838 204.003C145.909 203.988 145.979 203.968 146.049 203.933C146.175 203.883 146.28 203.793 146.391 203.687C146.496 203.582 146.582 203.472 146.637 203.352C146.672 203.281 146.692 203.206 146.707 203.136C146.727 203.066 146.742 202.981 146.742 202.905V202.149C146.742 202.073 146.727 201.988 146.707 201.918Z" fill="#F6CB5A"/>
<defs>
<linearGradient id="paint0_linear_2_2451" x1="126.926" y1="19.9989" x2="126.926" y2="219.637" gradientUnits="userSpaceOnUse">
<stop offset="0.025" stop-color="#FFB901"/>
<stop offset="1" stop-color="#F0D795"/>
</linearGradient>
</defs>
</svg>
