<svg width="401" height="348" viewBox="0 0 401 348" fill="none" xmlns="http://www.w3.org/2000/svg">
<mask id="mask0_2_2439" style="mask-type:luminance" maskUnits="userSpaceOnUse" x="3" y="0" width="356" height="342">
<path d="M3.28687 0H358.27V341.554H3.28687V0Z" fill="white"/>
</mask>
<g mask="url(#mask0_2_2439)">
<mask id="mask1_2_2439" style="mask-type:luminance" maskUnits="userSpaceOnUse" x="-9" y="-22" width="378" height="379">
<path d="M12.6381 -21.821L368.538 2.64996L347.507 356.143L-8.39282 331.672L12.6381 -21.821Z" fill="white"/>
</mask>
<g mask="url(#mask1_2_2439)">
<mask id="mask2_2_2439" style="mask-type:luminance" maskUnits="userSpaceOnUse" x="-9" y="-22" width="378" height="379">
<path d="M12.6381 -21.821L368.538 2.64996L347.507 356.143L-8.39282 331.672L12.6381 -21.821Z" fill="white"/>
</mask>
<g mask="url(#mask2_2_2439)">
<path d="M301.709 310.5C324.862 301.133 343.064 274.509 337.809 248.57C336.05 240.063 332.108 232.279 329.45 224.048C324.571 208.691 324.456 191.632 329.27 176.266C337.689 149.039 360.855 125.663 357.705 97.1662C356.323 84.4223 349.578 72.9943 341.986 63.0706C307.889 18.3704 251.524 -5.39668 198.313 2.44748C182.76 4.69261 167.1 9.77176 154.95 20.3717C134.103 38.6272 126.267 70.9056 103.729 86.8101C80.4729 103.207 47.5612 97.8333 25.6315 116.287C3.76173 134.74 1.57047 169.503 5.59776 199.14C7.44236 212.528 10.2199 226.183 17.2945 237.363C37.0201 268.689 80.5071 269.784 106.627 295.193C114.78 303.129 120.917 313.159 129.001 321.159C144.148 336.337 165.936 343.519 186.406 340.123C207.318 336.691 217.919 316.108 236.146 311.273C244.967 308.968 255.859 314.18 264.62 315.054C277.13 316.388 289.845 315.303 301.709 310.5Z" fill="white" fill-opacity="0.6"/>
</g>
</g>
</g>
<mask id="mask3_2_2439" style="mask-type:luminance" maskUnits="userSpaceOnUse" x="48" y="82" width="277" height="170">
<path d="M48.8923 82.2974H324.991V251.897H48.8923V82.2974Z" fill="white"/>
</mask>
<g mask="url(#mask3_2_2439)">
<path d="M48.8923 82.2974H324.991V251.897H48.8923V82.2974Z" fill="#7C9986"/>
</g>
<mask id="mask4_2_2439" style="mask-type:luminance" maskUnits="userSpaceOnUse" x="48" y="82" width="277" height="19">
<path d="M48.8923 82.2974H324.991V100.318H48.8923V82.2974Z" fill="white"/>
</mask>
<g mask="url(#mask4_2_2439)">
<path d="M48.8923 82.2974H324.961V100.318H48.8923V82.2974Z" fill="#0B3322"/>
</g>
<mask id="mask5_2_2439" style="mask-type:luminance" maskUnits="userSpaceOnUse" x="123" y="86" width="128" height="10">
<path d="M123.399 86.8147H250.514V95.7998H123.399V86.8147Z" fill="white"/>
</mask>
<g mask="url(#mask5_2_2439)">
<mask id="mask6_2_2439" style="mask-type:luminance" maskUnits="userSpaceOnUse" x="123" y="86" width="128" height="10">
<path d="M127.581 86.8147H246.302C248.613 86.8147 250.484 88.8252 250.484 91.305C250.484 93.7893 248.613 95.7998 246.302 95.7998H127.581C125.27 95.7998 123.399 93.7893 123.399 91.305C123.399 88.8252 125.27 86.8147 127.581 86.8147Z" fill="white"/>
</mask>
<g mask="url(#mask6_2_2439)">
<path d="M123.399 86.8147H250.479V95.7998H123.399V86.8147Z" fill="#F1F1E5"/>
</g>
</g>
<mask id="mask7_2_2439" style="mask-type:luminance" maskUnits="userSpaceOnUse" x="57" y="88" width="6" height="6">
<path d="M57.9141 88.7053H62.7502V93.9041H57.9141V88.7053Z" fill="white"/>
</mask>
<g mask="url(#mask7_2_2439)">
<mask id="mask8_2_2439" style="mask-type:luminance" maskUnits="userSpaceOnUse" x="57" y="88" width="6" height="6">
<path d="M60.3321 88.7053C58.9969 88.7053 57.9141 89.8693 57.9141 91.3047C57.9141 92.7401 58.9969 93.9041 60.3321 93.9041C61.6674 93.9041 62.7502 92.7401 62.7502 91.3047C62.7502 89.8693 61.6674 88.7053 60.3321 88.7053Z" fill="white"/>
</mask>
<g mask="url(#mask8_2_2439)">
<path d="M57.9141 88.7053H62.7502V93.9041H57.9141V88.7053Z" fill="#FF2E00"/>
</g>
</g>
<mask id="mask9_2_2439" style="mask-type:luminance" maskUnits="userSpaceOnUse" x="65" y="88" width="6" height="6">
<path d="M65.802 88.7053H70.6382V93.9041H65.802V88.7053Z" fill="white"/>
</mask>
<g mask="url(#mask9_2_2439)">
<mask id="mask10_2_2439" style="mask-type:luminance" maskUnits="userSpaceOnUse" x="65" y="88" width="6" height="6">
<path d="M68.2201 88.7053C66.8848 88.7053 65.802 89.8693 65.802 91.3047C65.802 92.7401 66.8848 93.9041 68.2201 93.9041C69.5554 93.9041 70.6382 92.7401 70.6382 91.3047C70.6382 89.8693 69.5554 88.7053 68.2201 88.7053Z" fill="white"/>
</mask>
<g mask="url(#mask10_2_2439)">
<path d="M65.802 88.7053H70.6382V93.9041H65.802V88.7053Z" fill="#FFF790"/>
</g>
</g>
<mask id="mask11_2_2439" style="mask-type:luminance" maskUnits="userSpaceOnUse" x="73" y="88" width="6" height="6">
<path d="M73.6895 88.7053H78.5256V93.9041H73.6895V88.7053Z" fill="white"/>
</mask>
<g mask="url(#mask11_2_2439)">
<mask id="mask12_2_2439" style="mask-type:luminance" maskUnits="userSpaceOnUse" x="73" y="88" width="6" height="6">
<path d="M76.1075 88.7053C74.7722 88.7053 73.6895 89.8693 73.6895 91.3047C73.6895 92.7401 74.7722 93.9041 76.1075 93.9041C77.4428 93.9041 78.5256 92.7401 78.5256 91.3047C78.5256 89.8693 77.4428 88.7053 76.1075 88.7053Z" fill="white"/>
</mask>
<g mask="url(#mask12_2_2439)">
<path d="M73.6895 88.7053H78.5256V93.9041H73.6895V88.7053Z" fill="#8CE497"/>
</g>
</g>
<mask id="mask13_2_2439" style="mask-type:luminance" maskUnits="userSpaceOnUse" x="225" y="141" width="176" height="52">
<path d="M225.404 141.333H401V192.985H225.404V141.333Z" fill="white"/>
</mask>
<g mask="url(#mask13_2_2439)">
<path d="M370.099 193.004C351.654 193.004 325.619 191.817 307.653 191.817C294.069 191.817 262.017 193.317 249.084 189.967C248.005 189.691 246.726 181.893 246.298 173.718C238.431 172.77 227.676 173.483 225.665 174.997C227.128 169.941 237.537 162.777 245.814 157.717C246.345 149.656 248.365 141.766 251.827 141.564C263.781 140.864 377.645 142.783 387.112 142.926C391.721 142.995 398.273 144.361 400.011 153.576C400.846 157.997 400.991 186.963 396.788 189.811C393.155 192.277 382.721 193.009 370.099 193.004Z" fill="#0B3322"/>
</g>
<path d="M368.401 190.864C350.006 190.864 325.44 189.304 307.525 189.304C293.975 189.304 263.413 190.588 250.514 187.253C249.44 186.972 248.305 180.158 247.882 172.006C240.007 171.486 230.698 171.247 228.695 172.756C230.125 170 239.652 163.757 247.907 158.71C248.438 150.673 250.06 144.02 253.514 143.818C265.433 143.123 375.664 145.046 385.105 145.189C389.706 145.258 395.804 146.624 397.538 155.812C398.372 160.224 398.779 184.837 394.589 187.68C390.964 190.137 380.992 190.869 368.401 190.864Z" fill="#F1F1E5"/>
<path d="M228.695 172.756C230.125 170 239.656 163.757 247.907 158.71C248.438 150.673 250.06 144.02 253.514 143.818C265.433 143.123 375.664 145.046 385.105 145.189C389.701 145.258 395.804 146.624 397.538 155.812C397.957 158.038 398.27 165.409 397.936 172.526C397.521 163.453 393.035 153.254 388.773 151.091C384.377 148.855 353.43 149.458 353.43 149.458C353.43 149.458 257.528 146.817 254.704 148.763C251.879 150.705 251.087 160.619 251.087 160.619C251.087 160.619 246.906 163.173 242.947 164.507C240.418 165.363 233.908 169.581 229.093 172.521C228.939 172.595 228.807 172.673 228.695 172.756Z" fill="#E8E8E8"/>
<mask id="mask14_2_2439" style="mask-type:luminance" maskUnits="userSpaceOnUse" x="0" y="112" width="176" height="53">
<path d="M0 112.242H175.168V164.027H0V112.242Z" fill="white"/>
</mask>
<g mask="url(#mask14_2_2439)">
<path d="M30.4726 164.05C48.9185 164.05 74.9525 162.864 92.9191 162.864C106.503 162.864 138.555 164.359 151.488 161.014C152.567 160.733 153.846 152.935 154.274 144.76C162.141 143.817 172.896 144.53 174.907 146.043C173.444 140.983 163.035 133.819 154.758 128.763C154.227 120.703 152.207 112.808 148.745 112.606C136.791 111.911 22.9273 113.825 13.4604 113.968C8.85102 114.037 2.29865 115.408 0.561049 124.623C-0.273512 129.044 -0.419025 158.005 3.78374 160.853C7.41729 163.319 17.8514 164.05 30.4726 164.05Z" fill="#0B3322"/>
</g>
<path d="M32.171 161.912C50.5656 161.912 75.1317 160.352 93.0469 160.352C106.597 160.352 137.159 161.631 150.058 158.296C151.132 158.02 152.266 151.201 152.69 143.049C160.565 142.529 169.874 142.29 171.877 143.799C170.447 141.043 160.92 134.8 152.665 129.758C152.134 121.716 150.512 115.063 147.058 114.861C135.139 114.166 24.9082 116.094 15.467 116.232C10.8662 116.301 4.76749 117.667 3.03417 126.859C2.19961 131.271 1.79303 155.885 5.98295 158.724C9.60794 161.18 19.5799 161.912 32.171 161.912Z" fill="#F1F1E5"/>
<path d="M171.877 143.799C170.447 141.043 160.916 134.8 152.665 129.758C152.134 121.716 150.512 115.063 147.058 114.861C135.139 114.166 24.9082 116.094 15.467 116.232C10.8705 116.301 4.7675 117.667 3.03419 126.859C2.61477 129.086 2.30234 136.452 2.63616 143.574C3.05131 134.501 7.53654 124.301 11.7992 122.134C16.1946 119.903 47.1418 120.501 47.1418 120.501C47.1418 120.501 143.044 117.865 145.868 119.806C148.693 121.753 149.485 131.667 149.485 131.667C149.485 131.667 153.666 134.216 157.625 135.555C160.154 136.406 166.664 140.629 171.479 143.564C171.633 143.638 171.765 143.716 171.877 143.799Z" fill="#E8E8E8"/>
<mask id="mask15_2_2439" style="mask-type:luminance" maskUnits="userSpaceOnUse" x="29" y="188" width="152" height="46">
<path d="M29.8901 188.444H180.047V233.199H29.8901V188.444Z" fill="white"/>
</mask>
<g mask="url(#mask15_2_2439)">
<path d="M56.4847 188.477C72.2386 188.477 94.4722 189.489 109.811 189.489C121.414 189.489 148.783 188.21 159.829 191.067C160.749 191.306 161.841 197.968 162.204 204.947C168.924 205.757 178.108 205.145 179.829 203.852C178.575 208.172 169.69 214.291 162.619 218.611C162.166 225.494 160.441 232.229 157.484 232.404C147.276 233.002 50.0436 231.364 41.9591 231.24C38.0216 231.185 32.4279 230.011 30.9429 222.144C30.2324 218.367 30.1083 193.634 33.6948 191.205C36.7976 189.098 45.7082 188.477 56.4847 188.477Z" fill="#0B3322"/>
</g>
<path d="M57.9356 190.302C73.6467 190.302 94.622 191.632 109.922 191.632C121.495 191.632 147.593 190.537 158.609 193.389C159.525 193.624 160.492 199.448 160.856 206.409C167.58 206.851 175.527 207.058 177.239 205.765C176.015 208.121 167.879 213.453 160.83 217.759C160.377 224.623 158.994 230.305 156.046 230.48C145.864 231.073 51.7341 229.426 43.6753 229.307C39.7464 229.247 34.5336 228.083 33.0528 220.234C32.3424 216.466 31.9957 195.45 35.5736 193.021C38.6722 190.923 47.1847 190.302 57.9356 190.302Z" fill="#F1F1E5"/>
<path d="M177.239 205.766C176.015 208.121 167.879 213.453 160.831 217.76C160.377 224.624 158.995 230.306 156.046 230.48C145.864 231.074 51.7342 229.427 43.6754 229.307C39.7465 229.247 34.538 228.084 33.0572 220.235C32.6977 218.335 32.4323 212.041 32.7148 205.963C33.07 213.711 36.9004 222.42 40.5383 224.27C44.2917 226.174 70.7194 225.664 70.7194 225.664C70.7194 225.664 152.618 227.918 155.031 226.257C157.441 224.596 158.117 216.131 158.117 216.131C158.117 216.131 161.691 213.95 165.068 212.809C167.229 212.082 172.784 208.475 176.897 205.968C177.03 205.908 177.145 205.839 177.239 205.766Z" fill="#E8E8E8"/>
<mask id="mask16_2_2439" style="mask-type:luminance" maskUnits="userSpaceOnUse" x="97" y="30" width="27" height="29">
<path d="M97.7932 30.9207H123.399V58.4465H97.7932V30.9207Z" fill="white"/>
</mask>
<g mask="url(#mask16_2_2439)">
<mask id="mask17_2_2439" style="mask-type:luminance" maskUnits="userSpaceOnUse" x="97" y="30" width="27" height="29">
<path d="M110.598 30.9207C103.524 30.9207 97.7932 37.081 97.7932 44.6813C97.7932 52.2862 103.524 58.4465 110.598 58.4465C117.669 58.4465 123.399 52.2862 123.399 44.6813C123.399 37.081 117.669 30.9207 110.598 30.9207Z" fill="white"/>
</mask>
<g mask="url(#mask17_2_2439)">
<path d="M97.7932 30.9207H123.399V58.4465H97.7932V30.9207Z" fill="white" fill-opacity="0.6"/>
</g>
</g>
<mask id="mask18_2_2439" style="mask-type:luminance" maskUnits="userSpaceOnUse" x="232" y="329" width="19" height="19">
<path d="M232.817 329.013H250.484V348H232.817V329.013Z" fill="white"/>
</mask>
<g mask="url(#mask18_2_2439)">
<mask id="mask19_2_2439" style="mask-type:luminance" maskUnits="userSpaceOnUse" x="232" y="329" width="19" height="19">
<path d="M241.65 329.013C236.771 329.013 232.817 333.264 232.817 338.509C232.817 343.749 236.771 348 241.65 348C246.529 348 250.484 343.749 250.484 338.509C250.484 333.264 246.529 329.013 241.65 329.013Z" fill="white"/>
</mask>
<g mask="url(#mask19_2_2439)">
<path d="M232.817 329.013H250.484V348H232.817V329.013Z" fill="white" fill-opacity="0.6"/>
</g>
</g>
<mask id="mask20_2_2439" style="mask-type:luminance" maskUnits="userSpaceOnUse" x="357" y="201" width="19" height="20">
<path d="M357.719 201.114H375.381V220.101H357.719V201.114Z" fill="white"/>
</mask>
<g mask="url(#mask20_2_2439)">
<mask id="mask21_2_2439" style="mask-type:luminance" maskUnits="userSpaceOnUse" x="357" y="201" width="19" height="20">
<path d="M366.548 201.114C361.673 201.114 357.719 205.365 357.719 210.61C357.719 215.85 361.673 220.101 366.548 220.101C371.427 220.101 375.381 215.85 375.381 210.61C375.381 205.365 371.427 201.114 366.548 201.114Z" fill="white"/>
</mask>
<g mask="url(#mask21_2_2439)">
<path d="M357.719 201.114H375.381V220.101H357.719V201.114Z" fill="white" fill-opacity="0.6"/>
</g>
</g>
<mask id="mask22_2_2439" style="mask-type:luminance" maskUnits="userSpaceOnUse" x="348" y="220" width="10" height="10">
<path d="M348.885 220.101H357.718V229.597H348.885V220.101Z" fill="white"/>
</mask>
<g mask="url(#mask22_2_2439)">
<mask id="mask23_2_2439" style="mask-type:luminance" maskUnits="userSpaceOnUse" x="348" y="220" width="10" height="10">
<path d="M353.302 220.101C350.862 220.101 348.885 222.226 348.885 224.849C348.885 227.471 350.862 229.597 353.302 229.597C355.741 229.597 357.718 227.471 357.718 224.849C357.718 222.226 355.741 220.101 353.302 220.101Z" fill="white"/>
</mask>
<g mask="url(#mask23_2_2439)">
<path d="M348.885 220.101H357.718V229.597H348.885V220.101Z" fill="white" fill-opacity="0.6"/>
</g>
</g>
<mask id="mask24_2_2439" style="mask-type:luminance" maskUnits="userSpaceOnUse" x="312" y="150" width="15" height="15">
<path d="M312.173 150.139H326.497V164.272H312.173V150.139Z" fill="white"/>
</mask>
<g mask="url(#mask24_2_2439)">
<path d="M319.064 150.134L320.699 155.535H325.95L321.692 158.87L323.322 164.267L319.064 160.932L314.806 164.267L316.436 158.87L312.178 155.535H317.433L319.064 150.134Z" fill="#FFB901"/>
</g>
<mask id="mask25_2_2439" style="mask-type:luminance" maskUnits="userSpaceOnUse" x="327" y="150" width="16" height="15">
<path d="M327.593 150.139H342.932V164.272H327.593V150.139Z" fill="white"/>
</mask>
<g mask="url(#mask25_2_2439)">
<path d="M335.143 150.134L336.756 155.535H342.029L337.77 158.871L339.401 164.267L335.143 160.932L330.884 164.267L332.498 158.871L328.239 155.535H333.512L335.143 150.134Z" fill="#FFB901"/>
</g>
<mask id="mask26_2_2439" style="mask-type:luminance" maskUnits="userSpaceOnUse" x="344" y="150" width="15" height="15">
<path d="M344.027 150.139H358.271V164.272H344.027V150.139Z" fill="white"/>
</mask>
<g mask="url(#mask26_2_2439)">
<path d="M351.2 150.134L352.835 155.535H358.086L353.828 158.871L355.458 164.267L351.2 160.932L346.942 164.267L348.577 158.871L344.318 155.535H349.569L351.2 150.134Z" fill="#FFB901"/>
</g>
<mask id="mask27_2_2439" style="mask-type:luminance" maskUnits="userSpaceOnUse" x="359" y="150" width="16" height="15">
<path d="M359.366 150.139H374.705V164.272H359.366V150.139Z" fill="white"/>
</mask>
<g mask="url(#mask27_2_2439)">
<path d="M367.279 150.134L368.893 155.535H374.165L369.907 158.871L371.538 164.267L367.279 160.932L363.021 164.267L364.634 158.871L360.376 155.535H365.649L367.279 150.134Z" fill="#FFB901"/>
</g>
<mask id="mask28_2_2439" style="mask-type:luminance" maskUnits="userSpaceOnUse" x="375" y="150" width="16" height="15">
<path d="M375.801 150.139H390.236V164.272H375.801V150.139Z" fill="white"/>
</mask>
<g mask="url(#mask28_2_2439)">
<path d="M383.342 150.134L384.972 155.535H390.223L385.965 158.871L387.6 164.267L383.342 160.932L379.083 164.267L380.714 158.871L376.455 155.535H381.707L383.342 150.134Z" fill="#FFB901"/>
</g>
<mask id="mask29_2_2439" style="mask-type:luminance" maskUnits="userSpaceOnUse" x="382" y="150" width="9" height="15">
<path d="M382.374 150.139H390.236V164.272H382.374V150.139Z" fill="white"/>
</mask>
<g mask="url(#mask29_2_2439)">
<path d="M387.6 164.267L385.965 158.871L390.223 155.535H384.972L383.342 150.134V160.932L387.6 164.267Z" fill="#DCDCDC"/>
</g>
<mask id="mask30_2_2439" style="mask-type:luminance" maskUnits="userSpaceOnUse" x="68" y="120" width="15" height="15">
<path d="M68.22 120.11H82.3134V134.528H68.22V120.11Z" fill="white"/>
</mask>
<g mask="url(#mask30_2_2439)">
<mask id="mask31_2_2439" style="mask-type:luminance" maskUnits="userSpaceOnUse" x="68" y="120" width="15" height="15">
<path d="M75.256 120.11L76.9165 125.617H82.292L77.9437 129.021L79.6042 134.528L75.256 131.124L70.9077 134.528L72.5682 129.021L68.22 125.617H73.5954L75.256 120.11Z" fill="white"/>
</mask>
<g mask="url(#mask31_2_2439)">
<path d="M68.22 120.11H82.3134V134.528H68.22V120.11Z" fill="#FFB901"/>
</g>
</g>
<mask id="mask32_2_2439" style="mask-type:luminance" maskUnits="userSpaceOnUse" x="84" y="120" width="15" height="15">
<path d="M84.3247 120.11H98.4181V134.528H84.3247V120.11Z" fill="white"/>
</mask>
<g mask="url(#mask32_2_2439)">
<mask id="mask33_2_2439" style="mask-type:luminance" maskUnits="userSpaceOnUse" x="84" y="120" width="15" height="15">
<path d="M91.3607 120.11L93.0213 125.617H98.3967L94.0484 129.021L95.709 134.528L91.3607 131.124L87.0124 134.528L88.673 129.021L84.3247 125.617H89.7001L91.3607 120.11Z" fill="white"/>
</mask>
<g mask="url(#mask33_2_2439)">
<path d="M84.3247 120.11H98.4181V134.528H84.3247V120.11Z" fill="#FFB901"/>
</g>
</g>
<mask id="mask34_2_2439" style="mask-type:luminance" maskUnits="userSpaceOnUse" x="100" y="120" width="15" height="15">
<path d="M100.43 120.11H114.523V134.528H100.43V120.11Z" fill="white"/>
</mask>
<g mask="url(#mask34_2_2439)">
<mask id="mask35_2_2439" style="mask-type:luminance" maskUnits="userSpaceOnUse" x="100" y="120" width="15" height="15">
<path d="M107.466 120.11L109.126 125.617H114.502L110.153 129.021L111.814 134.528L107.466 131.124L103.117 134.528L104.778 129.021L100.43 125.617H105.805L107.466 120.11Z" fill="white"/>
</mask>
<g mask="url(#mask35_2_2439)">
<path d="M100.43 120.11H114.523V134.528H100.43V120.11Z" fill="#FFB901"/>
</g>
</g>
<mask id="mask36_2_2439" style="mask-type:luminance" maskUnits="userSpaceOnUse" x="116" y="120" width="15" height="15">
<path d="M116.539 120.11H130.628V134.528H116.539V120.11Z" fill="white"/>
</mask>
<g mask="url(#mask36_2_2439)">
<mask id="mask37_2_2439" style="mask-type:luminance" maskUnits="userSpaceOnUse" x="116" y="120" width="15" height="15">
<path d="M123.571 120.11L125.231 125.617H130.607L126.258 129.021L127.919 134.528L123.571 131.124L119.222 134.528L120.883 129.021L116.539 125.617H121.91L123.571 120.11Z" fill="white"/>
</mask>
<g mask="url(#mask37_2_2439)">
<path d="M116.539 120.11H130.628V134.528H116.539V120.11Z" fill="#FFB901"/>
</g>
</g>
<mask id="mask38_2_2439" style="mask-type:luminance" maskUnits="userSpaceOnUse" x="132" y="120" width="15" height="15">
<path d="M132.644 120.11H146.737V134.528H132.644V120.11Z" fill="white"/>
</mask>
<g mask="url(#mask38_2_2439)">
<mask id="mask39_2_2439" style="mask-type:luminance" maskUnits="userSpaceOnUse" x="132" y="120" width="15" height="15">
<path d="M139.68 120.11L141.34 125.617H146.712L142.368 129.021L144.028 134.528L139.68 131.124L135.332 134.528L136.992 129.021L132.644 125.617H138.019L139.68 120.11Z" fill="white"/>
</mask>
<g mask="url(#mask39_2_2439)">
<path d="M132.644 120.11H146.737V134.528H132.644V120.11Z" fill="#FFB901"/>
</g>
</g>
<mask id="mask40_2_2439" style="mask-type:luminance" maskUnits="userSpaceOnUse" x="78" y="193" width="15" height="15">
<path d="M78.5256 193.325H92.619V207.744H78.5256V193.325Z" fill="white"/>
</mask>
<g mask="url(#mask40_2_2439)">
<mask id="mask41_2_2439" style="mask-type:luminance" maskUnits="userSpaceOnUse" x="78" y="193" width="15" height="15">
<path d="M85.5616 193.325L87.2222 198.832H92.5976L88.2493 202.237L89.9099 207.744L85.5616 204.339L81.2133 207.744L82.8739 202.237L78.5256 198.832H83.9011L85.5616 193.325Z" fill="white"/>
</mask>
<g mask="url(#mask41_2_2439)">
<path d="M78.5256 193.325H92.619V207.744H78.5256V193.325Z" fill="#FFB901"/>
</g>
</g>
<mask id="mask42_2_2439" style="mask-type:luminance" maskUnits="userSpaceOnUse" x="94" y="193" width="15" height="15">
<path d="M94.6306 193.325H108.724V207.744H94.6306V193.325Z" fill="white"/>
</mask>
<g mask="url(#mask42_2_2439)">
<mask id="mask43_2_2439" style="mask-type:luminance" maskUnits="userSpaceOnUse" x="94" y="193" width="15" height="15">
<path d="M101.667 193.325L103.327 198.832H108.703L104.354 202.237L106.015 207.744L101.667 204.339L97.3183 207.744L98.9789 202.237L94.6306 198.832H100.006L101.667 193.325Z" fill="white"/>
</mask>
<g mask="url(#mask43_2_2439)">
<path d="M94.6306 193.325H108.724V207.744H94.6306V193.325Z" fill="#FFB901"/>
</g>
</g>
<mask id="mask44_2_2439" style="mask-type:luminance" maskUnits="userSpaceOnUse" x="110" y="193" width="15" height="15">
<path d="M110.736 193.325H124.829V207.744H110.736V193.325Z" fill="white"/>
</mask>
<g mask="url(#mask44_2_2439)">
<mask id="mask45_2_2439" style="mask-type:luminance" maskUnits="userSpaceOnUse" x="110" y="193" width="15" height="15">
<path d="M117.772 193.325L119.432 198.832H124.808L120.459 202.237L122.12 207.744L117.772 204.339L113.423 207.744L115.084 202.237L110.736 198.832H116.111L117.772 193.325Z" fill="white"/>
</mask>
<g mask="url(#mask45_2_2439)">
<path d="M110.736 193.325H124.829V207.744H110.736V193.325Z" fill="#DCDCDC"/>
</g>
</g>
<mask id="mask46_2_2439" style="mask-type:luminance" maskUnits="userSpaceOnUse" x="126" y="193" width="15" height="15">
<path d="M126.845 193.325H140.934V207.744H126.845V193.325Z" fill="white"/>
</mask>
<g mask="url(#mask46_2_2439)">
<mask id="mask47_2_2439" style="mask-type:luminance" maskUnits="userSpaceOnUse" x="126" y="193" width="15" height="15">
<path d="M133.881 193.325L135.541 198.832H140.912L136.564 202.237L138.229 207.744L133.881 204.339L129.532 207.744L131.193 202.237L126.845 198.832H132.216L133.881 193.325Z" fill="white"/>
</mask>
<g mask="url(#mask47_2_2439)">
<path d="M126.845 193.325H140.934V207.744H126.845V193.325Z" fill="#DCDCDC"/>
</g>
</g>
<mask id="mask48_2_2439" style="mask-type:luminance" maskUnits="userSpaceOnUse" x="142" y="193" width="16" height="15">
<path d="M142.949 193.325H157.043V207.744H142.949V193.325Z" fill="white"/>
</mask>
<g mask="url(#mask48_2_2439)">
<mask id="mask49_2_2439" style="mask-type:luminance" maskUnits="userSpaceOnUse" x="142" y="193" width="16" height="15">
<path d="M149.985 193.325L151.646 198.832H157.021L152.673 202.237L154.334 207.744L149.985 204.339L145.637 207.744L147.298 202.237L142.949 198.832H148.325L149.985 193.325Z" fill="white"/>
</mask>
<g mask="url(#mask49_2_2439)">
<path d="M142.949 193.325H157.043V207.744H142.949V193.325Z" fill="#DCDCDC"/>
</g>
</g>
<path d="M50.5359 140.869H145.072" stroke="#0B3322" stroke-linecap="round"/>
<path d="M80.1692 150.139H145.072" stroke="#0B3322" stroke-linecap="round"/>
<path d="M102.715 214.811L154.732 214.811" stroke="#0B3322" stroke-linecap="round"/>
<path d="M75.333 221.867H154.732" stroke="#0B3322" stroke-linecap="round"/>
<path d="M336.405 168.863H388.422" stroke="#0B3322" stroke-linecap="round"/>
<path d="M288.206 175.921H388.422" stroke="#0B3322" stroke-linecap="round"/>
<path d="M299.368 182.988L388.422 182.988" stroke="#0B3322" stroke-linecap="round"/>
<mask id="mask50_2_2439" style="mask-type:luminance" maskUnits="userSpaceOnUse" x="11" y="123" width="29" height="31">
<path d="M11.3884 123.127H39.327V153.161H11.3884V123.127Z" fill="white"/>
</mask>
<g mask="url(#mask50_2_2439)">
<path d="M39.3141 138.139C39.3141 146.43 33.0613 153.147 25.3534 153.147C17.6412 153.147 11.3884 146.43 11.3884 138.139C11.3884 129.849 17.6412 123.127 25.3534 123.127C33.0613 123.127 39.3141 129.849 39.3141 138.139Z" fill="#7C9986"/>
</g>
<path d="M30.3138 133.392C30.3138 136.35 28.0841 138.742 25.3321 138.742C22.5845 138.742 20.3547 136.35 20.3547 133.392C20.3547 130.438 22.5845 128.041 25.3321 128.041C28.0841 128.041 30.3138 130.438 30.3138 133.392Z" fill="#F1F1E5"/>
<path d="M25.3321 152.435C28.8544 152.435 32.0728 151.032 34.5294 148.722C33.7676 143.367 31.5207 139.654 25.3321 139.654C19.319 139.654 16.9908 143.385 16.1733 148.754C18.6257 151.045 21.827 152.435 25.3321 152.435Z" fill="#F1F1E5"/>
<mask id="mask51_2_2439" style="mask-type:luminance" maskUnits="userSpaceOnUse" x="40" y="195" width="29" height="31">
<path d="M40.2856 195.593H68.2242V225.626H40.2856V195.593Z" fill="white"/>
</mask>
<g mask="url(#mask51_2_2439)">
<path d="M68.2117 210.605C68.2117 218.896 61.9632 225.613 54.251 225.613C46.5388 225.613 40.2903 218.896 40.2903 210.605C40.2903 202.315 46.5388 195.593 54.251 195.593C61.9632 195.593 68.2117 202.315 68.2117 210.605Z" fill="#7C9986"/>
</g>
<path d="M59.2109 205.862C59.2109 208.816 56.9811 211.213 54.2335 211.213C51.4816 211.213 49.2561 208.816 49.2561 205.862C49.2561 202.904 51.4816 200.507 54.2335 200.507C56.9811 200.507 59.2109 202.904 59.2109 205.862Z" fill="#F1F1E5"/>
<path d="M54.2336 224.899C57.7559 224.899 60.9743 223.501 63.4266 221.187C62.6648 215.832 60.4222 212.119 54.2336 212.119C48.2162 212.119 45.8923 215.85 45.0706 221.219C47.5229 223.515 50.7285 224.899 54.2336 224.899Z" fill="#F1F1E5"/>
<mask id="mask52_2_2439" style="mask-type:luminance" maskUnits="userSpaceOnUse" x="254" y="152" width="29" height="31">
<path d="M254.524 152.085H282.462V182.118H254.524V152.085Z" fill="white"/>
</mask>
<g mask="url(#mask52_2_2439)">
<path d="M282.45 167.092C282.45 175.383 276.197 182.104 268.485 182.104C260.777 182.104 254.524 175.383 254.524 167.092C254.524 158.802 260.777 152.085 268.485 152.085C276.197 152.085 282.45 158.802 282.45 167.092Z" fill="#7C9986"/>
</g>
<path d="M273.445 162.348C273.445 165.302 271.219 167.699 268.467 167.699C265.72 167.699 263.49 165.302 263.49 162.348C263.49 159.395 265.72 156.998 268.467 156.998C271.219 156.998 273.445 159.395 273.445 162.348Z" fill="#F1F1E5"/>
<mask id="mask53_2_2439" style="mask-type:luminance" maskUnits="userSpaceOnUse" x="258" y="168" width="21" height="15">
<path d="M258.568 168.421H278.29V182.117H258.568V168.421Z" fill="white"/>
</mask>
<g mask="url(#mask53_2_2439)">
<path d="M268.467 181.391C271.99 181.391 275.208 179.987 277.665 177.673C276.903 172.323 274.656 168.605 268.467 168.605C262.454 168.605 260.126 172.336 259.309 177.71C261.761 180.001 264.962 181.391 268.467 181.391Z" fill="#F1F1E5"/>
</g>
</svg>
